<svg xmlns="http://www.w3.org/2000/svg" xmlns:xlink="http://www.w3.org/1999/xlink" width="19.479" height="19.479" viewBox="0 0 19.479 19.479"><defs><style>.a,.c{fill:#898f95;}.a{stroke:#707070;}.b{clip-path:url(#a);}</style><clipPath id="a"><rect class="a" width="19.479" height="19.479" transform="translate(0)"/></clipPath></defs><g class="b"><g transform="translate(0 0)"><g transform="translate(0 0)"><path class="c" d="M17.044,0H2.435A2.437,2.437,0,0,0,0,2.435V17.044a2.437,2.437,0,0,0,2.435,2.435h7.3v-6.7H7.3V9.739H9.739V7.3a3.652,3.652,0,0,1,3.652-3.652h2.435V6.7H14.609c-.672,0-1.217-.063-1.217.609V9.739h3.044l-1.217,3.044H13.392v6.7h3.652a2.437,2.437,0,0,0,2.435-2.435V2.435A2.437,2.437,0,0,0,17.044,0Z" transform="translate(0 0)"/></g></g></g></svg>