<svg xmlns="http://www.w3.org/2000/svg" xmlns:xlink="http://www.w3.org/1999/xlink" width="143" height="52" viewBox="0 0 143 52"><defs><style>.a{fill:#c6c6c6;}.b{clip-path:url(#a);}.c{fill:#2399e8;}.d{fill:url(#b);}.e{fill:url(#c);}.f{fill:#21b4e9;}.g{fill:#f6651f;}.h{fill:#653b97;}.i{fill:#d1d94a;}.j{fill:#fed819;}.k{fill:#114293;}.l{fill:#911f3e;}</style><clipPath id="a"><rect class="a" width="143" height="52"/></clipPath><linearGradient id="b" x1="22.845" y1="150.767" x2="22.927" y2="150.101" gradientUnits="objectBoundingBox"><stop offset="0" stop-color="#2399e8"/><stop offset="0.084" stop-color="#2194e3"/><stop offset="1" stop-color="#1061b2"/></linearGradient><linearGradient id="c" x1="0.558" y1="0.121" x2="0.341" y2="1.526" xlink:href="#b"/></defs><g class="b"><g transform="translate(0 1.213)"><g transform="translate(54.622 10.841)"><path d="M63.349,15.025c0,1.986-1.12,3.756-3.431,3.756-2.167,0-3.323-1.661-3.323-3.72s1.228-3.72,3.431-3.72C62.085,11.341,63.349,12.858,63.349,15.025Zm-5.634,0c0,1.517.758,2.853,2.275,2.853,1.625,0,2.239-1.336,2.239-2.853s-.722-2.781-2.275-2.781S57.715,13.508,57.715,15.025Z" transform="translate(-56.595 -11.341)"/><path d="M64.83,18.673V11.449h1.409c1.011,1.661,3.142,5.129,3.539,5.923h0c-.072-.9-.072-2.059-.072-3.251V11.413h1.011v7.223h-1.3c-.939-1.553-3.178-5.309-3.612-6.14h0c.036.795.072,2.059.072,3.359V18.6H64.83Z" transform="translate(-56.595 -11.341)"/><path d="M72.631,11.449h1.084v6.32h3.72l-.144.9H72.631V11.449Z" transform="translate(-56.595 -11.341)"/><path d="M79.53,11.449v7.223H78.446V11.449Z" transform="translate(-56.595 -11.341)"/><path d="M81.444,18.673V11.449h1.409c1.011,1.661,3.142,5.129,3.539,5.923h0c-.072-.9-.072-2.059-.072-3.251V11.413h1.011v7.223h-1.3c-.939-1.553-3.178-5.309-3.612-6.14h0c.036.795.072,2.059.072,3.359V18.6H81.444Z" transform="translate(-56.595 -11.341)"/><path d="M93.868,15.35H90.293v2.42h3.937l-.144.9h-4.84V11.449h4.767v.9h-3.72v2.095h3.576v.9Z" transform="translate(-56.595 -11.341)"/><g transform="translate(0.578 14.266)"><path d="M57.173,25.788h4.948c2.42,0,4.009,1.336,4.009,3.431,0,2.384-1.842,3.5-4.081,3.5h-1.77v3.756h-3.07V25.788Zm3.07,4.731h1.264c.867,0,1.517-.361,1.517-1.264s-.65-1.264-1.517-1.264h-1.3v2.528Z" transform="translate(-57.173 -25.607)"/><path d="M70.1,33.228a1.616,1.616,0,0,0,1.842,1.336c.939,0,1.372-.325,1.372-.939,0-.686-.47-.975-2.167-1.372-3.142-.758-3.792-1.914-3.792-3.359,0-1.806,1.3-3.287,4.3-3.287,3.07,0,4.334,1.553,4.515,3.251H73.137c-.072-.578-.361-1.156-1.481-1.156-.722,0-1.156.253-1.156.831s.4.795,2.023,1.192c3.287.831,3.937,2.023,3.937,3.539,0,1.986-1.553,3.4-4.7,3.4-2.962,0-4.515-1.372-4.731-3.431H70.1Z" transform="translate(-57.173 -25.607)"/><path d="M77.941,25.788H83.25c2.564,0,3.72,1.264,3.72,2.781a2.4,2.4,0,0,1-1.445,2.311,2.532,2.532,0,0,1,1.734,2.42c0,1.734-1.3,3.178-3.973,3.178H77.941ZM82.708,29.9c.867,0,1.192-.433,1.192-1.011,0-.65-.47-.975-1.228-.975H80.938v2.023h1.77Zm-1.734,4.442h1.589c1.011,0,1.481-.433,1.481-1.192,0-.686-.4-1.156-1.409-1.156H80.974Z" transform="translate(-57.173 -25.607)"/><path d="M92.315,25.788h3.142v8.343h5.02l-.325,2.311H92.315Z" transform="translate(-57.173 -25.607)"/><path d="M111.891,31.133c0,3.034-1.806,5.526-5.454,5.526-3.576,0-5.309-2.492-5.309-5.526a5.181,5.181,0,0,1,5.49-5.526C109.94,25.607,111.891,27.918,111.891,31.133Zm-7.585-.036c0,1.95.65,3.323,2.2,3.323,1.625,0,2.167-1.445,2.167-3.251,0-1.95-.578-3.287-2.2-3.287C104.956,27.846,104.306,29.11,104.306,31.1Z" transform="translate(-57.173 -25.607)"/><path d="M116.044,34.383l-.614,2.059H112.4l3.359-10.655H119.8l3.5,10.655h-3.251l-.65-2.059Zm2.817-2.311c-.506-1.661-.9-3.178-1.156-4.19h-.036c-.253,1.156-.65,2.673-1.084,4.19Z" transform="translate(-57.173 -25.607)"/><path d="M124.423,36.478V25.788h3.756c1.12,2.42,2.745,5.634,3.178,6.971h.036c-.108-1.12-.144-3-.144-4.7V25.788H134.1V36.478h-3.576c-.9-1.914-2.817-5.923-3.323-7.332h-.036c.108,1.011.108,3.07.108,4.948v2.384h-2.853Z" transform="translate(-57.173 -25.607)"/><path d="M138.617,33.228a1.616,1.616,0,0,0,1.842,1.336c.939,0,1.372-.325,1.372-.939,0-.686-.47-.975-2.167-1.372-3.142-.758-3.792-1.914-3.792-3.359,0-1.806,1.3-3.287,4.3-3.287,3.07,0,4.334,1.553,4.515,3.251h-3.034c-.072-.578-.361-1.156-1.481-1.156-.722,0-1.156.253-1.156.831s.4.795,2.023,1.192c3.287.831,3.937,2.023,3.937,3.539,0,1.986-1.553,3.4-4.7,3.4-2.962,0-4.515-1.372-4.731-3.431h3.07Z" transform="translate(-57.173 -25.607)"/></g></g><g transform="translate(7.85 6.174)"><circle class="c" cx="18.167" cy="18.167" r="18.167" transform="translate(0.036 0.044)"/><path class="d" d="M9.824,24.776a18.163,18.163,0,0,1,29.363-14.23A18.163,18.163,0,0,1,9.824,24.776Z" transform="translate(-9.824 -6.674)"/><path class="e" d="M12.533,15.35A18.167,18.167,0,0,1,37.453,9.318a18.361,18.361,0,0,1,7.585,9.1,18.167,18.167,0,0,1-24.921,6.032A17.711,17.711,0,0,1,12.533,15.35Z" transform="translate(-9.824 -6.674)"/></g><g transform="translate(10.544)"><path class="f" d="M49.083,19.828a1.525,1.525,0,0,1,1.084-1.842h0a1.471,1.471,0,0,1,1.806,1.084h0a1.525,1.525,0,0,1-1.084,1.842h0a1.229,1.229,0,0,1-.361.036h0A1.5,1.5,0,0,1,49.083,19.828Z" transform="translate(-12.517 -0.5)"/><path class="g" d="M47.169,14.844a1.5,1.5,0,0,1,.614-2.023h0a1.5,1.5,0,0,1,2.023.614h0a1.5,1.5,0,0,1-.614,2.023h0a1.644,1.644,0,0,1-.722.181h0A1.479,1.479,0,0,1,47.169,14.844Z" transform="translate(-12.517 -0.5)"/><path class="h" d="M44.063,10.474a1.5,1.5,0,0,1,.108-2.131h0a1.529,1.529,0,0,1,2.131.108h0a1.5,1.5,0,0,1-.108,2.131h0a1.552,1.552,0,0,1-1.011.4h0A1.539,1.539,0,0,1,44.063,10.474Z" transform="translate(-12.517 -0.5)"/><path class="i" d="M12.822,7.512a1.5,1.5,0,0,1,.289-2.095h0a1.5,1.5,0,0,1,2.095.289h0A1.5,1.5,0,0,1,14.916,7.8h0a1.354,1.354,0,0,1-.9.289h0A1.422,1.422,0,0,1,12.822,7.512Z" transform="translate(-12.517 -0.5)"/><path class="j" d="M40.018,7.007h0a1.551,1.551,0,0,1-.433-2.095h0a1.551,1.551,0,0,1,2.095-.433h0a1.551,1.551,0,0,1,.433,2.095h0a1.515,1.515,0,0,1-1.264.686h0A1.405,1.405,0,0,1,40.018,7.007Z" transform="translate(-12.517 -0.5)"/><path class="f" d="M17.553,4.334a1.526,1.526,0,0,1,.795-1.986h0a1.526,1.526,0,0,1,1.986.795h0a1.526,1.526,0,0,1-.795,1.986h0a1.636,1.636,0,0,1-.578.108h0A1.5,1.5,0,0,1,17.553,4.334Z" transform="translate(-12.517 -0.5)"/><path class="k" d="M35.214,4.623h0a1.473,1.473,0,0,1-.9-1.914h0a1.473,1.473,0,0,1,1.914-.9h0a1.473,1.473,0,0,1,.9,1.914h0A1.509,1.509,0,0,1,35.72,4.731h0A1.418,1.418,0,0,1,35.214,4.623Z" transform="translate(-12.517 -0.5)"/><path class="g" d="M22.97,2.42a1.458,1.458,0,0,1,1.264-1.7h0a1.458,1.458,0,0,1,1.7,1.264h0a1.458,1.458,0,0,1-1.264,1.7h-.217A1.483,1.483,0,0,1,22.97,2.42Z" transform="translate(-12.517 -0.5)"/><path class="l" d="M30.013,3.5h0a1.5,1.5,0,0,1-1.372-1.625h0A1.5,1.5,0,0,1,30.266.506h0a1.5,1.5,0,0,1,1.372,1.625h0A1.492,1.492,0,0,1,30.158,3.5h-.144Z" transform="translate(-12.517 -0.5)"/></g><g transform="translate(0 8.104)"><path class="g" d="M51.395,25.354a23.712,23.712,0,0,1-.542,5.526,24.58,24.58,0,0,1-1.806,5.273,23.2,23.2,0,0,1-1.336,2.456c-.506.795-1.047,1.553-1.625,2.311a24.546,24.546,0,0,1-4.009,3.973,13.405,13.405,0,0,1-1.156.831c-.4.289-.795.506-1.192.758-.831.47-1.625.939-2.492,1.336a24.092,24.092,0,0,1-5.381,1.77,25.064,25.064,0,0,1-5.67.47,27.2,27.2,0,0,1-5.67-.831A26.2,26.2,0,0,1,15.169,47.1a23.774,23.774,0,0,1-4.731-3.323A25.3,25.3,0,0,1,2.059,22.79a26.4,26.4,0,0,1,1.192-5.815,26.946,26.946,0,0,1,2.492-5.381,2.267,2.267,0,1,1,3.9,2.311c0,.036-.036.036-.036.072l-.036.036a21.7,21.7,0,0,0-2.239,4.37,19.845,19.845,0,0,0-1.156,4.8A21.656,21.656,0,0,0,7.26,33.011a18.446,18.446,0,0,0,.975,2.311c.181.361.4.758.578,1.12.217.361.4.722.65,1.084a23.452,23.452,0,0,0,3.178,3.9,22.216,22.216,0,0,0,8.668,5.129,21.609,21.609,0,0,0,5.02.939,24.408,24.408,0,0,0,5.129-.217,21.5,21.5,0,0,0,4.948-1.409c.795-.325,1.589-.722,2.348-1.12.361-.217.758-.433,1.12-.65.361-.253.722-.47,1.084-.722a23.7,23.7,0,0,0,3.865-3.5,15.208,15.208,0,0,0,1.589-2.095c.506-.722.939-1.481,1.372-2.239A23.889,23.889,0,0,0,49.7,30.627a23.167,23.167,0,0,0,.722-5.237h0a.5.5,0,0,1,.542-.506C51.178,24.849,51.395,25.065,51.395,25.354Z" transform="translate(-1.974 -8.604)"/><path class="g" d="M3.323,12.1,9.86,8.632a.162.162,0,0,1,.253.144l.361,7.4a.162.162,0,0,1-.253.144l-6.934-3.9A.189.189,0,0,1,3.323,12.1Z" transform="translate(-1.974 -8.604)"/></g></g></g></svg>