<svg xmlns="http://www.w3.org/2000/svg" xmlns:xlink="http://www.w3.org/1999/xlink" width="19.479" height="19.479" viewBox="0 0 19.479 19.479"><defs><style>.a,.c{fill:#898f95;}.a{stroke:#707070;}.b{clip-path:url(#a);}</style><clipPath id="a"><rect class="a" width="19.479" height="19.479"/></clipPath></defs><g class="b"><g transform="translate(0 1.721)"><path class="c" d="M9.855,5.4c3.282.032,5.338-.172,5.616,3.466h4c0-5.636-4.915-6.4-9.723-6.4s-9.723.76-9.723,6.4H4C4.307,5.162,6.6,5.371,9.855,5.4Z" transform="translate(-0.009 -2.474)"/><path class="c" d="M2,13.681c.975,0,1.786.058,1.966-.9a2.447,2.447,0,0,0,.038-.449H0C0,13.757.9,13.681,2,13.681Z" transform="translate(0 -5.473)"/><path class="c" d="M22.247,12.331H22.21a2.142,2.142,0,0,0,.042.449c.19.884,1,.829,1.972.829,1.112,0,2.014.073,2.014-1.278H22.247Z" transform="translate(-6.759 -5.473)"/><path class="c" d="M14.149,10.569V10c0-.253-.292-.269-.653-.269h-.589c-.36,0-.652.016-.652.269v.867H8.087V10c0-.253-.292-.269-.652-.269h-.59c-.36,0-.652.016-.652.269v1.062a42,42,0,0,0-4.169,5.695l0,3.393a.569.569,0,0,0,.568.568H17.748a.569.569,0,0,0,.568-.568v-3.41a42.752,42.752,0,0,0-4.168-5.678ZM7.881,17.215a.552.552,0,1,1,.552-.552A.552.552,0,0,1,7.881,17.215Zm0-1.894a.552.552,0,1,1,.552-.552A.552.552,0,0,1,7.881,15.321Zm0-1.894a.552.552,0,1,1,.552-.552A.552.552,0,0,1,7.881,13.427Zm2.273,3.788a.552.552,0,1,1,.552-.552A.552.552,0,0,1,10.155,17.215Zm0-1.894a.552.552,0,1,1,.552-.552A.552.552,0,0,1,10.155,15.321Zm0-1.894a.552.552,0,1,1,.552-.552A.552.552,0,0,1,10.155,13.427Zm2.273,3.788a.552.552,0,1,1,.552-.552A.552.552,0,0,1,12.428,17.215Zm0-1.894a.552.552,0,1,1,.552-.552A.552.552,0,0,1,12.428,15.321Zm0-1.894a.552.552,0,1,1,.552-.552A.552.552,0,0,1,12.428,13.427Z" transform="translate(-0.616 -4.683)"/></g></g></svg>