<svg xmlns="http://www.w3.org/2000/svg" xmlns:xlink="http://www.w3.org/1999/xlink" width="19.479" height="19.479" viewBox="0 0 19.479 19.479"><defs><style>.a,.c{fill:#898f95;}.a{stroke:#707070;}.b{clip-path:url(#a);}</style><clipPath id="a"><rect class="a" width="19.479" height="19.479" transform="translate(0)"/></clipPath></defs><g class="b"><g transform="translate(0 1.828)"><g transform="translate(0 0)"><path class="c" d="M19.479,4.5a7.98,7.98,0,0,1-2.294.629A4.013,4.013,0,0,0,18.941,2.92a8.056,8.056,0,0,1-2.539.97A4,4,0,0,0,9.593,7.533,11.345,11.345,0,0,1,1.357,3.358,4,4,0,0,0,2.594,8.692a4,4,0,0,1-1.81-.5v.05a4,4,0,0,0,3.2,3.918,4.048,4.048,0,0,1-1.053.14,3.835,3.835,0,0,1-.752-.074A4,4,0,0,0,5.916,15,8.017,8.017,0,0,1,.953,16.707,8.492,8.492,0,0,1,0,16.653a11.3,11.3,0,0,0,6.125,1.8A11.29,11.29,0,0,0,17.494,7.082l-.013-.517A7.979,7.979,0,0,0,19.479,4.5Z" transform="translate(0 -2.628)"/></g></g></g></svg>