<svg xmlns="http://www.w3.org/2000/svg" xmlns:xlink="http://www.w3.org/1999/xlink" width="19.479" height="19.479" viewBox="0 0 19.479 19.479"><defs><style>.a,.c{fill:#898f95;}.a{stroke:#707070;}.b{clip-path:url(#a);}</style><clipPath id="a"><rect class="a" width="19.479" height="19.479"/></clipPath></defs><g class="b"><g transform="translate(0 3.044)"><path class="c" d="M18.651,5.665c-.528-.94-1.1-1.113-2.269-1.178s-4.1-.112-6.64-.112-5.48.033-6.645.111-1.74.239-2.273,1.18S0,8.221,0,11.067v.01c0,2.834.28,4.463.824,5.392s1.107,1.11,2.272,1.189,4.1.108,6.646.108,5.474-.04,6.641-.107,1.741-.25,2.269-1.189c.549-.929.827-2.558.827-5.392v-.01C19.479,8.221,19.2,6.6,18.651,5.665ZM7.3,14.723v-7.3l6.087,3.652Z" transform="translate(0 -4.375)"/></g></g></svg>