<svg xmlns="http://www.w3.org/2000/svg" xmlns:xlink="http://www.w3.org/1999/xlink" width="20" height="20" viewBox="0 0 20 20"><defs><style>.a{fill:#81b945;}.b{clip-path:url(#a);}</style><clipPath id="a"><rect class="a" width="20" height="20" rx="1" transform="translate(0 -0.092)"/></clipPath></defs><g class="b" transform="translate(0 0.092)"><g transform="translate(2.293 2.29)"><path class="a" d="M5.008,17.68a2.5,2.5,0,0,0-2.493-2.494,2.605,2.605,0,0,0-1.863.838,2.493,2.493,0,0,0,1.863,4.15,2.587,2.587,0,0,0,1.687-.66A2.5,2.5,0,0,0,5.008,17.68Zm-1.578.541H3.022v.408a.507.507,0,1,1-1.014,0v-.408H1.6a.507.507,0,1,1,0-1.014h.408V16.8a.507.507,0,1,1,1.014,0v.408H3.43a.507.507,0,0,1,0,1.014Zm0,0" transform="translate(-0.021 -4.035)"/><path class="a" d="M10.671,9.839a.959.959,0,1,0-.959-.959A.96.96,0,0,0,10.671,9.839Zm0,0" transform="translate(-2.596 -2.104)"/><path class="a" d="M10.36,11.824a1.881,1.881,0,0,0-1.817,1.4h3.633a1.88,1.88,0,0,0-1.817-1.4Zm0,0" transform="translate(-2.286 -3.142)"/><path class="a" d="M13.805,2.366A8.074,8.074,0,0,0,.021,8.077a8.124,8.124,0,0,0,.567,2.977,2.985,2.985,0,0,1,2.2-.818,3.419,3.419,0,0,1,3.179,3.243,3.247,3.247,0,0,1-.718,2.157,8.115,8.115,0,0,0,2.849.518,8.078,8.078,0,0,0,5.71-13.788Zm-3.359,8.667h-4.7a.473.473,0,0,1-.473-.473A2.826,2.826,0,0,1,6.721,8.094a1.905,1.905,0,1,1,2.749,0,2.826,2.826,0,0,1,1.449,2.466.473.473,0,0,1-.473.473Zm0,0" transform="translate(-0.021 0)"/></g></g></svg>