<svg xmlns="http://www.w3.org/2000/svg" xmlns:xlink="http://www.w3.org/1999/xlink" width="16" height="16" viewBox="0 0 16 16"><defs><style>.a{fill:#ff4e4e;}.b{clip-path:url(#a);}</style><clipPath id="a"><rect class="a" width="16" height="16" transform="translate(0 0.046)"/></clipPath></defs><g class="b" transform="translate(0 -0.046)"><path class="a" d="M13.664,4.772H3.706c-.01.122-.047-.531.674,10.284a1.094,1.094,0,0,0,1.088,1.018H11.9a1.094,1.094,0,0,0,1.088-1.018C13.712,4.231,13.674,4.892,13.664,4.772ZM6.719,14.063a.5.5,0,0,1-.544-.457l-.5-5.776a.5.5,0,0,1,1-.087l.5,5.776A.5.5,0,0,1,6.719,14.063Zm2.468-.5a.5.5,0,0,1-1,0V7.786a.5.5,0,0,1,1,0ZM11.7,7.829l-.5,5.776a.5.5,0,0,1-1-.087l.5-5.776a.5.5,0,1,1,1,.087Zm2.176-6.071H11.444c.005-.066,0-.017,0-.667A1.092,1.092,0,0,0,10.357,0H7.013A1.092,1.092,0,0,0,5.922,1.091c0,.638,0,.6,0,.667H3.5A1.092,1.092,0,0,0,2.406,2.849c0,.9,0,.855,0,.918H14.96c0-.064,0-.026,0-.918a1.092,1.092,0,0,0-1.091-1.091Zm-3.43-.086a.086.086,0,0,1-.086.086H7.013a.086.086,0,0,1-.086-.086V1.091A.086.086,0,0,1,7.013,1h3.343a.086.086,0,0,1,.086.086Z" transform="translate(-0.497 0.151)"/></g></svg>