<svg xmlns="http://www.w3.org/2000/svg" xmlns:xlink="http://www.w3.org/1999/xlink" width="22" height="22" viewBox="0 0 22 22"><defs><style>.a,.c{fill:#3381DD;}.a{stroke:#707070;opacity:0.4;}.b{clip-path:url(#a);}</style><clipPath id="a"><circle class="a" cx="11" cy="11" r="11" transform="translate(893 291)"/></clipPath></defs><g class="b" transform="translate(-893 -291)"><path class="c" d="M11,0A11,11,0,1,0,22,11,11.012,11.012,0,0,0,11,0Zm5.575,8.669-5.958,5.958a.916.916,0,0,1-1.3,0L6.342,11.648a.916.916,0,1,1,1.3-1.3l2.331,2.331,5.31-5.31a.916.916,0,0,1,1.3,1.3Zm0,0" transform="translate(893 291)"/></g></svg>