<svg xmlns="http://www.w3.org/2000/svg" xmlns:xlink="http://www.w3.org/1999/xlink" width="66" height="66" viewBox="0 0 66 66"><defs><style>.a,.c{fill:#dbdbdb;}.a{stroke:#707070;}.b{clip-path:url(#a);}</style><clipPath id="a"><rect class="a" width="66" height="66" transform="translate(1221 428.5)"/></clipPath></defs><g class="b" transform="translate(-1221 -428.5)"><g transform="translate(1221 428.5)"><path class="c" d="M57.753,10.309H16.517a4.124,4.124,0,0,0,0,8.247H57.753a4.124,4.124,0,1,0,0-8.247Z"/><path class="c" d="M8.27,14.432a4.124,4.124,0,0,0-8.247,0,3.511,3.511,0,0,0,0,.8,3.718,3.718,0,0,0,.227.783,4.786,4.786,0,0,0,.392.7,3.772,3.772,0,0,0,.515.639,3.65,3.65,0,0,0,.619.495,3.36,3.36,0,0,0,.7.392,3.4,3.4,0,0,0,.866.309,3.616,3.616,0,0,0,.8,0,4.123,4.123,0,0,0,2.907-1.2,3.772,3.772,0,0,0,.515-.639,4.786,4.786,0,0,0,.392-.7,3.829,3.829,0,0,0,.309-.783A3.511,3.511,0,0,0,8.27,14.432Z"/><path class="c" d="M8.27,32.988a3.525,3.525,0,0,0,0-.8,3.341,3.341,0,0,0-.309-.763,4.122,4.122,0,0,0-.392-.722,2.969,2.969,0,0,0-.515-.619A4.124,4.124,0,0,0,.023,32.988,4.113,4.113,0,0,0,.7,35.277a3.96,3.96,0,0,0,.536.619,3.011,3.011,0,0,0,.619.515,3.345,3.345,0,0,0,.7.392,3.507,3.507,0,0,0,.783.227,3.422,3.422,0,0,0,.8.082,3.511,3.511,0,0,0,.8,0,3.346,3.346,0,0,0,.763-.227,3.443,3.443,0,0,0,.722-.392,3.011,3.011,0,0,0,.619-.515,3.011,3.011,0,0,0,.515-.619,3.316,3.316,0,0,0,.392-.7,3.488,3.488,0,0,0,.309-.866A3.411,3.411,0,0,0,8.27,32.988Z"/><path class="c" d="M8.27,51.544a3.54,3.54,0,0,0,0-.8,3.51,3.51,0,0,0-.309-.783,4.786,4.786,0,0,0-.392-.7,3.01,3.01,0,0,0-.515-.619,4.124,4.124,0,0,0-5.814,0,3.011,3.011,0,0,0-.515.619,4.786,4.786,0,0,0-.392.7,3.379,3.379,0,0,0-.227.783,3.544,3.544,0,0,0-.082.8A4.124,4.124,0,0,0,1.24,54.452a3.011,3.011,0,0,0,.619.515,3.345,3.345,0,0,0,.7.392,3.507,3.507,0,0,0,.783.227,3.422,3.422,0,0,0,.8.082,3.51,3.51,0,0,0,.8,0,3.346,3.346,0,0,0,.763-.227,3.443,3.443,0,0,0,.722-.392,3.011,3.011,0,0,0,.619-.515,3.011,3.011,0,0,0,.515-.619,3.3,3.3,0,0,0,.392-.7,3.5,3.5,0,0,0,.309-.866A3.411,3.411,0,0,0,8.27,51.544Z"/><path class="c" d="M61.877,28.865H16.517a4.124,4.124,0,0,0,0,8.247H61.877a4.124,4.124,0,0,0,0-8.247Z"/><path class="c" d="M43.321,47.421h-26.8a4.124,4.124,0,0,0,0,8.247h26.8a4.124,4.124,0,0,0,0-8.247Z"/></g></g></svg>