<svg width="200" height="200" viewBox="0 0 200 200" fill="none" xmlns="http://www.w3.org/2000/svg">
<circle cx="100" cy="100" r="84.5" stroke="#ffffff" stroke-width="5"/>
<path fill-rule="evenodd" clip-rule="evenodd" d="M105 50H95V58.2945C92.9576 58.5368 90.9601 58.9256 89.0183 59.4502L85.915 51.765L76.6425 55.5092L79.7468 63.197C78.1513 64.0769 76.6192 65.0575 75.159 66.1303L69.4913 60.0723L62.1889 66.9043L67.8579 72.9636C66.3058 74.8069 64.9094 76.7856 63.6888 78.8795L56.0761 75.5933L52.1128 84.7744L59.7218 88.059C59.0584 90.3002 58.5769 92.6196 58.2945 95H50V105H58.2945C58.5368 107.042 58.9256 109.04 59.4502 110.982L51.765 114.085L55.5092 123.358L63.197 120.253C64.0769 121.849 65.0575 123.381 66.1303 124.841L60.0724 130.509L66.9044 137.811L72.9636 132.142C74.8069 133.694 76.7857 135.091 78.8795 136.311L75.5933 143.924L84.7744 147.887L88.059 140.278C90.3002 140.942 92.6196 141.423 95 141.705V150H105V141.705C107.042 141.463 109.04 141.074 110.982 140.55L114.085 148.235L123.358 144.491L120.253 136.803C121.849 135.923 123.381 134.943 124.841 133.87L130.509 139.928L137.811 133.096L132.142 127.036C133.694 125.193 135.091 123.214 136.311 121.12L143.924 124.407L147.887 115.226L140.278 111.941C140.942 109.7 141.423 107.38 141.705 105H150V95H141.705C141.463 92.9576 141.074 90.9601 140.55 89.0183L148.235 85.915L144.491 76.6425L136.803 79.7467C135.923 78.1513 134.943 76.6192 133.87 75.159L139.928 69.4913L133.096 62.1889L127.036 67.8579C125.193 66.3058 123.214 64.9094 121.121 63.6888L124.407 56.0761L115.226 52.1128L111.941 59.7218C109.7 59.0584 107.38 58.5769 105 58.2945V50ZM105 68.3883C103.371 68.1327 101.701 68 100 68C98.2991 68 96.6291 68.1327 95 68.3883C94.2576 68.5048 93.5237 68.6468 92.7992 68.8134C89.482 69.5762 86.3618 70.8547 83.5275 72.5598C83.0276 72.8605 82.5367 73.1745 82.0552 73.5012C79.2786 75.3852 76.8137 77.6941 74.754 80.3345C74.1159 81.1525 73.5167 82.0023 72.9591 82.8812C71.1854 85.6771 69.8334 88.7668 68.9925 92.0609C68.7467 93.0239 68.5446 94.0043 68.3883 95C68.1327 96.6291 68 98.2991 68 100C68 101.701 68.1327 103.371 68.3883 105C68.5048 105.742 68.6468 106.476 68.8134 107.201C69.5762 110.518 70.8547 113.638 72.5598 116.473C72.8605 116.972 73.1745 117.463 73.5012 117.945C75.3852 120.721 77.6941 123.186 80.3345 125.246C81.1525 125.884 82.0023 126.483 82.8812 127.041C85.6771 128.815 88.7668 130.167 92.0609 131.007C93.0239 131.253 94.0043 131.455 95 131.612C96.6291 131.867 98.2991 132 100 132C101.701 132 103.371 131.867 105 131.612C105.742 131.495 106.476 131.353 107.201 131.187C110.518 130.424 113.638 129.145 116.473 127.44C116.972 127.139 117.463 126.826 117.945 126.499C120.721 124.615 123.186 122.306 125.246 119.666C125.884 118.847 126.483 117.998 127.041 117.119C128.815 114.323 130.167 111.233 131.007 107.939C131.253 106.976 131.455 105.996 131.612 105C131.867 103.371 132 101.701 132 100C132 98.2991 131.867 96.6291 131.612 95C131.495 94.2576 131.353 93.5237 131.187 92.7992C130.424 89.482 129.145 86.3618 127.44 83.5274C127.139 83.0276 126.826 82.5367 126.499 82.0552C124.615 79.2786 122.306 76.8137 119.666 74.754C118.848 74.1159 117.998 73.5167 117.119 72.9591C114.323 71.1854 111.233 69.8334 107.939 68.9925C106.976 68.7467 105.996 68.5446 105 68.3883Z" fill="#ffffff"/>
<path d="M75 93L87.1822 99.5394V88.5L94.5 96V81L97.5 78H107.5V79.5H105V84H100.5V91L112.5 99V92.244H125V113H75V93Z" fill="#ffffff"/>
<path d="M67.3212 57.0316L57.9685 44.2453L52.8254 48.0073L50.6807 45.0751L64.4546 35L66.5993 37.9321L61.4681 41.6854L70.8208 54.4717L67.3212 57.0316Z" fill="#ffffff"/>
<path d="M85.6007 47.2265L81.4176 28.2065L85.6523 27.2751L89.8355 46.2952L85.6007 47.2265Z" fill="#ffffff"/>
<path d="M104.39 44.6198L105.342 25.1684L109.672 25.3802L108.721 44.8316L104.39 44.6198Z" fill="#ffffff"/>
<path d="M135.531 48.1752L138.249 51.1783C136.653 52.7392 134.994 53.6248 133.272 53.8351C131.562 54.0422 129.794 53.6125 127.965 52.5459C125.703 51.2262 124.294 49.3707 123.737 46.9795C123.184 44.5805 123.69 42.0408 125.254 39.3605C126.908 36.5252 128.924 34.7523 131.301 34.0417C133.682 33.3233 136.066 33.6601 138.452 35.0522C140.536 36.2679 141.869 37.8713 142.452 39.8623C142.802 41.0424 142.773 42.4272 142.365 44.0165L138.485 42.8436C138.799 41.843 138.784 40.8995 138.439 40.0131C138.102 39.1312 137.477 38.4236 136.562 37.8903C135.3 37.1536 134.009 37.0079 132.69 37.4533C131.379 37.9032 130.131 39.1429 128.947 41.1725C127.691 43.3261 127.183 45.0859 127.424 46.4519C127.666 47.818 128.406 48.8626 129.646 49.5857C130.56 50.119 131.516 50.2872 132.513 50.0904C133.51 49.8936 134.516 49.2552 135.531 48.1752Z" fill="#ffffff"/>
<path d="M28.973 127.555L45.7603 119.52L51.7184 131.967L48.8785 133.327L44.5429 124.269L40.8213 126.05L44.8554 134.478L42.027 135.832L37.9929 127.404L33.4239 129.591L37.913 138.969L35.0845 140.323L28.973 127.555Z" fill="#ffffff"/>
<path d="M44.7021 141.348L47.1463 144.277C46.2222 145.184 45.7088 146.093 45.6063 147.003C45.5086 147.921 45.7941 148.87 46.4626 149.85C47.1707 150.888 47.9209 151.52 48.7131 151.746C49.5175 151.974 50.2138 151.887 50.802 151.486C51.1795 151.229 51.4223 150.898 51.5302 150.495C51.6503 150.094 51.6202 149.551 51.4399 148.865C51.3131 148.398 50.9587 147.379 50.3766 145.808C49.6265 143.788 49.326 142.216 49.4751 141.093C49.6852 139.514 50.422 138.293 51.6854 137.432C52.4987 136.877 53.4135 136.588 54.4298 136.565C55.4583 136.545 56.4524 136.84 57.412 137.452C58.3766 138.071 59.2773 138.994 60.1141 140.221C61.4809 142.225 62.0691 144.031 61.8787 145.64C61.6934 147.256 60.8847 148.589 59.4525 149.64L57.1123 146.513C57.8387 145.815 58.2239 145.116 58.2677 144.416C58.3238 143.718 58.0423 142.916 57.4233 142.008C56.7845 141.071 56.092 140.469 55.3456 140.202C54.866 140.029 54.4192 140.083 54.0054 140.366C53.6278 140.623 53.4136 141.003 53.3628 141.506C53.2988 142.145 53.6165 143.375 54.3157 145.196C55.015 147.017 55.42 148.438 55.5307 149.458C55.6536 150.481 55.5137 151.438 55.1111 152.33C54.7207 153.223 54.0208 154.015 53.0115 154.703C52.0966 155.327 51.0664 155.657 49.921 155.693C48.7757 155.73 47.69 155.417 46.664 154.755C45.6454 154.088 44.6631 153.061 43.7173 151.674C42.3407 149.655 41.7482 147.788 41.9398 146.072C42.1387 144.352 43.0595 142.777 44.7021 141.348Z" fill="#ffffff"/>
<path d="M61.8302 165.768L68.7644 152.861L63.5253 150.046L65.1299 147.059L79.1611 154.597L77.5565 157.584L72.3294 154.776L65.3952 167.683L61.8302 165.768Z" fill="#ffffff"/>
<path d="M82.3768 155.024L89.2025 156.165C90.7417 156.422 91.8954 156.736 92.6635 157.107C93.6951 157.608 94.5296 158.331 95.1671 159.276C95.8045 160.221 96.226 161.321 96.4315 162.574C96.6384 163.819 96.5971 165.308 96.3074 167.041C96.053 168.563 95.6444 169.844 95.0817 170.882C94.3942 172.151 93.5518 173.13 92.5547 173.819C91.8016 174.341 90.8446 174.687 89.6837 174.856C88.8158 174.979 87.6921 174.926 86.3127 174.695L79.2852 173.52L82.3768 155.024ZM85.5884 158.777L83.5406 171.028L86.3289 171.494C87.3719 171.669 88.1346 171.736 88.6169 171.695C89.2478 171.645 89.7911 171.472 90.2469 171.176C90.7111 170.882 91.1382 170.344 91.5284 169.562C91.9199 168.771 92.2351 167.661 92.4741 166.231C92.7132 164.801 92.7705 163.683 92.6461 162.875C92.5217 162.068 92.2682 161.411 91.8857 160.906C91.5032 160.402 90.9756 160.015 90.3027 159.747C89.8009 159.542 88.7888 159.312 87.2664 159.058L85.5884 158.777Z" fill="#ffffff"/>
<path d="M101.455 175.363V171.246H105.571V175.363H101.455Z" fill="#ffffff"/>
<path d="M133.595 167.937L130.004 169.302L125.569 157.638C124.724 159.363 123.522 160.859 121.965 162.123L120.726 158.865C121.547 158.202 122.345 157.235 123.12 155.965C123.892 154.687 124.265 153.399 124.24 152.102L127.154 150.995L133.595 167.937Z" fill="#ffffff"/>
<path d="M141.839 159.145L144.403 156.607C144.925 157.124 145.44 157.406 145.948 157.452C146.455 157.498 146.947 157.333 147.422 156.956C148.021 156.481 148.313 155.802 148.296 154.918C148.279 154.034 147.642 152.678 146.383 150.849C146.324 152.275 145.747 153.422 144.652 154.29C143.461 155.235 142.068 155.593 140.474 155.365C138.881 155.124 137.501 154.267 136.333 152.793C135.115 151.257 134.59 149.661 134.756 148.003C134.924 146.334 135.714 144.939 137.126 143.82C138.662 142.602 140.395 142.199 142.324 142.61C144.248 143.014 146.288 144.576 148.445 147.296C150.64 150.065 151.71 152.469 151.656 154.509C151.602 156.548 150.751 158.22 149.105 159.525C147.921 160.464 146.715 160.91 145.488 160.862C144.256 160.807 143.039 160.235 141.839 159.145ZM143.381 147.593C142.638 146.656 141.845 146.102 141.002 145.929C140.165 145.751 139.465 145.886 138.9 146.334C138.363 146.759 138.084 147.328 138.065 148.039C138.046 148.737 138.42 149.569 139.184 150.533C139.959 151.511 140.723 152.078 141.474 152.234C142.22 152.382 142.883 152.227 143.461 151.769C144.019 151.327 144.313 150.735 144.342 149.994C144.378 149.247 144.058 148.447 143.381 147.593Z" fill="#ffffff"/>
<path d="M167.443 127.976L168.278 124.466C168.994 124.629 169.58 124.596 170.035 124.366C170.491 124.137 170.82 123.737 171.024 123.166C171.282 122.446 171.17 121.715 170.688 120.974C170.206 120.232 168.948 119.418 166.912 118.532C167.617 119.773 167.734 121.052 167.264 122.368C166.752 123.8 165.759 124.84 164.286 125.49C162.807 126.128 161.182 126.131 159.411 125.498C157.565 124.838 156.275 123.761 155.54 122.266C154.799 120.76 154.732 119.159 155.339 117.462C155.998 115.616 157.255 114.358 159.11 113.686C160.957 113.011 163.515 113.258 166.784 114.426C170.111 115.615 172.291 117.09 173.323 118.849C174.356 120.609 174.518 122.478 173.811 124.456C173.303 125.879 172.515 126.895 171.448 127.503C170.373 128.109 169.038 128.266 167.443 127.976ZM162.643 117.356C161.517 116.954 160.551 116.903 159.744 117.202C158.939 117.494 158.416 117.979 158.174 118.657C157.943 119.303 158.007 119.932 158.366 120.546C158.72 121.149 159.477 121.657 160.636 122.071C161.811 122.491 162.758 122.569 163.479 122.303C164.191 122.035 164.671 121.553 164.919 120.858C165.159 120.188 165.095 119.53 164.728 118.886C164.364 118.233 163.669 117.723 162.643 117.356Z" fill="#ffffff"/>
<path d="M164.029 141.705L161.306 139.658L156.553 145.981L153.96 144.032L149.189 129.954L151.059 127.467L160.859 134.835L162.301 132.917L164.903 134.874L163.461 136.792L166.184 138.839L164.029 141.705ZM158.704 137.701L153.425 133.732L156.034 141.252L158.704 137.701Z" fill="#ffffff"/>
</svg>
