<svg width="900" height="156" viewBox="0 0 900 156" fill="none" xmlns="http://www.w3.org/2000/svg">
<circle cx="76.4968" cy="81.1099" r="58.7204" stroke="#0C4393" stroke-width="3.47458"/>
<path fill-rule="evenodd" clip-rule="evenodd" d="M79.9714 46.3641H73.0223V52.1281C71.6029 52.2965 70.2149 52.5667 68.8655 52.9312L66.709 47.5907L60.2653 50.1926L62.4225 55.5349C61.3138 56.1464 60.2491 56.8278 59.2344 57.5733L55.2958 53.3636L50.2213 58.1112L54.1608 62.3219C53.0822 63.6029 52.1118 64.9779 51.2636 66.433L45.9734 64.1493L43.2193 70.5294L48.5068 72.8119C48.0458 74.3694 47.7112 75.9812 47.515 77.6354H41.751V84.5845H47.515C47.6834 86.0038 47.9536 87.3919 48.3181 88.7413L42.9776 90.8978L45.5795 97.3415L50.9218 95.1842C51.5333 96.293 52.2147 97.3577 52.9602 98.3724L48.7505 102.311L53.4981 107.385L57.7088 103.446C58.9898 104.525 60.3648 105.495 61.8199 106.343L59.5362 111.633L65.9163 114.388L68.1988 109.1C69.7563 109.561 71.3681 109.896 73.0223 110.092V115.856H79.9714V110.092C81.3908 109.923 82.7788 109.653 84.1282 109.289L86.2847 114.629L92.7284 112.027L90.5711 106.685C91.6799 106.073 92.7446 105.392 93.7593 104.647L97.6979 108.856L102.772 104.109L98.8329 99.8979C99.9115 98.617 100.882 97.242 101.73 95.7869L107.02 98.0706L109.774 91.6905L104.487 89.408C104.948 87.8505 105.282 86.2387 105.479 84.5845H111.243V77.6354H105.479C105.31 76.216 105.04 74.828 104.676 73.4786L110.016 71.3221L107.414 64.8784L102.072 67.0356C101.46 65.9269 100.779 64.8622 100.033 63.8475L104.243 59.9089L99.4956 54.8344L95.2849 58.7739C94.0039 57.6953 92.6289 56.7249 91.1738 55.8767L93.4575 50.5865L87.0774 47.8324L84.7949 53.1199C83.2374 52.6589 81.6256 52.3243 79.9714 52.1281V46.3641ZM79.9714 59.1425C79.5469 59.0759 79.1184 59.0213 78.6862 58.979C77.9659 58.9087 77.2356 58.8726 76.4969 58.8726C75.3149 58.8726 74.1544 58.9649 73.0223 59.1425V59.1425C72.5064 59.2234 71.9964 59.3221 71.4929 59.4379L71.4929 59.4379C69.1877 59.968 67.0195 60.8564 65.0498 62.0413L65.0498 62.0413C64.7025 62.2502 64.3613 62.4684 64.0267 62.6955L64.0267 62.6955C62.0972 64.0047 60.3843 65.6092 58.953 67.4441L58.953 67.444C58.5095 68.0125 58.0931 68.6031 57.7057 69.2138L57.7057 69.2138C56.4732 71.1567 55.5336 73.3038 54.9493 75.5929L54.9492 75.5929C54.7784 76.2621 54.6379 76.9434 54.5294 77.6354H54.5294C54.3518 78.7675 54.2595 79.928 54.2595 81.11C54.2595 81.9965 54.3114 82.8708 54.4123 83.7302C54.4459 84.0167 54.485 84.3015 54.5294 84.5845C54.6104 85.1004 54.709 85.6104 54.8248 86.1139C55.3549 88.419 56.2433 90.5873 57.4282 92.557C57.6372 92.9043 57.8554 93.2455 58.0824 93.5801C59.3916 95.5096 60.9961 97.2225 62.831 98.6538C63.3994 99.0972 63.99 99.5136 64.6007 99.9011C66.5436 101.134 68.6907 102.073 70.9798 102.658C71.649 102.828 72.3304 102.969 73.0223 103.077C73.4946 103.152 73.9718 103.211 74.4535 103.255C75.1264 103.316 75.8079 103.347 76.4968 103.347C88.7782 103.347 98.7341 93.3913 98.7341 81.1099C98.7341 79.3893 98.5388 77.7143 98.1689 76.106C97.6388 73.8008 96.7504 71.6325 95.5655 69.6629C95.3565 69.3156 95.1384 68.9744 94.9113 68.6398C93.6021 66.7103 91.9976 64.9974 90.1628 63.5661C89.5943 63.1227 89.0037 62.7063 88.393 62.3188C86.4501 61.0863 84.303 60.1467 82.0139 59.5624C81.3447 59.3915 80.6634 59.2511 79.9714 59.1425Z" fill="#0C4393"/>
<path d="M59.1239 76.2455L67.5895 80.7898V73.1184L72.6748 78.3303V67.9065L74.7595 65.8218H81.7087V66.8642H79.9714V69.9913H76.8443V74.8557L85.1833 80.415V75.7201H93.8697V90.1438H59.1239V76.2455Z" fill="#0C4393"/>
<path d="M53.7878 51.2506L47.2884 42.3652L43.7144 44.9794L42.224 42.9418L51.7957 35.9404L53.2861 37.978L49.7204 40.5863L56.2197 49.4717L53.7878 51.2506Z" fill="#0C4393"/>
<path d="M66.4905 44.4368L63.5836 31.2195L66.5264 30.5723L69.4333 43.7896L66.4905 44.4368Z" fill="#0C4393"/>
<path d="M79.5477 42.6253L80.2088 29.1083L83.2183 29.2555L82.5572 42.7725L79.5477 42.6253Z" fill="#0C4393"/>
<path d="M101.188 45.0961L103.076 47.183C101.967 48.2677 100.815 48.8831 99.6181 49.0293C98.4301 49.1732 97.2009 48.8746 95.9305 48.1334C94.3586 47.2163 93.3791 45.9269 92.992 44.2652C92.6081 42.5981 92.9595 40.8332 94.0462 38.9706C95.1957 37.0004 96.5964 35.7683 98.2482 35.2745C99.9032 34.7753 101.56 35.0094 103.218 35.9767C104.666 36.8216 105.592 37.9358 105.997 39.3193C106.241 40.1394 106.22 41.1017 105.937 42.2062L103.241 41.3911C103.459 40.6958 103.448 40.0401 103.209 39.4241C102.975 38.8113 102.54 38.3196 101.905 37.949C101.027 37.4371 100.13 37.3358 99.2137 37.6453C98.3025 37.9579 97.4355 38.8195 96.6127 40.2299C95.7395 41.7264 95.3868 42.9493 95.5546 43.8986C95.7223 44.8479 96.2368 45.5738 97.0981 46.0763C97.7334 46.4469 98.3975 46.5638 99.0907 46.427C99.7838 46.2903 100.483 45.8466 101.188 45.0961Z" fill="#0C4393"/>
<path d="M27.139 100.259L38.8048 94.6746L42.9452 103.324L40.9717 104.269L37.9588 97.9746L35.3726 99.2125L38.176 105.069L36.2105 106.01L33.4071 100.153L30.232 101.673L33.3516 108.19L31.386 109.131L27.139 100.259Z" fill="#0C4393"/>
<path d="M38.0695 109.844L39.768 111.879C39.1258 112.509 38.769 113.14 38.6978 113.773C38.6299 114.411 38.8283 115.07 39.2928 115.751C39.7849 116.473 40.3062 116.912 40.8567 117.069C41.4158 117.228 41.8996 117.167 42.3083 116.889C42.5707 116.71 42.7394 116.48 42.8144 116.2C42.8979 115.921 42.877 115.544 42.7517 115.067C42.6636 114.743 42.4173 114.035 42.0128 112.943C41.4915 111.539 41.2827 110.447 41.3863 109.666C41.5323 108.569 42.0443 107.721 42.9223 107.122C43.4874 106.737 44.1231 106.536 44.8294 106.52C45.5441 106.506 46.2349 106.711 46.9018 107.136C47.5721 107.566 48.198 108.207 48.7795 109.06C49.7293 110.453 50.138 111.708 50.0058 112.826C49.877 113.949 49.315 114.875 48.3198 115.606L46.6935 113.432C47.1983 112.948 47.466 112.462 47.4964 111.976C47.5354 111.491 47.3398 110.933 46.9096 110.302C46.4657 109.651 45.9845 109.233 45.4658 109.047C45.1325 108.927 44.8221 108.965 44.5344 109.161C44.272 109.34 44.1232 109.604 44.0879 109.953C44.0435 110.397 44.2642 111.252 44.7501 112.518C45.2361 113.783 45.5175 114.77 45.5944 115.479C45.6798 116.19 45.5826 116.855 45.3028 117.475C45.0315 118.096 44.5452 118.646 43.8438 119.124C43.208 119.558 42.4921 119.787 41.6962 119.812C40.9002 119.838 40.1458 119.62 39.4328 119.16C38.7249 118.697 38.0424 117.983 37.3851 117.019C36.4285 115.616 36.0167 114.319 36.1499 113.127C36.2881 111.931 36.928 110.836 38.0695 109.844Z" fill="#0C4393"/>
<path d="M49.972 126.813L54.7907 117.844L51.1499 115.888L52.265 113.812L62.0155 119.05L60.9005 121.126L57.2681 119.175L52.4494 128.144L49.972 126.813Z" fill="#0C4393"/>
<path d="M64.2502 119.347L68.9934 120.14C70.0631 120.319 70.8648 120.537 71.3986 120.794C72.1154 121.143 72.6954 121.645 73.1383 122.302C73.5813 122.959 73.8742 123.723 74.017 124.594C74.1608 125.459 74.1321 126.494 73.9308 127.698C73.754 128.756 73.47 129.645 73.079 130.367C72.6012 131.249 72.0159 131.929 71.3229 132.408C70.7996 132.771 70.1346 133.011 69.3278 133.129C68.7247 133.214 67.9439 133.177 66.9853 133.017L62.1018 132.2L64.2502 119.347ZM66.4819 121.955L65.0589 130.469L66.9966 130.793C67.7214 130.914 68.2513 130.96 68.5865 130.932C69.0249 130.897 69.4025 130.777 69.7192 130.572C70.0418 130.367 70.3386 129.993 70.6097 129.45C70.8818 128.9 71.1009 128.129 71.267 127.135C71.4331 126.142 71.4729 125.364 71.3864 124.803C71.3 124.242 71.1239 123.786 70.8581 123.435C70.5923 123.084 70.2256 122.815 69.758 122.629C69.4093 122.487 68.706 122.327 67.648 122.15L66.4819 121.955Z" fill="#0C4393"/>
<path d="M77.5078 133.481V130.62H80.3688V133.481H77.5078Z" fill="#0C4393"/>
<path d="M99.8423 128.32L97.3469 129.269L94.2653 121.163C93.6777 122.363 92.8429 123.402 91.7608 124.28L90.8999 122.016C91.4701 121.555 92.0245 120.884 92.5632 120.001C93.0996 119.113 93.3591 118.218 93.3416 117.317L95.3664 116.547L99.8423 128.32Z" fill="#0C4393"/>
<path d="M105.571 122.211L107.353 120.447C107.716 120.807 108.074 121.002 108.427 121.034C108.779 121.067 109.121 120.952 109.451 120.69C109.868 120.36 110.07 119.888 110.058 119.273C110.047 118.659 109.604 117.716 108.729 116.446C108.688 117.437 108.287 118.234 107.526 118.837C106.698 119.493 105.731 119.742 104.623 119.584C103.516 119.417 102.557 118.821 101.745 117.797C100.899 116.73 100.534 115.62 100.649 114.468C100.766 113.308 101.315 112.339 102.296 111.561C103.364 110.715 104.568 110.435 105.909 110.72C107.246 111.001 108.663 112.086 110.162 113.977C111.687 115.901 112.431 117.572 112.393 118.989C112.356 120.406 111.765 121.568 110.621 122.475C109.798 123.128 108.96 123.437 108.107 123.404C107.251 123.366 106.405 122.968 105.571 122.211ZM106.643 114.183C106.127 113.532 105.576 113.147 104.99 113.027C104.408 112.903 103.922 112.997 103.529 113.308C103.156 113.604 102.962 113.999 102.949 114.493C102.936 114.978 103.195 115.556 103.726 116.226C104.265 116.906 104.796 117.3 105.318 117.408C105.836 117.511 106.297 117.404 106.699 117.085C107.086 116.778 107.29 116.366 107.311 115.851C107.336 115.333 107.113 114.776 106.643 114.183Z" fill="#0C4393"/>
<path d="M123.364 100.551L123.944 98.112C124.442 98.2251 124.849 98.202 125.166 98.0426C125.482 97.8833 125.711 97.6052 125.853 97.2083C126.032 96.708 125.954 96.2002 125.619 95.6849C125.284 95.1696 124.41 94.6041 122.995 93.9884C123.485 94.8508 123.566 95.7393 123.239 96.6538C122.884 97.6488 122.194 98.3719 121.17 98.8232C120.143 99.2667 119.013 99.2685 117.783 98.8287C116.5 98.3703 115.603 97.6218 115.092 96.583C114.578 95.5365 114.531 94.4237 114.953 93.2447C115.411 91.9621 116.285 91.0874 117.573 90.6206C118.857 90.1516 120.634 90.3231 122.906 91.135C125.218 91.9613 126.733 92.9859 127.45 94.2087C128.168 95.4315 128.281 96.7302 127.79 98.1048C127.436 99.094 126.889 99.8 126.147 100.223C125.4 100.643 124.473 100.753 123.364 100.551ZM120.028 93.1712C119.246 92.8916 118.574 92.856 118.014 93.0641C117.455 93.2666 117.091 93.6036 116.923 94.0752C116.762 94.5238 116.807 94.9614 117.057 95.3879C117.303 95.8066 117.828 96.1598 118.633 96.4476C119.45 96.7395 120.109 96.7932 120.609 96.6089C121.104 96.4224 121.438 96.0877 121.61 95.6045C121.777 95.1387 121.732 94.6818 121.477 94.2339C121.224 93.7803 120.741 93.4261 120.028 93.1712Z" fill="#0C4393"/>
<path d="M120.991 110.091L119.1 108.669L115.796 113.063L113.995 111.708L110.679 101.925L111.979 100.197L118.789 105.317L119.791 103.985L121.599 105.345L120.597 106.677L122.489 108.1L120.991 110.091ZM117.291 107.309L113.622 104.551L115.436 109.777L117.291 107.309Z" fill="#0C4393"/>
<path d="M156.095 50.0045H152.944V33.4327H147.275V30.7301H161.764V33.4327H156.095V50.0045ZM177.768 50.0045H174.657V41.0397C174.657 39.9147 174.428 39.0753 173.971 38.5216C173.523 37.9679 172.807 37.691 171.822 37.691C170.521 37.691 169.563 38.0822 168.948 38.8644C168.342 39.6378 168.039 40.9386 168.039 42.7667V50.0045H164.94V29.4908H168.039V34.6984C168.039 35.5333 167.986 36.4254 167.88 37.3746H168.078C168.5 36.6715 169.084 36.1266 169.832 35.7399C170.587 35.3531 171.466 35.1598 172.468 35.1598C176.001 35.1598 177.768 36.9396 177.768 40.4991V50.0045ZM188.987 50.2682C186.719 50.2682 184.944 49.609 183.661 48.2906C182.386 46.9635 181.749 45.1398 181.749 42.8195C181.749 40.4376 182.342 38.5656 183.529 37.2032C184.715 35.8409 186.346 35.1598 188.42 35.1598C190.345 35.1598 191.865 35.7443 192.981 36.9132C194.098 38.0822 194.656 39.6906 194.656 41.7384V43.4127H184.939C184.983 44.8278 185.366 45.9176 186.086 46.6823C186.807 47.4381 187.822 47.816 189.132 47.816C189.993 47.816 190.793 47.7369 191.531 47.5787C192.278 47.4117 193.078 47.1393 193.931 46.7614V49.2794C193.175 49.6398 192.41 49.8947 191.637 50.0441C190.863 50.1935 189.98 50.2682 188.987 50.2682ZM188.42 37.5065C187.435 37.5065 186.644 37.8185 186.047 38.4425C185.458 39.0665 185.106 39.9762 184.992 41.1715H191.61C191.593 39.9674 191.303 39.0577 190.74 38.4425C190.178 37.8185 189.404 37.5065 188.42 37.5065ZM213.257 50.0045H210.106V33.4327H204.437V30.7301H218.926V33.4327H213.257V50.0045ZM231.225 50.0045L230.606 47.9742H230.5C229.797 48.8619 229.09 49.4684 228.378 49.7936C227.666 50.11 226.752 50.2682 225.636 50.2682C224.203 50.2682 223.082 49.8815 222.274 49.108C221.474 48.3346 221.074 47.2404 221.074 45.8253C221.074 44.3224 221.632 43.1886 222.748 42.424C223.865 41.6593 225.565 41.2418 227.85 41.1715L230.368 41.0924V40.3146C230.368 39.3829 230.149 38.6886 229.709 38.2316C229.279 37.7657 228.606 37.5328 227.692 37.5328C226.945 37.5328 226.229 37.6427 225.543 37.8624C224.858 38.0822 224.199 38.3414 223.566 38.6403L222.564 36.4254C223.355 36.0123 224.221 35.7003 225.161 35.4894C226.101 35.2697 226.989 35.1598 227.824 35.1598C229.679 35.1598 231.076 35.5641 232.016 36.3727C232.966 37.1813 233.44 38.4513 233.44 40.1827V50.0045H231.225ZM226.611 47.8951C227.736 47.8951 228.637 47.5831 229.314 46.9591C229.999 46.3263 230.342 45.443 230.342 44.3092V43.0436L228.47 43.1227C227.011 43.1754 225.948 43.4215 225.28 43.861C224.62 44.2916 224.291 44.9552 224.291 45.8517C224.291 46.5021 224.484 47.0074 224.871 47.3678C225.258 47.7194 225.838 47.8951 226.611 47.8951ZM250.592 50.0045H247.48V41.0133C247.48 39.8971 247.269 39.0665 246.847 38.5216C246.426 37.9679 245.766 37.691 244.87 37.691C243.675 37.691 242.796 38.0822 242.233 38.8644C241.679 39.6378 241.403 40.9298 241.403 42.7404V50.0045H238.304V35.4235H240.73L241.165 37.3351H241.323C241.728 36.6407 242.312 36.1046 243.077 35.7267C243.85 35.3488 244.698 35.1598 245.621 35.1598C247.863 35.1598 249.348 35.9244 250.077 37.4537H250.288C250.719 36.733 251.325 36.1705 252.108 35.7662C252.89 35.3619 253.786 35.1598 254.797 35.1598C256.537 35.1598 257.803 35.5992 258.594 36.4781C259.394 37.3571 259.794 38.6974 259.794 40.4991V50.0045H256.696V41.0133C256.696 39.8971 256.48 39.0665 256.05 38.5216C255.628 37.9679 254.969 37.691 254.072 37.691C252.868 37.691 251.985 38.069 251.422 38.8248C250.868 39.5719 250.592 40.7233 250.592 42.2789V50.0045ZM267.756 50.0045H264.658V35.4235H267.756V50.0045ZM264.473 31.5607C264.473 31.007 264.623 30.5807 264.922 30.2819C265.229 29.983 265.664 29.8336 266.227 29.8336C266.772 29.8336 267.194 29.983 267.492 30.2819C267.8 30.5807 267.954 31.007 267.954 31.5607C267.954 32.088 267.8 32.5055 267.492 32.8131C267.194 33.1119 266.772 33.2614 266.227 33.2614C265.664 33.2614 265.229 33.1119 264.922 32.8131C264.623 32.5055 264.473 32.088 264.473 31.5607ZM275.837 50.0045H272.739V29.4908H275.837V50.0045ZM293.648 50.0045H290.536V41.0397C290.536 39.9147 290.308 39.0753 289.851 38.5216C289.402 37.9679 288.686 37.691 287.702 37.691C286.392 37.691 285.434 38.0778 284.828 38.8512C284.221 39.6246 283.918 40.921 283.918 42.7404V50.0045H280.82V35.4235H283.246L283.681 37.3351H283.839C284.278 36.6407 284.902 36.1046 285.711 35.7267C286.52 35.3488 287.416 35.1598 288.401 35.1598C291.899 35.1598 293.648 36.9396 293.648 40.4991V50.0045ZM307.622 50.0045L307.002 47.9742H306.897C306.193 48.8619 305.486 49.4684 304.774 49.7936C304.062 50.11 303.148 50.2682 302.032 50.2682C300.599 50.2682 299.479 49.8815 298.67 49.108C297.87 48.3346 297.47 47.2404 297.47 45.8253C297.47 44.3224 298.028 43.1886 299.145 42.424C300.261 41.6593 301.962 41.2418 304.247 41.1715L306.765 41.0924V40.3146C306.765 39.3829 306.545 38.6886 306.106 38.2316C305.675 37.7657 305.003 37.5328 304.088 37.5328C303.341 37.5328 302.625 37.6427 301.94 37.8624C301.254 38.0822 300.595 38.3414 299.962 38.6403L298.96 36.4254C299.751 36.0123 300.617 35.7003 301.557 35.4894C302.498 35.2697 303.385 35.1598 304.22 35.1598C306.075 35.1598 307.472 35.5641 308.413 36.3727C309.362 37.1813 309.837 38.4513 309.837 40.1827V50.0045H307.622ZM303.007 47.8951C304.132 47.8951 305.033 47.5831 305.71 46.9591C306.396 46.3263 306.738 45.443 306.738 44.3092V43.0436L304.866 43.1227C303.407 43.1754 302.344 43.4215 301.676 43.861C301.017 44.2916 300.687 44.9552 300.687 45.8517C300.687 46.5021 300.88 47.0074 301.267 47.3678C301.654 47.7194 302.234 47.8951 303.007 47.8951ZM319.618 50.2682C317.799 50.2682 316.379 49.609 315.36 48.2906C314.34 46.9723 313.831 45.1222 313.831 42.7404C313.831 40.3497 314.345 38.4908 315.373 37.1637C316.41 35.8278 317.843 35.1598 319.671 35.1598C321.587 35.1598 323.046 35.8673 324.048 37.2823H324.206C324.057 36.2365 323.982 35.4103 323.982 34.8038V29.4908H327.093V50.0045H324.668L324.127 48.0929H323.982C322.989 49.5431 321.534 50.2682 319.618 50.2682ZM320.449 47.7633C321.723 47.7633 322.65 47.4073 323.231 46.6954C323.811 45.9747 324.109 44.8102 324.127 43.2018V42.7667C324.127 40.9298 323.828 39.6246 323.231 38.8512C322.633 38.0778 321.697 37.691 320.422 37.691C319.333 37.691 318.493 38.1349 317.904 39.0226C317.315 39.9015 317.021 41.1583 317.021 42.7931C317.021 44.4103 317.307 45.6451 317.878 46.4977C318.449 47.3414 319.306 47.7633 320.449 47.7633ZM342.346 50.0045L341.911 48.0929H341.753C341.322 48.7697 340.707 49.3014 339.907 49.6881C339.116 50.0748 338.211 50.2682 337.191 50.2682C335.425 50.2682 334.106 49.8287 333.236 48.9498C332.366 48.0709 331.931 46.7394 331.931 44.9552V35.4235H335.056V44.4147C335.056 45.5309 335.284 46.3702 335.741 46.9327C336.198 47.4865 336.915 47.7633 337.89 47.7633C339.191 47.7633 340.145 47.3766 340.751 46.6031C341.366 45.8209 341.674 44.5157 341.674 42.6876V35.4235H344.785V50.0045H342.346ZM357.625 50.0045V30.7301H360.776V50.0045H357.625ZM379.321 50.0045H376.21V41.0397C376.21 39.9147 375.981 39.0753 375.524 38.5216C375.076 37.9679 374.359 37.691 373.375 37.691C372.066 37.691 371.108 38.0778 370.501 38.8512C369.895 39.6246 369.591 40.921 369.591 42.7404V50.0045H366.493V35.4235H368.919L369.354 37.3351H369.512C369.952 36.6407 370.576 36.1046 371.384 35.7267C372.193 35.3488 373.089 35.1598 374.074 35.1598C377.572 35.1598 379.321 36.9396 379.321 40.4991V50.0045ZM389.494 50.2682C387.675 50.2682 386.256 49.609 385.236 48.2906C384.217 46.9723 383.707 45.1222 383.707 42.7404C383.707 40.3497 384.221 38.4908 385.249 37.1637C386.286 35.8278 387.719 35.1598 389.547 35.1598C391.463 35.1598 392.922 35.8673 393.924 37.2823H394.082C393.933 36.2365 393.858 35.4103 393.858 34.8038V29.4908H396.97V50.0045H394.544L394.003 48.0929H393.858C392.865 49.5431 391.41 50.2682 389.494 50.2682ZM390.325 47.7633C391.599 47.7633 392.527 47.4073 393.107 46.6954C393.687 45.9747 393.986 44.8102 394.003 43.2018V42.7667C394.003 40.9298 393.704 39.6246 393.107 38.8512C392.509 38.0778 391.573 37.691 390.299 37.691C389.209 37.691 388.369 38.1349 387.781 39.0226C387.192 39.9015 386.897 41.1583 386.897 42.7931C386.897 44.4103 387.183 45.6451 387.754 46.4977C388.325 47.3414 389.182 47.7633 390.325 47.7633ZM412.627 50.0045L412.192 48.0929H412.034C411.604 48.7697 410.988 49.3014 410.188 49.6881C409.397 50.0748 408.492 50.2682 407.473 50.2682C405.706 50.2682 404.388 49.8287 403.518 48.9498C402.647 48.0709 402.212 46.7394 402.212 44.9552V35.4235H405.337V44.4147C405.337 45.5309 405.565 46.3702 406.022 46.9327C406.479 47.4865 407.196 47.7633 408.171 47.7633C409.472 47.7633 410.426 47.3766 411.032 46.6031C411.647 45.8209 411.955 44.5157 411.955 42.6876V35.4235H415.066V50.0045H412.627ZM430.223 45.8517C430.223 47.2755 429.705 48.3698 428.668 49.1344C427.631 49.8903 426.145 50.2682 424.212 50.2682C422.269 50.2682 420.709 49.9738 419.531 49.3849V46.7086C421.245 47.4996 422.84 47.8951 424.317 47.8951C426.224 47.8951 427.178 47.3195 427.178 46.1681C427.178 45.799 427.072 45.4913 426.861 45.2452C426.651 44.9991 426.303 44.7443 425.82 44.4806C425.337 44.2169 424.664 43.9181 423.803 43.5841C422.124 42.9337 420.986 42.2833 420.388 41.6329C419.799 40.9825 419.505 40.1388 419.505 39.1017C419.505 37.8536 420.006 36.8868 421.008 36.2013C422.019 35.507 423.39 35.1598 425.121 35.1598C426.835 35.1598 428.457 35.507 429.986 36.2013L428.984 38.5348C427.411 37.8844 426.088 37.5592 425.016 37.5592C423.381 37.5592 422.564 38.025 422.564 38.9567C422.564 39.4137 422.775 39.8004 423.196 40.1168C423.627 40.4332 424.559 40.8683 425.991 41.422C427.195 41.8878 428.07 42.3141 428.615 42.7008C429.16 43.0875 429.564 43.5358 429.828 44.0455C430.091 44.5465 430.223 45.1486 430.223 45.8517ZM439.962 47.7633C440.718 47.7633 441.473 47.6447 442.229 47.4073V49.7408C441.887 49.8903 441.443 50.0133 440.898 50.11C440.362 50.2155 439.804 50.2682 439.223 50.2682C436.288 50.2682 434.82 48.7213 434.82 45.6276V37.7701H432.829V36.399L434.965 35.2653L436.02 32.1803H437.931V35.4235H442.084V37.7701H437.931V45.5748C437.931 46.3219 438.116 46.8756 438.485 47.236C438.863 47.5875 439.355 47.7633 439.962 47.7633ZM453.497 35.1598C454.121 35.1598 454.635 35.2037 455.04 35.2916L454.736 38.1788C454.297 38.0734 453.84 38.0206 453.365 38.0206C452.126 38.0206 451.12 38.4249 450.346 39.2335C449.582 40.0421 449.199 41.0924 449.199 42.3844V50.0045H446.101V35.4235H448.527L448.936 37.9943H449.094C449.577 37.1241 450.206 36.4342 450.979 35.9244C451.761 35.4147 452.601 35.1598 453.497 35.1598ZM461.799 50.0045H458.7V35.4235H461.799V50.0045ZM458.516 31.5607C458.516 31.007 458.665 30.5807 458.964 30.2819C459.272 29.983 459.707 29.8336 460.269 29.8336C460.814 29.8336 461.236 29.983 461.535 30.2819C461.842 30.5807 461.996 31.007 461.996 31.5607C461.996 32.088 461.842 32.5055 461.535 32.8131C461.236 33.1119 460.814 33.2614 460.269 33.2614C459.707 33.2614 459.272 33.1119 458.964 32.8131C458.665 32.5055 458.516 32.088 458.516 31.5607ZM476.309 50.0045L475.69 47.9742H475.584C474.881 48.8619 474.174 49.4684 473.462 49.7936C472.75 50.11 471.836 50.2682 470.72 50.2682C469.287 50.2682 468.166 49.8815 467.358 49.108C466.558 48.3346 466.158 47.2404 466.158 45.8253C466.158 44.3224 466.716 43.1886 467.832 42.424C468.949 41.6593 470.649 41.2418 472.934 41.1715L475.453 41.0924V40.3146C475.453 39.3829 475.233 38.6886 474.793 38.2316C474.363 37.7657 473.69 37.5328 472.776 37.5328C472.029 37.5328 471.313 37.6427 470.627 37.8624C469.942 38.0822 469.283 38.3414 468.65 38.6403L467.648 36.4254C468.439 36.0123 469.305 35.7003 470.245 35.4894C471.185 35.2697 472.073 35.1598 472.908 35.1598C474.763 35.1598 476.16 35.5641 477.1 36.3727C478.05 37.1813 478.524 38.4513 478.524 40.1827V50.0045H476.309ZM471.695 47.8951C472.82 47.8951 473.721 47.5831 474.398 46.9591C475.083 46.3263 475.426 45.443 475.426 44.3092V43.0436L473.554 43.1227C472.095 43.1754 471.032 43.4215 470.364 43.861C469.704 44.2916 469.375 44.9552 469.375 45.8517C469.375 46.5021 469.568 47.0074 469.955 47.3678C470.342 47.7194 470.922 47.8951 471.695 47.8951ZM486.892 50.0045H483.794V29.4908H486.892V50.0045ZM500.568 50.0045V30.7301H503.719V50.0045H500.568ZM521.994 50.0045H518.882V41.0397C518.882 39.9147 518.654 39.0753 518.197 38.5216C517.749 37.9679 517.032 37.691 516.048 37.691C514.738 37.691 513.78 38.0778 513.174 38.8512C512.568 39.6246 512.264 40.921 512.264 42.7404V50.0045H509.166V35.4235H511.592L512.027 37.3351H512.185C512.625 36.6407 513.249 36.1046 514.057 35.7267C514.866 35.3488 515.762 35.1598 516.747 35.1598C520.245 35.1598 521.994 36.9396 521.994 40.4991V50.0045ZM530.302 50.0045L524.765 35.4235H528.034L531.001 43.9005C531.511 45.3243 531.818 46.4757 531.924 47.3546H532.029C532.108 46.7218 532.416 45.5704 532.952 43.9005L535.918 35.4235H539.214L533.651 50.0045H530.302ZM548.472 50.2682C546.204 50.2682 544.429 49.609 543.146 48.2906C541.871 46.9635 541.234 45.1398 541.234 42.8195C541.234 40.4376 541.827 38.5656 543.014 37.2032C544.2 35.8409 545.831 35.1598 547.905 35.1598C549.83 35.1598 551.35 35.7443 552.466 36.9132C553.583 38.0822 554.141 39.6906 554.141 41.7384V43.4127H544.424C544.468 44.8278 544.851 45.9176 545.571 46.6823C546.292 47.4381 547.307 47.816 548.617 47.816C549.478 47.816 550.278 47.7369 551.016 47.5787C551.763 47.4117 552.563 47.1393 553.416 46.7614V49.2794C552.66 49.6398 551.895 49.8947 551.122 50.0441C550.348 50.1935 549.465 50.2682 548.472 50.2682ZM547.905 37.5065C546.92 37.5065 546.129 37.8185 545.532 38.4425C544.943 39.0665 544.591 39.9762 544.477 41.1715H551.095C551.078 39.9674 550.788 39.0577 550.225 38.4425C549.663 37.8185 548.889 37.5065 547.905 37.5065ZM568.131 45.8517C568.131 47.2755 567.613 48.3698 566.575 49.1344C565.538 49.8903 564.053 50.2682 562.119 50.2682C560.177 50.2682 558.617 49.9738 557.439 49.3849V46.7086C559.153 47.4996 560.748 47.8951 562.225 47.8951C564.132 47.8951 565.086 47.3195 565.086 46.1681C565.086 45.799 564.98 45.4913 564.769 45.2452C564.558 44.9991 564.211 44.7443 563.728 44.4806C563.244 44.2169 562.572 43.9181 561.711 43.5841C560.032 42.9337 558.894 42.2833 558.296 41.6329C557.707 40.9825 557.413 40.1388 557.413 39.1017C557.413 37.8536 557.914 36.8868 558.916 36.2013C559.926 35.507 561.298 35.1598 563.029 35.1598C564.743 35.1598 566.364 35.507 567.894 36.2013L566.892 38.5348C565.319 37.8844 563.996 37.5592 562.924 37.5592C561.289 37.5592 560.471 38.025 560.471 38.9567C560.471 39.4137 560.682 39.8004 561.104 40.1168C561.535 40.4332 562.467 40.8683 563.899 41.422C565.103 41.8878 565.978 42.3141 566.523 42.7008C567.068 43.0875 567.472 43.5358 567.736 44.0455C567.999 44.5465 568.131 45.1486 568.131 45.8517ZM577.6 47.7633C578.355 47.7633 579.111 47.6447 579.867 47.4073V49.7408C579.524 49.8903 579.08 50.0133 578.536 50.11C577.999 50.2155 577.441 50.2682 576.861 50.2682C573.926 50.2682 572.458 48.7213 572.458 45.6276V37.7701H570.467V36.399L572.603 35.2653L573.658 32.1803H575.569V35.4235H579.722V37.7701H575.569V45.5748C575.569 46.3219 575.754 46.8756 576.123 47.236C576.501 47.5875 576.993 47.7633 577.6 47.7633ZM595.756 50.0045H592.645V41.0133C592.645 39.8971 592.434 39.0665 592.012 38.5216C591.59 37.9679 590.931 37.691 590.034 37.691C588.839 37.691 587.96 38.0822 587.398 38.8644C586.844 39.6378 586.567 40.9298 586.567 42.7404V50.0045H583.469V35.4235H585.895L586.33 37.3351H586.488C586.892 36.6407 587.477 36.1046 588.241 35.7267C589.015 35.3488 589.863 35.1598 590.786 35.1598C593.027 35.1598 594.512 35.9244 595.242 37.4537H595.453C595.883 36.733 596.49 36.1705 597.272 35.7662C598.054 35.3619 598.951 35.1598 599.962 35.1598C601.702 35.1598 602.967 35.5992 603.758 36.4781C604.558 37.3571 604.958 38.6974 604.958 40.4991V50.0045H601.86V41.0133C601.86 39.8971 601.645 39.0665 601.214 38.5216C600.792 37.9679 600.133 37.691 599.236 37.691C598.032 37.691 597.149 38.069 596.587 38.8248C596.033 39.5719 595.756 40.7233 595.756 42.2789V50.0045ZM616.325 50.2682C614.057 50.2682 612.282 49.609 610.999 48.2906C609.724 46.9635 609.087 45.1398 609.087 42.8195C609.087 40.4376 609.68 38.5656 610.867 37.2032C612.054 35.8409 613.684 35.1598 615.758 35.1598C617.683 35.1598 619.203 35.7443 620.32 36.9132C621.436 38.0822 621.994 39.6906 621.994 41.7384V43.4127H612.278C612.322 44.8278 612.704 45.9176 613.425 46.6823C614.145 47.4381 615.16 47.816 616.47 47.816C617.331 47.816 618.131 47.7369 618.869 47.5787C619.617 47.4117 620.416 47.1393 621.269 46.7614V49.2794C620.513 49.6398 619.748 49.8947 618.975 50.0441C618.201 50.1935 617.318 50.2682 616.325 50.2682ZM615.758 37.5065C614.774 37.5065 613.983 37.8185 613.385 38.4425C612.796 39.0665 612.445 39.9762 612.33 41.1715H618.949C618.931 39.9674 618.641 39.0577 618.078 38.4425C617.516 37.8185 616.742 37.5065 615.758 37.5065ZM639.017 50.0045H635.905V41.0397C635.905 39.9147 635.677 39.0753 635.22 38.5216C634.772 37.9679 634.055 37.691 633.071 37.691C631.761 37.691 630.803 38.0778 630.197 38.8512C629.59 39.6246 629.287 40.921 629.287 42.7404V50.0045H626.189V35.4235H628.615L629.05 37.3351H629.208C629.647 36.6407 630.272 36.1046 631.08 35.7267C631.889 35.3488 632.785 35.1598 633.77 35.1598C637.268 35.1598 639.017 36.9396 639.017 40.4991V50.0045ZM649.434 47.7633C650.19 47.7633 650.946 47.6447 651.702 47.4073V49.7408C651.359 49.8903 650.915 50.0133 650.37 50.11C649.834 50.2155 649.276 50.2682 648.696 50.2682C645.76 50.2682 644.293 48.7213 644.293 45.6276V37.7701H642.302V36.399L644.438 35.2653L645.492 32.1803H647.404V35.4235H651.557V37.7701H647.404V45.5748C647.404 46.3219 647.589 46.8756 647.958 47.236C648.336 47.5875 648.828 47.7633 649.434 47.7633ZM671.387 33.1559C669.577 33.1559 668.153 33.7975 667.116 35.0807C666.078 36.3639 665.56 38.1349 665.56 40.3937C665.56 42.7579 666.057 44.5465 667.05 45.7594C668.052 46.9723 669.497 47.5787 671.387 47.5787C672.204 47.5787 672.995 47.4996 673.76 47.3414C674.525 47.1744 675.32 46.9635 676.146 46.7086V49.4113C674.635 49.9825 672.921 50.2682 671.005 50.2682C668.183 50.2682 666.017 49.4156 664.505 47.7106C662.994 45.9967 662.238 43.549 662.238 40.3673C662.238 38.3634 662.602 36.61 663.332 35.1071C664.07 33.6041 665.134 32.4528 666.522 31.653C667.911 30.8531 669.541 30.4532 671.413 30.4532C673.382 30.4532 675.202 30.8663 676.871 31.6925L675.738 34.316C675.087 34.0084 674.397 33.7404 673.668 33.5118C672.947 33.2745 672.187 33.1559 671.387 33.1559ZM693.443 42.6876C693.443 45.0695 692.832 46.9283 691.61 48.2643C690.388 49.6002 688.688 50.2682 686.508 50.2682C685.146 50.2682 683.942 49.9606 682.896 49.3453C681.85 48.7301 681.046 47.8468 680.483 46.6954C679.921 45.5441 679.639 44.2081 679.639 42.6876C679.639 40.3234 680.246 38.4777 681.459 37.1505C682.672 35.8234 684.381 35.1598 686.587 35.1598C688.697 35.1598 690.367 35.8409 691.597 37.2032C692.827 38.5568 693.443 40.3849 693.443 42.6876ZM682.83 42.6876C682.83 46.0538 684.074 47.7369 686.561 47.7369C689.022 47.7369 690.252 46.0538 690.252 42.6876C690.252 39.3566 689.013 37.691 686.534 37.691C685.234 37.691 684.289 38.1217 683.7 38.983C683.12 39.8444 682.83 41.0792 682.83 42.6876ZM704.951 35.1598C705.576 35.1598 706.09 35.2037 706.494 35.2916L706.191 38.1788C705.751 38.0734 705.294 38.0206 704.82 38.0206C703.58 38.0206 702.574 38.4249 701.801 39.2335C701.036 40.0421 700.654 41.0924 700.654 42.3844V50.0045H697.555V35.4235H699.981L700.39 37.9943H700.548C701.032 37.1241 701.66 36.4342 702.433 35.9244C703.216 35.4147 704.055 35.1598 704.951 35.1598ZM717.146 50.2682C715.3 50.2682 713.867 49.6046 712.848 48.2775H712.663C712.786 49.5079 712.848 50.255 712.848 50.5187V56.4908H709.75V35.4235H712.255C712.325 35.6959 712.47 36.3463 712.69 37.3746H712.848C713.815 35.8981 715.265 35.1598 717.198 35.1598C719.018 35.1598 720.433 35.819 721.444 37.1373C722.463 38.4557 722.973 40.3058 722.973 42.6876C722.973 45.0695 722.454 46.9283 721.417 48.2643C720.389 49.6002 718.965 50.2682 717.146 50.2682ZM716.394 37.691C715.164 37.691 714.263 38.0514 713.692 38.7721C713.129 39.4928 712.848 40.6442 712.848 42.2262V42.6876C712.848 44.463 713.129 45.7506 713.692 46.5504C714.254 47.3414 715.173 47.7369 716.447 47.7369C717.519 47.7369 718.345 47.2975 718.926 46.4186C719.506 45.5397 719.796 44.2872 719.796 42.6613C719.796 41.0265 719.506 39.7916 718.926 38.9567C718.354 38.1129 717.51 37.691 716.394 37.691ZM740.045 42.6876C740.045 45.0695 739.434 46.9283 738.213 48.2643C736.991 49.6002 735.29 50.2682 733.111 50.2682C731.748 50.2682 730.544 49.9606 729.498 49.3453C728.452 48.7301 727.648 47.8468 727.086 46.6954C726.523 45.5441 726.242 44.2081 726.242 42.6876C726.242 40.3234 726.848 38.4777 728.061 37.1505C729.274 35.8234 730.984 35.1598 733.19 35.1598C735.299 35.1598 736.969 35.8409 738.199 37.2032C739.43 38.5568 740.045 40.3849 740.045 42.6876ZM729.432 42.6876C729.432 46.0538 730.676 47.7369 733.163 47.7369C735.624 47.7369 736.855 46.0538 736.855 42.6876C736.855 39.3566 735.615 37.691 733.137 37.691C731.836 37.691 730.891 38.1217 730.302 38.983C729.722 39.8444 729.432 41.0792 729.432 42.6876ZM751.554 35.1598C752.178 35.1598 752.692 35.2037 753.096 35.2916L752.793 38.1788C752.354 38.0734 751.897 38.0206 751.422 38.0206C750.183 38.0206 749.176 38.4249 748.403 39.2335C747.638 40.0421 747.256 41.0924 747.256 42.3844V50.0045H744.158V35.4235H746.584L746.992 37.9943H747.151C747.634 37.1241 748.262 36.4342 749.036 35.9244C749.818 35.4147 750.657 35.1598 751.554 35.1598ZM765.475 50.0045L764.856 47.9742H764.75C764.047 48.8619 763.339 49.4684 762.628 49.7936C761.916 50.11 761.002 50.2682 759.885 50.2682C758.453 50.2682 757.332 49.8815 756.524 49.108C755.724 48.3346 755.324 47.2404 755.324 45.8253C755.324 44.3224 755.882 43.1886 756.998 42.424C758.114 41.6593 759.815 41.2418 762.1 41.1715L764.618 41.0924V40.3146C764.618 39.3829 764.399 38.6886 763.959 38.2316C763.528 37.7657 762.856 37.5328 761.942 37.5328C761.195 37.5328 760.479 37.6427 759.793 37.8624C759.108 38.0822 758.448 38.3414 757.816 38.6403L756.814 36.4254C757.605 36.0123 758.47 35.7003 759.411 35.4894C760.351 35.2697 761.239 35.1598 762.074 35.1598C763.928 35.1598 765.326 35.5641 766.266 36.3727C767.215 37.1813 767.69 38.4513 767.69 40.1827V50.0045H765.475ZM760.861 47.8951C761.986 47.8951 762.887 47.5831 763.564 46.9591C764.249 46.3263 764.592 45.443 764.592 44.3092V43.0436L762.72 43.1227C761.261 43.1754 760.197 43.4215 759.529 43.861C758.87 44.2916 758.541 44.9552 758.541 45.8517C758.541 46.5021 758.734 47.0074 759.121 47.3678C759.507 47.7194 760.088 47.8951 760.861 47.8951ZM777.986 47.7633C778.742 47.7633 779.498 47.6447 780.254 47.4073V49.7408C779.911 49.8903 779.467 50.0133 778.922 50.11C778.386 50.2155 777.828 50.2682 777.248 50.2682C774.312 50.2682 772.844 48.7213 772.844 45.6276V37.7701H770.854V36.399L772.989 35.2653L774.044 32.1803H775.956V35.4235H780.109V37.7701H775.956V45.5748C775.956 46.3219 776.14 46.8756 776.509 47.236C776.887 47.5875 777.38 47.7633 777.986 47.7633ZM786.818 50.0045H783.72V35.4235H786.818V50.0045ZM783.536 31.5607C783.536 31.007 783.685 30.5807 783.984 30.2819C784.292 29.983 784.727 29.8336 785.289 29.8336C785.834 29.8336 786.256 29.983 786.555 30.2819C786.862 30.5807 787.016 31.007 787.016 31.5607C787.016 32.088 786.862 32.5055 786.555 32.8131C786.256 33.1119 785.834 33.2614 785.289 33.2614C784.727 33.2614 784.292 33.1119 783.984 32.8131C783.685 32.5055 783.536 32.088 783.536 31.5607ZM804.734 42.6876C804.734 45.0695 804.124 46.9283 802.902 48.2643C801.68 49.6002 799.979 50.2682 797.8 50.2682C796.438 50.2682 795.233 49.9606 794.188 49.3453C793.142 48.7301 792.337 47.8468 791.775 46.6954C791.212 45.5441 790.931 44.2081 790.931 42.6876C790.931 40.3234 791.538 38.4777 792.75 37.1505C793.963 35.8234 795.673 35.1598 797.879 35.1598C799.988 35.1598 801.658 35.8409 802.889 37.2032C804.119 38.5568 804.734 40.3849 804.734 42.6876ZM794.122 42.6876C794.122 46.0538 795.365 47.7369 797.853 47.7369C800.313 47.7369 801.544 46.0538 801.544 42.6876C801.544 39.3566 800.305 37.691 797.826 37.691C796.525 37.691 795.581 38.1217 794.992 38.983C794.412 39.8444 794.122 41.0792 794.122 42.6876ZM821.675 50.0045H818.563V41.0397C818.563 39.9147 818.335 39.0753 817.878 38.5216C817.43 37.9679 816.713 37.691 815.729 37.691C814.419 37.691 813.461 38.0778 812.855 38.8512C812.249 39.6246 811.945 40.921 811.945 42.7404V50.0045H808.847V35.4235H811.273L811.708 37.3351H811.866C812.306 36.6407 812.93 36.1046 813.738 35.7267C814.547 35.3488 815.443 35.1598 816.428 35.1598C819.926 35.1598 821.675 36.9396 821.675 40.4991V50.0045ZM834.409 50.0045V30.7301H837.56V47.3019H845.721V50.0045H834.409ZM855.225 47.7633C855.981 47.7633 856.737 47.6447 857.492 47.4073V49.7408C857.15 49.8903 856.706 50.0133 856.161 50.11C855.625 50.2155 855.067 50.2682 854.487 50.2682C851.551 50.2682 850.083 48.7213 850.083 45.6276V37.7701H848.093V36.399L850.228 35.2653L851.283 32.1803H853.195V35.4235H857.347V37.7701H853.195V45.5748C853.195 46.3219 853.379 46.8756 853.748 47.236C854.126 47.5875 854.618 47.7633 855.225 47.7633ZM866.417 50.2682C864.597 50.2682 863.178 49.609 862.158 48.2906C861.139 46.9723 860.629 45.1222 860.629 42.7404C860.629 40.3497 861.143 38.4908 862.172 37.1637C863.209 35.8278 864.641 35.1598 866.469 35.1598C868.385 35.1598 869.844 35.8673 870.846 37.2823H871.005C870.855 36.2365 870.781 35.4103 870.781 34.8038V29.4908H873.892V50.0045H871.466L870.926 48.0929H870.781C869.787 49.5431 868.333 50.2682 866.417 50.2682ZM867.247 47.7633C868.522 47.7633 869.449 47.4073 870.029 46.6954C870.609 45.9747 870.908 44.8102 870.926 43.2018V42.7667C870.926 40.9298 870.627 39.6246 870.029 38.8512C869.431 38.0778 868.495 37.691 867.221 37.691C866.131 37.691 865.292 38.1349 864.703 39.0226C864.114 39.9015 863.82 41.1583 863.82 42.7931C863.82 44.4103 864.105 45.6451 864.677 46.4977C865.248 47.3414 866.105 47.7633 867.247 47.7633Z" fill="#666666"/>
<path d="M147.773 84.0836C147.773 82.1858 148.049 80.4098 148.601 78.7555C149.159 77.1012 149.961 75.651 151.007 74.4049H152.747C151.716 75.7871 150.939 77.3053 150.416 78.9596C149.9 80.6139 149.643 82.3147 149.643 84.0621C149.643 85.7809 149.908 87.4602 150.438 89.1002C150.967 90.7402 151.73 92.2369 152.726 93.5905H151.007C149.954 92.373 149.152 90.9515 148.601 89.3258C148.049 87.7002 147.773 85.9528 147.773 84.0836ZM165.874 90.11L163.919 85.1149H157.624L155.69 90.11H153.842L160.051 74.3405H161.587L167.764 90.11H165.874ZM163.349 83.4713L161.523 78.6051C161.287 77.9892 161.043 77.2337 160.793 76.3385C160.635 77.026 160.409 77.7815 160.116 78.6051L158.268 83.4713H163.349ZM183.425 81.8815H188.764V89.5192C187.934 89.7841 187.089 89.9847 186.229 90.1207C185.37 90.2568 184.374 90.3248 183.243 90.3248C180.865 90.3248 179.014 89.6194 177.689 88.2086C176.364 86.7906 175.702 84.8069 175.702 82.2574C175.702 80.6246 176.028 79.1959 176.679 77.9713C177.338 76.7395 178.284 75.8014 179.515 75.1569C180.747 74.5052 182.19 74.1793 183.844 74.1793C185.52 74.1793 187.081 74.4873 188.528 75.1031L187.819 76.7145C186.401 76.1129 185.037 75.8121 183.726 75.8121C181.814 75.8121 180.321 76.3815 179.247 77.5201C178.173 78.6588 177.635 80.2379 177.635 82.2574C177.635 84.3772 178.151 85.985 179.182 87.0807C180.221 88.1764 181.743 88.7242 183.748 88.7242C184.836 88.7242 185.9 88.5989 186.938 88.3483V83.5143H183.425V81.8815ZM202.879 84.2125C202.879 86.1318 202.396 87.6321 201.429 88.7135C200.462 89.7877 199.127 90.3248 197.422 90.3248C196.369 90.3248 195.435 90.0778 194.618 89.5836C193.802 89.0895 193.172 88.3805 192.728 87.4567C192.284 86.5328 192.062 85.4515 192.062 84.2125C192.062 82.2933 192.542 80.8001 193.501 79.733C194.461 78.6588 195.793 78.1217 197.497 78.1217C199.144 78.1217 200.451 78.6696 201.418 79.7653C202.392 80.861 202.879 82.3434 202.879 84.2125ZM193.909 84.2125C193.909 85.7164 194.21 86.8623 194.812 87.65C195.413 88.4378 196.298 88.8317 197.465 88.8317C198.632 88.8317 199.517 88.4414 200.118 87.6608C200.727 86.873 201.031 85.7236 201.031 84.2125C201.031 82.7158 200.727 81.5807 200.118 80.8073C199.517 80.0267 198.625 79.6364 197.444 79.6364C196.276 79.6364 195.395 80.0195 194.801 80.7858C194.207 81.552 193.909 82.6943 193.909 84.2125ZM209.034 90.11L204.565 78.3365H206.477L209.013 85.319C209.585 86.9518 209.922 88.0117 210.022 88.4987H210.108C210.187 88.1191 210.434 87.3349 210.849 86.1461C211.272 84.9502 212.214 82.347 213.675 78.3365H215.587L211.118 90.11H209.034ZM222.891 90.3248C221.151 90.3248 219.776 89.7949 218.766 88.735C217.763 87.6751 217.262 86.2034 217.262 84.3199C217.262 82.4222 217.728 80.9147 218.659 79.7975C219.597 78.6803 220.854 78.1217 222.429 78.1217C223.904 78.1217 225.072 78.6087 225.931 79.5826C226.79 80.5494 227.22 81.8278 227.22 83.4176V84.5455H219.11C219.146 85.9277 219.493 86.9768 220.152 87.693C220.818 88.4091 221.752 88.7672 222.955 88.7672C224.223 88.7672 225.476 88.5022 226.715 87.9723V89.5621C226.085 89.8343 225.487 90.0276 224.921 90.1422C224.363 90.264 223.686 90.3248 222.891 90.3248ZM222.408 79.6149C221.462 79.6149 220.707 79.9228 220.141 80.5387C219.582 81.1546 219.253 82.0068 219.153 83.0953H225.308C225.308 81.971 225.057 81.1116 224.556 80.5172C224.055 79.9156 223.339 79.6149 222.408 79.6149ZM236.082 78.1217C236.605 78.1217 237.074 78.1647 237.489 78.2506L237.242 79.9049C236.755 79.7975 236.325 79.7438 235.953 79.7438C235.001 79.7438 234.184 80.1305 233.504 80.9039C232.831 81.6774 232.494 82.6406 232.494 83.7936V90.11H230.711V78.3365H232.183L232.387 80.5172H232.473C232.909 79.7509 233.436 79.1601 234.052 78.7448C234.668 78.3294 235.344 78.1217 236.082 78.1217ZM248.188 90.11V82.4938C248.188 81.5341 247.97 80.818 247.533 80.3453C247.096 79.8727 246.412 79.6364 245.481 79.6364C244.249 79.6364 243.347 79.9694 242.774 80.6354C242.201 81.3014 241.915 82.4007 241.915 83.9332V90.11H240.131V78.3365H241.582L241.872 79.9479H241.957C242.323 79.3678 242.835 78.9202 243.494 78.6051C244.152 78.2828 244.887 78.1217 245.696 78.1217C247.114 78.1217 248.181 78.4655 248.897 79.153C249.613 79.8333 249.971 80.9254 249.971 82.4293V90.11H248.188ZM269.092 90.11V82.4508C269.092 81.5127 268.891 80.8108 268.49 80.3453C268.089 79.8727 267.466 79.6364 266.621 79.6364C265.511 79.6364 264.691 79.955 264.161 80.5924C263.631 81.2298 263.366 82.2109 263.366 83.5358V90.11H261.583V82.4508C261.583 81.5127 261.383 80.8108 260.981 80.3453C260.58 79.8727 259.954 79.6364 259.102 79.6364C257.984 79.6364 257.164 79.9729 256.642 80.6461C256.126 81.3121 255.868 82.4078 255.868 83.9332V90.11H254.085V78.3365H255.535L255.825 79.9479H255.911C256.248 79.375 256.72 78.9274 257.329 78.6051C257.945 78.2828 258.633 78.1217 259.392 78.1217C261.232 78.1217 262.435 78.7877 263.001 80.1198H263.087C263.438 79.5039 263.946 79.0169 264.612 78.6588C265.278 78.3007 266.037 78.1217 266.89 78.1217C268.222 78.1217 269.217 78.4655 269.876 79.153C270.542 79.8333 270.875 80.9254 270.875 82.4293V90.11H269.092ZM279.973 90.3248C278.233 90.3248 276.858 89.7949 275.848 88.735C274.846 87.6751 274.344 86.2034 274.344 84.3199C274.344 82.4222 274.81 80.9147 275.741 79.7975C276.679 78.6803 277.936 78.1217 279.511 78.1217C280.987 78.1217 282.154 78.6087 283.013 79.5826C283.873 80.5494 284.302 81.8278 284.302 83.4176V84.5455H276.192C276.228 85.9277 276.575 86.9768 277.234 87.693C277.9 88.4091 278.835 88.7672 280.038 88.7672C281.305 88.7672 282.559 88.5022 283.797 87.9723V89.5621C283.167 89.8343 282.569 90.0276 282.004 90.1422C281.445 90.264 280.768 90.3248 279.973 90.3248ZM279.49 79.6149C278.545 79.6149 277.789 79.9228 277.223 80.5387C276.665 81.1546 276.335 82.0068 276.235 83.0953H282.39C282.39 81.971 282.14 81.1116 281.638 80.5172C281.137 79.9156 280.421 79.6149 279.49 79.6149ZM295.85 90.11V82.4938C295.85 81.5341 295.631 80.818 295.194 80.3453C294.758 79.8727 294.074 79.6364 293.143 79.6364C291.911 79.6364 291.009 79.9694 290.436 80.6354C289.863 81.3014 289.576 82.4007 289.576 83.9332V90.11H287.793V78.3365H289.243L289.533 79.9479H289.619C289.985 79.3678 290.497 78.9202 291.155 78.6051C291.814 78.2828 292.548 78.1217 293.358 78.1217C294.776 78.1217 295.843 78.4655 296.559 79.153C297.275 79.8333 297.633 80.9254 297.633 82.4293V90.11H295.85ZM305.55 88.8531C305.865 88.8531 306.169 88.8317 306.463 88.7887C306.756 88.7386 306.989 88.6884 307.161 88.6383V90.0026C306.967 90.0957 306.681 90.1709 306.301 90.2281C305.929 90.2926 305.592 90.3248 305.292 90.3248C303.014 90.3248 301.876 89.1253 301.876 86.7262V79.7223H300.189V78.8629L301.876 78.1217L302.628 75.608H303.659V78.3365H307.075V79.7223H303.659V86.651C303.659 87.36 303.827 87.9043 304.164 88.2838C304.5 88.6634 304.962 88.8531 305.55 88.8531ZM330.019 82.236C330.019 84.7496 329.382 86.7262 328.107 88.1656C326.84 89.6051 325.074 90.3248 322.811 90.3248C320.498 90.3248 318.711 89.6194 317.451 88.2086C316.198 86.7906 315.571 84.7926 315.571 82.2145C315.571 79.6578 316.201 77.6777 317.462 76.274C318.722 74.8632 320.513 74.1578 322.833 74.1578C325.089 74.1578 326.85 74.874 328.118 76.3063C329.386 77.7386 330.019 79.7151 330.019 82.236ZM317.505 82.236C317.505 84.3629 317.956 85.9778 318.858 87.0807C319.768 88.1764 321.085 88.7242 322.811 88.7242C324.552 88.7242 325.866 88.1764 326.754 87.0807C327.642 85.985 328.086 84.3701 328.086 82.236C328.086 80.1233 327.642 78.5227 326.754 77.4342C325.873 76.3385 324.566 75.7906 322.833 75.7906C321.093 75.7906 319.768 76.3421 318.858 77.4449C317.956 78.5406 317.505 80.1377 317.505 82.236ZM339.01 79.7223H336.013V90.11H334.23V79.7223H332.124V78.9166L334.23 78.2721V77.6168C334.23 74.7236 335.494 73.277 338.022 73.277C338.645 73.277 339.375 73.4023 340.213 73.653L339.751 75.0817C339.064 74.8597 338.477 74.7487 337.99 74.7487C337.316 74.7487 336.819 74.9742 336.496 75.4254C336.174 75.8694 336.013 76.5856 336.013 77.5739V78.3365H339.01V79.7223ZM352.856 90.11H351.03V76.027H346.056V74.4049H357.83V76.027H352.856V90.11ZM367.615 90.11L367.261 88.4342H367.175C366.588 89.1718 366 89.6731 365.413 89.9381C364.833 90.1959 364.106 90.3248 363.232 90.3248C362.065 90.3248 361.149 90.024 360.482 89.4225C359.824 88.8209 359.494 87.9651 359.494 86.8551C359.494 84.4775 361.396 83.2314 365.198 83.1168L367.196 83.0524V82.3219C367.196 81.3981 366.996 80.7177 366.595 80.2809C366.201 79.8369 365.567 79.6149 364.693 79.6149C363.712 79.6149 362.602 79.9156 361.363 80.5172L360.816 79.153C361.396 78.8378 362.029 78.5908 362.717 78.4117C363.412 78.2327 364.106 78.1432 364.801 78.1432C366.205 78.1432 367.243 78.4547 367.916 79.0778C368.596 79.7008 368.937 80.6998 368.937 82.0748V90.11H367.615ZM363.587 88.8531C364.697 88.8531 365.567 88.5488 366.197 87.9401C366.835 87.3313 367.153 86.4791 367.153 85.3834V84.3199L365.37 84.3951C363.952 84.4453 362.928 84.6673 362.298 85.0612C361.675 85.4479 361.363 86.053 361.363 86.8766C361.363 87.5211 361.557 88.0117 361.943 88.3483C362.337 88.6849 362.885 88.8531 363.587 88.8531ZM388.068 90.11V82.4508C388.068 81.5127 387.867 80.8108 387.466 80.3453C387.065 79.8727 386.442 79.6364 385.597 79.6364C384.487 79.6364 383.667 79.955 383.137 80.5924C382.607 81.2298 382.342 82.2109 382.342 83.5358V90.11H380.559V82.4508C380.559 81.5127 380.359 80.8108 379.958 80.3453C379.557 79.8727 378.93 79.6364 378.078 79.6364C376.961 79.6364 376.141 79.9729 375.618 80.6461C375.102 81.3121 374.844 82.4078 374.844 83.9332V90.11H373.061V78.3365H374.511L374.801 79.9479H374.887C375.224 79.375 375.697 78.9274 376.305 78.6051C376.921 78.2828 377.609 78.1217 378.368 78.1217C380.208 78.1217 381.411 78.7877 381.977 80.1198H382.063C382.414 79.5039 382.923 79.0169 383.589 78.6588C384.255 78.3007 385.014 78.1217 385.866 78.1217C387.198 78.1217 388.193 78.4655 388.852 79.153C389.518 79.8333 389.851 80.9254 389.851 82.4293V90.11H388.068ZM395.759 90.11H393.976V78.3365H395.759V90.11ZM393.825 75.1461C393.825 74.7379 393.926 74.4407 394.126 74.2545C394.327 74.0612 394.577 73.9645 394.878 73.9645C395.165 73.9645 395.412 74.0612 395.619 74.2545C395.827 74.4479 395.931 74.7451 395.931 75.1461C395.931 75.5472 395.827 75.8479 395.619 76.0485C395.412 76.2418 395.165 76.3385 394.878 76.3385C394.577 76.3385 394.327 76.2418 394.126 76.0485C393.926 75.8479 393.825 75.5472 393.825 75.1461ZM401.763 90.11H399.98V73.3951H401.763V90.11ZM424.456 90.11H422.372L413.789 76.9293H413.703C413.817 78.4762 413.875 79.8942 413.875 81.1832V90.11H412.188V74.4049H414.251L422.812 87.5319H422.898C422.884 87.3385 422.851 86.719 422.801 85.6735C422.751 84.6207 422.733 83.8688 422.748 83.4176V74.4049H424.456V90.11ZM435.966 90.11L435.611 88.4342H435.525C434.938 89.1718 434.351 89.6731 433.764 89.9381C433.183 90.1959 432.457 90.3248 431.583 90.3248C430.416 90.3248 429.499 90.024 428.833 89.4225C428.174 88.8209 427.845 87.9651 427.845 86.8551C427.845 84.4775 429.746 83.2314 433.549 83.1168L435.547 83.0524V82.3219C435.547 81.3981 435.346 80.7177 434.945 80.2809C434.551 79.8369 433.918 79.6149 433.044 79.6149C432.063 79.6149 430.953 79.9156 429.714 80.5172L429.166 79.153C429.746 78.8378 430.38 78.5908 431.067 78.4117C431.762 78.2327 432.457 78.1432 433.151 78.1432C434.555 78.1432 435.593 78.4547 436.266 79.0778C436.947 79.7008 437.287 80.6998 437.287 82.0748V90.11H435.966ZM431.937 88.8531C433.047 88.8531 433.918 88.5488 434.548 87.9401C435.185 87.3313 435.504 86.4791 435.504 85.3834V84.3199L433.721 84.3951C432.303 84.4453 431.279 84.6673 430.648 85.0612C430.025 85.4479 429.714 86.053 429.714 86.8766C429.714 87.5211 429.907 88.0117 430.294 88.3483C430.688 88.6849 431.236 88.8531 431.937 88.8531ZM449.205 88.5309H449.109C448.285 89.7268 447.053 90.3248 445.413 90.3248C443.874 90.3248 442.674 89.7985 441.815 88.7457C440.962 87.693 440.536 86.1962 440.536 84.2555C440.536 82.3147 440.966 80.8073 441.825 79.733C442.685 78.6588 443.881 78.1217 445.413 78.1217C447.01 78.1217 448.235 78.7018 449.087 79.8619H449.227L449.152 79.0133L449.109 78.1862V73.3951H450.892V90.11H449.442L449.205 88.5309ZM445.639 88.8317C446.856 88.8317 447.737 88.5022 448.281 87.8434C448.833 87.1774 449.109 86.1067 449.109 84.6315V84.2555C449.109 82.5869 448.829 81.3981 448.271 80.6891C447.719 79.9729 446.835 79.6149 445.617 79.6149C444.572 79.6149 443.77 80.0231 443.211 80.8395C442.66 81.6487 442.384 82.7946 442.384 84.277C442.384 85.7809 442.66 86.916 443.211 87.6823C443.763 88.4485 444.572 88.8317 445.639 88.8317ZM456.58 78.3365V85.9742C456.58 86.9339 456.798 87.65 457.235 88.1227C457.672 88.5953 458.356 88.8317 459.287 88.8317C460.518 88.8317 461.417 88.4951 461.983 87.8219C462.556 87.1487 462.842 86.0494 462.842 84.524V78.3365H464.625V90.11H463.154L462.896 88.5309H462.799C462.434 89.111 461.926 89.555 461.274 89.8629C460.629 90.1709 459.892 90.3248 459.061 90.3248C457.629 90.3248 456.554 89.9847 455.838 89.3043C455.129 88.624 454.775 87.5354 454.775 86.0387V78.3365H456.58ZM486.7 74.4049V84.567C486.7 86.3574 486.16 87.7646 485.078 88.7887C483.997 89.8128 482.511 90.3248 480.62 90.3248C478.729 90.3248 477.265 89.8092 476.227 88.778C475.195 87.7467 474.68 86.3287 474.68 84.524V74.4049H476.506V84.653C476.506 85.9635 476.864 86.9697 477.58 87.6715C478.296 88.3733 479.349 88.7242 480.738 88.7242C482.063 88.7242 483.084 88.3733 483.8 87.6715C484.516 86.9625 484.874 85.9492 484.874 84.6315V74.4049H486.7ZM498.876 90.11V82.4938C498.876 81.5341 498.658 80.818 498.221 80.3453C497.784 79.8727 497.1 79.6364 496.169 79.6364C494.937 79.6364 494.035 79.9694 493.462 80.6354C492.889 81.3014 492.603 82.4007 492.603 83.9332V90.11H490.82V78.3365H492.27L492.56 79.9479H492.646C493.011 79.3678 493.523 78.9202 494.182 78.6051C494.841 78.2828 495.575 78.1217 496.384 78.1217C497.802 78.1217 498.869 78.4655 499.585 79.153C500.301 79.8333 500.659 80.9254 500.659 82.4293V90.11H498.876ZM512.567 88.5309H512.47C511.647 89.7268 510.415 90.3248 508.775 90.3248C507.235 90.3248 506.036 89.7985 505.176 88.7457C504.324 87.693 503.898 86.1962 503.898 84.2555C503.898 82.3147 504.328 80.8073 505.187 79.733C506.046 78.6588 507.242 78.1217 508.775 78.1217C510.372 78.1217 511.597 78.7018 512.449 79.8619H512.588L512.513 79.0133L512.47 78.1862V73.3951H514.253V90.11H512.803L512.567 88.5309ZM509.001 88.8317C510.218 88.8317 511.099 88.5022 511.643 87.8434C512.195 87.1774 512.47 86.1067 512.47 84.6315V84.2555C512.47 82.5869 512.191 81.3981 511.632 80.6891C511.081 79.9729 510.197 79.6149 508.979 79.6149C507.933 79.6149 507.131 80.0231 506.573 80.8395C506.021 81.6487 505.746 82.7946 505.746 84.277C505.746 85.7809 506.021 86.916 506.573 87.6823C507.124 88.4485 507.933 88.8317 509.001 88.8317ZM523.239 90.3248C521.499 90.3248 520.124 89.7949 519.114 88.735C518.112 87.6751 517.61 86.2034 517.61 84.3199C517.61 82.4222 518.076 80.9147 519.007 79.7975C519.945 78.6803 521.202 78.1217 522.777 78.1217C524.252 78.1217 525.42 78.6087 526.279 79.5826C527.139 80.5494 527.568 81.8278 527.568 83.4176V84.5455H519.458C519.494 85.9277 519.841 86.9768 520.5 87.693C521.166 88.4091 522.1 88.7672 523.304 88.7672C524.571 88.7672 525.824 88.5022 527.063 87.9723V89.5621C526.433 89.8343 525.835 90.0276 525.269 90.1422C524.711 90.264 524.034 90.3248 523.239 90.3248ZM522.756 79.6149C521.81 79.6149 521.055 79.9228 520.489 80.5387C519.931 81.1546 519.601 82.0068 519.501 83.0953H525.656C525.656 81.971 525.405 81.1116 524.904 80.5172C524.403 79.9156 523.687 79.6149 522.756 79.6149ZM536.21 78.1217C536.733 78.1217 537.202 78.1647 537.617 78.2506L537.37 79.9049C536.883 79.7975 536.454 79.7438 536.081 79.7438C535.129 79.7438 534.312 80.1305 533.632 80.9039C532.959 81.6774 532.622 82.6406 532.622 83.7936V90.11H530.839V78.3365H532.311L532.515 80.5172H532.601C533.038 79.7509 533.564 79.1601 534.18 78.7448C534.796 78.3294 535.472 78.1217 536.21 78.1217ZM543.842 88.8531C544.157 88.8531 544.462 88.8317 544.755 88.7887C545.049 88.7386 545.282 88.6884 545.454 88.6383V90.0026C545.26 90.0957 544.974 90.1709 544.594 90.2281C544.222 90.2926 543.885 90.3248 543.584 90.3248C541.307 90.3248 540.168 89.1253 540.168 86.7262V79.7223H538.482V78.8629L540.168 78.1217L540.92 75.608H541.952V78.3365H545.368V79.7223H541.952V86.651C541.952 87.36 542.12 87.9043 542.456 88.2838C542.793 88.6634 543.255 88.8531 543.842 88.8531ZM555.277 90.11L554.923 88.4342H554.837C554.249 89.1718 553.662 89.6731 553.075 89.9381C552.495 90.1959 551.768 90.3248 550.894 90.3248C549.727 90.3248 548.81 90.024 548.144 89.4225C547.485 88.8209 547.156 87.9651 547.156 86.8551C547.156 84.4775 549.057 83.2314 552.86 83.1168L554.858 83.0524V82.3219C554.858 81.3981 554.658 80.7177 554.257 80.2809C553.863 79.8369 553.229 79.6149 552.355 79.6149C551.374 79.6149 550.264 79.9156 549.025 80.5172L548.477 79.153C549.057 78.8378 549.691 78.5908 550.379 78.4117C551.073 78.2327 551.768 78.1432 552.463 78.1432C553.866 78.1432 554.905 78.4547 555.578 79.0778C556.258 79.7008 556.598 80.6998 556.598 82.0748V90.11H555.277ZM551.249 88.8531C552.359 88.8531 553.229 88.5488 553.859 87.9401C554.496 87.3313 554.815 86.4791 554.815 85.3834V84.3199L553.032 84.3951C551.614 84.4453 550.59 84.6673 549.96 85.0612C549.337 85.4479 549.025 86.053 549.025 86.8766C549.025 87.5211 549.218 88.0117 549.605 88.3483C549.999 88.6849 550.547 88.8531 551.249 88.8531ZM562.265 84.0836C562.573 83.6468 563.042 83.0739 563.672 82.3649L567.475 78.3365H569.591L564.821 83.3531L569.924 90.11H567.765L563.607 84.5455L562.265 85.7057V90.11H560.503V73.3951H562.265V82.2574C562.265 82.6513 562.236 83.2601 562.179 84.0836H562.265ZM574.065 90.11H572.281V78.3365H574.065V90.11ZM572.131 75.1461C572.131 74.7379 572.231 74.4407 572.432 74.2545C572.632 74.0612 572.883 73.9645 573.184 73.9645C573.47 73.9645 573.717 74.0612 573.925 74.2545C574.133 74.4479 574.237 74.7451 574.237 75.1461C574.237 75.5472 574.133 75.8479 573.925 76.0485C573.717 76.2418 573.47 76.3385 573.184 76.3385C572.883 76.3385 572.632 76.2418 572.432 76.0485C572.231 75.8479 572.131 75.5472 572.131 75.1461ZM586.123 90.11V82.4938C586.123 81.5341 585.904 80.818 585.467 80.3453C585.03 79.8727 584.347 79.6364 583.416 79.6364C582.184 79.6364 581.281 79.9694 580.709 80.6354C580.136 81.3014 579.849 82.4007 579.849 83.9332V90.11H578.066V78.3365H579.516L579.806 79.9479H579.892C580.257 79.3678 580.769 78.9202 581.428 78.6051C582.087 78.2828 582.821 78.1217 583.63 78.1217C585.048 78.1217 586.115 78.4655 586.832 79.153C587.548 79.8333 587.906 80.9254 587.906 82.4293V90.11H586.123ZM601.435 78.3365V79.4645L599.255 79.7223C599.455 79.9729 599.634 80.3024 599.792 80.7106C599.949 81.1116 600.028 81.5664 600.028 82.0748C600.028 83.2278 599.634 84.1481 598.846 84.8356C598.059 85.5231 596.977 85.8668 595.602 85.8668C595.251 85.8668 594.922 85.8382 594.614 85.7809C593.855 86.1819 593.475 86.6868 593.475 87.2955C593.475 87.6178 593.608 87.8577 593.873 88.0153C594.138 88.1656 594.593 88.2408 595.237 88.2408H597.321C598.596 88.2408 599.573 88.5094 600.254 89.0465C600.941 89.5836 601.285 90.3642 601.285 91.3883C601.285 92.6917 600.762 93.6836 599.717 94.3639C598.671 95.0514 597.146 95.3951 595.14 95.3951C593.601 95.3951 592.412 95.1087 591.574 94.5358C590.743 93.9628 590.328 93.1536 590.328 92.108C590.328 91.3919 590.557 90.7724 591.015 90.2496C591.474 89.7268 592.118 89.3724 592.949 89.1862C592.648 89.0501 592.394 88.8388 592.186 88.5524C591.986 88.2659 591.886 87.9329 591.886 87.5533C591.886 87.1237 592 86.7477 592.229 86.4254C592.458 86.1031 592.82 85.7916 593.314 85.4908C592.706 85.2402 592.208 84.8141 591.821 84.2125C591.442 83.611 591.252 82.9235 591.252 82.15C591.252 80.861 591.638 79.8691 592.412 79.1744C593.185 78.4726 594.281 78.1217 595.699 78.1217C596.315 78.1217 596.87 78.1933 597.364 78.3365H601.435ZM592.047 92.0865C592.047 92.7239 592.315 93.2073 592.852 93.5367C593.389 93.8662 594.159 94.0309 595.162 94.0309C596.659 94.0309 597.765 93.8053 598.481 93.3541C599.205 92.9101 599.566 92.305 599.566 91.5387C599.566 90.9013 599.369 90.4573 598.975 90.2067C598.582 89.9632 597.84 89.8414 596.752 89.8414H594.614C593.805 89.8414 593.175 90.0348 592.723 90.4215C592.272 90.8082 592.047 91.3632 592.047 92.0865ZM593.013 82.1071C593.013 82.9306 593.246 83.5537 593.712 83.9762C594.177 84.3987 594.825 84.61 595.656 84.61C597.396 84.61 598.266 83.7649 598.266 82.0748C598.266 80.3059 597.386 79.4215 595.624 79.4215C594.786 79.4215 594.141 79.6471 593.69 80.0983C593.239 80.5494 593.013 81.219 593.013 82.1071ZM607.811 84.0836C607.811 85.9671 607.531 87.7216 606.973 89.3473C606.421 90.9729 605.623 92.3873 604.577 93.5905H602.858C603.854 92.2441 604.617 90.7509 605.147 89.111C605.677 87.4638 605.941 85.7809 605.941 84.0621C605.941 82.3147 605.68 80.6139 605.157 78.9596C604.642 77.3053 603.868 75.7871 602.837 74.4049H604.577C605.63 75.6582 606.432 77.1155 606.983 78.777C607.535 80.4313 607.811 82.2002 607.811 84.0836Z" fill="#666666"/>
<path d="M150.303 131.856L153.42 117.114H148.967L149.471 114.724H161.166L160.674 117.114H156.209L153.092 131.856H150.303ZM161.51 131.856L165.377 113.622H168.108L167.252 117.571C167.19 117.915 167.104 118.29 166.994 118.696C166.893 119.102 166.784 119.505 166.666 119.903C166.557 120.302 166.451 120.669 166.35 121.005H166.455C166.768 120.599 167.119 120.216 167.51 119.856C167.909 119.497 168.354 119.208 168.846 118.989C169.346 118.763 169.901 118.649 170.51 118.649C171.221 118.649 171.823 118.79 172.315 119.071C172.807 119.345 173.182 119.743 173.44 120.266C173.698 120.782 173.826 121.415 173.826 122.165C173.826 122.462 173.803 122.782 173.756 123.126C173.709 123.462 173.647 123.813 173.569 124.181L171.94 131.856H169.198L170.862 123.981C170.932 123.677 170.983 123.403 171.014 123.161C171.045 122.919 171.061 122.7 171.061 122.505C171.061 121.974 170.936 121.571 170.686 121.298C170.436 121.024 170.049 120.888 169.526 120.888C168.971 120.888 168.424 121.102 167.885 121.532C167.346 121.954 166.862 122.571 166.432 123.384C166.002 124.188 165.666 125.165 165.424 126.313L164.252 131.856H161.51ZM182.842 132.091C181.85 132.091 180.983 131.903 180.241 131.528C179.506 131.145 178.936 130.587 178.53 129.852C178.131 129.11 177.932 128.204 177.932 127.134C177.932 126.071 178.085 125.036 178.389 124.028C178.694 123.013 179.143 122.099 179.737 121.286C180.331 120.474 181.053 119.829 181.905 119.352C182.756 118.876 183.725 118.638 184.811 118.638C186.139 118.638 187.135 118.938 187.799 119.54C188.471 120.134 188.807 120.923 188.807 121.907C188.807 122.579 188.655 123.192 188.35 123.747C188.046 124.302 187.581 124.782 186.956 125.188C186.339 125.587 185.553 125.895 184.6 126.114C183.655 126.333 182.542 126.442 181.26 126.442H180.733C180.725 126.559 180.717 126.681 180.71 126.806C180.702 126.923 180.698 127.04 180.698 127.157C180.698 128.024 180.924 128.708 181.378 129.208C181.831 129.7 182.491 129.946 183.358 129.946C184.014 129.946 184.62 129.864 185.174 129.7C185.729 129.536 186.35 129.29 187.038 128.962V131.13C186.405 131.434 185.764 131.673 185.116 131.845C184.467 132.009 183.71 132.091 182.842 132.091ZM181.073 124.45H181.471C182.424 124.45 183.253 124.36 183.956 124.181C184.659 123.993 185.202 123.72 185.585 123.36C185.967 122.993 186.159 122.548 186.159 122.024C186.159 121.618 186.03 121.302 185.772 121.075C185.522 120.841 185.147 120.724 184.647 120.724C184.155 120.724 183.671 120.876 183.194 121.181C182.717 121.477 182.292 121.907 181.917 122.47C181.542 123.024 181.26 123.684 181.073 124.45ZM207.074 132.091C205.066 132.091 203.499 131.524 202.374 130.391C201.249 129.251 200.687 127.626 200.687 125.516C200.687 124.306 200.827 123.149 201.109 122.048C201.39 120.938 201.8 119.923 202.339 119.001C202.878 118.079 203.538 117.278 204.32 116.599C205.109 115.919 206.003 115.395 207.003 115.028C208.011 114.653 209.116 114.466 210.32 114.466C211.273 114.466 212.136 114.559 212.909 114.747C213.691 114.927 214.452 115.192 215.195 115.544L214.14 117.888C213.554 117.591 212.941 117.349 212.3 117.161C211.659 116.974 210.968 116.88 210.226 116.88C209.195 116.88 208.269 117.106 207.449 117.559C206.628 118.005 205.925 118.618 205.339 119.399C204.761 120.181 204.32 121.079 204.015 122.095C203.71 123.11 203.558 124.184 203.558 125.317C203.558 126.208 203.699 126.981 203.98 127.638C204.261 128.294 204.699 128.802 205.292 129.161C205.886 129.513 206.64 129.688 207.554 129.688C208.07 129.688 208.534 129.653 208.949 129.583C209.37 129.505 209.761 129.415 210.12 129.313L211.081 124.942H207.753L208.269 122.563H214.316L212.464 131.177C211.714 131.442 210.913 131.661 210.062 131.833C209.218 132.005 208.222 132.091 207.074 132.091ZM217.777 131.856L220.531 118.884H222.675L222.394 121.333H222.523C222.859 120.833 223.222 120.38 223.613 119.974C224.011 119.567 224.453 119.243 224.937 119.001C225.421 118.759 225.961 118.638 226.554 118.638C226.765 118.638 226.984 118.653 227.211 118.684C227.445 118.708 227.648 118.743 227.82 118.79L227.222 121.368C227.05 121.321 226.863 121.282 226.66 121.251C226.457 121.22 226.242 121.204 226.015 121.204C225.5 121.204 225.015 121.325 224.562 121.567C224.109 121.809 223.699 122.145 223.332 122.575C222.964 123.005 222.648 123.509 222.382 124.087C222.117 124.657 221.91 125.278 221.761 125.95L220.519 131.856H217.777ZM234.691 132.067C233.707 132.067 232.848 131.864 232.113 131.458C231.379 131.052 230.809 130.477 230.402 129.735C230.004 128.985 229.805 128.099 229.805 127.075C229.805 126.208 229.894 125.364 230.074 124.544C230.262 123.724 230.535 122.958 230.894 122.247C231.254 121.536 231.703 120.915 232.242 120.384C232.781 119.845 233.406 119.427 234.117 119.13C234.828 118.825 235.625 118.673 236.508 118.673C237.516 118.673 238.383 118.876 239.109 119.282C239.836 119.688 240.394 120.27 240.785 121.028C241.176 121.786 241.371 122.692 241.371 123.747C241.371 124.591 241.281 125.415 241.101 126.22C240.93 127.024 240.668 127.782 240.316 128.493C239.965 129.196 239.519 129.817 238.98 130.356C238.449 130.888 237.824 131.306 237.105 131.61C236.394 131.915 235.59 132.067 234.691 132.067ZM234.891 129.817C235.328 129.817 235.734 129.72 236.109 129.524C236.492 129.321 236.836 129.036 237.141 128.669C237.445 128.294 237.703 127.852 237.914 127.345C238.133 126.829 238.301 126.259 238.418 125.634C238.535 125.009 238.594 124.341 238.594 123.63C238.594 123.153 238.523 122.712 238.383 122.306C238.242 121.891 238.008 121.559 237.68 121.309C237.359 121.052 236.93 120.923 236.391 120.923C235.906 120.923 235.461 121.04 235.055 121.274C234.656 121.501 234.301 121.817 233.988 122.224C233.684 122.63 233.426 123.099 233.215 123.63C233.004 124.153 232.844 124.716 232.734 125.317C232.625 125.911 232.57 126.513 232.57 127.122C232.57 127.989 232.766 128.657 233.156 129.126C233.555 129.587 234.133 129.817 234.891 129.817ZM246.145 131.856L245.571 118.884H248.172L248.301 125.329C248.317 126.071 248.317 126.77 248.301 127.427C248.285 128.083 248.254 128.708 248.207 129.302H248.301C248.418 128.942 248.563 128.532 248.735 128.071C248.906 127.61 249.078 127.169 249.25 126.747C249.43 126.325 249.574 125.993 249.684 125.751L252.801 118.884H255.766L256 125.575C256.008 126.145 256.012 126.755 256.012 127.403C256.02 128.052 256.004 128.684 255.965 129.302H256.071C256.196 128.927 256.344 128.497 256.516 128.013C256.688 127.52 256.871 127.02 257.067 126.513C257.27 125.997 257.465 125.52 257.653 125.083L260.418 118.884H263.254L257.16 131.856H254.067L253.821 125.2C253.805 124.833 253.797 124.434 253.797 124.005C253.805 123.575 253.813 123.134 253.821 122.681C253.836 122.227 253.848 121.786 253.856 121.356H253.739C253.606 121.739 253.461 122.134 253.305 122.54C253.156 122.938 253 123.341 252.836 123.747C252.672 124.153 252.496 124.559 252.309 124.966L249.192 131.856H246.145ZM268.45 132.091C267.504 132.091 266.735 131.88 266.141 131.458C265.555 131.028 265.262 130.278 265.262 129.208C265.262 128.997 265.274 128.766 265.297 128.516C265.329 128.259 265.372 127.993 265.426 127.72L266.856 120.97H264.981L265.239 119.657L267.454 118.755L268.93 116.013H270.653L270.044 118.884H273.348L272.903 120.97H269.61L268.169 127.731C268.129 127.895 268.094 128.071 268.063 128.259C268.04 128.438 268.028 128.602 268.028 128.751C268.028 129.102 268.126 129.376 268.321 129.571C268.516 129.766 268.813 129.864 269.211 129.864C269.516 129.864 269.809 129.833 270.09 129.77C270.372 129.708 270.68 129.618 271.016 129.501V131.575C270.727 131.708 270.352 131.825 269.891 131.927C269.43 132.036 268.95 132.091 268.45 132.091ZM275.005 131.856L278.872 113.622H281.602L280.747 117.571C280.684 117.915 280.599 118.29 280.489 118.696C280.388 119.102 280.278 119.505 280.161 119.903C280.052 120.302 279.946 120.669 279.845 121.005H279.95C280.263 120.599 280.614 120.216 281.005 119.856C281.403 119.497 281.849 119.208 282.341 118.989C282.841 118.763 283.395 118.649 284.005 118.649C284.716 118.649 285.317 118.79 285.809 119.071C286.302 119.345 286.677 119.743 286.934 120.266C287.192 120.782 287.321 121.415 287.321 122.165C287.321 122.462 287.298 122.782 287.251 123.126C287.204 123.462 287.141 123.813 287.063 124.181L285.434 131.856H282.692L284.356 123.981C284.427 123.677 284.477 123.403 284.509 123.161C284.54 122.919 284.556 122.7 284.556 122.505C284.556 121.974 284.431 121.571 284.181 121.298C283.931 121.024 283.544 120.888 283.02 120.888C282.466 120.888 281.919 121.102 281.38 121.532C280.841 121.954 280.356 122.571 279.927 123.384C279.497 124.188 279.161 125.165 278.919 126.313L277.747 131.856H275.005ZM305.998 132.091C304.669 132.091 303.544 131.821 302.623 131.282C301.709 130.735 301.013 129.966 300.537 128.974C300.06 127.981 299.822 126.806 299.822 125.446C299.822 124.415 299.939 123.376 300.173 122.329C300.416 121.282 300.779 120.29 301.263 119.352C301.748 118.407 302.357 117.571 303.091 116.845C303.826 116.11 304.685 115.532 305.669 115.11C306.662 114.681 307.783 114.466 309.033 114.466C309.986 114.466 310.818 114.556 311.529 114.735C312.248 114.915 312.947 115.188 313.626 115.556L312.537 117.841C312.037 117.559 311.505 117.325 310.943 117.138C310.38 116.95 309.744 116.856 309.033 116.856C308.166 116.856 307.388 117.02 306.701 117.349C306.021 117.677 305.427 118.126 304.919 118.696C304.419 119.266 304.005 119.919 303.677 120.653C303.349 121.38 303.103 122.145 302.939 122.95C302.775 123.747 302.693 124.54 302.693 125.329C302.693 126.727 303.017 127.806 303.666 128.563C304.314 129.313 305.267 129.688 306.525 129.688C307.189 129.688 307.845 129.614 308.494 129.466C309.15 129.317 309.794 129.126 310.427 128.891V131.282C309.88 131.485 309.244 131.673 308.517 131.845C307.798 132.009 306.959 132.091 305.998 132.091ZM319.01 132.091C318.346 132.091 317.74 131.931 317.193 131.61C316.654 131.282 316.224 130.782 315.904 130.11C315.584 129.431 315.424 128.567 315.424 127.52C315.424 126.614 315.517 125.731 315.705 124.872C315.9 124.013 316.174 123.208 316.525 122.458C316.885 121.708 317.318 121.048 317.826 120.477C318.334 119.899 318.908 119.45 319.549 119.13C320.189 118.802 320.881 118.638 321.623 118.638C322.185 118.638 322.678 118.735 323.099 118.931C323.521 119.118 323.877 119.372 324.166 119.692C324.455 120.013 324.689 120.368 324.869 120.759H324.974L325.678 118.884H327.787L325.033 131.856H322.935L323.193 129.759H323.099C322.764 130.188 322.389 130.579 321.974 130.931C321.568 131.282 321.119 131.563 320.627 131.774C320.135 131.985 319.596 132.091 319.01 132.091ZM320.017 129.852C320.564 129.852 321.088 129.649 321.588 129.243C322.088 128.829 322.529 128.282 322.912 127.602C323.303 126.923 323.592 126.177 323.779 125.364C323.873 124.974 323.935 124.602 323.967 124.251C324.006 123.899 324.025 123.548 324.025 123.196C324.025 122.516 323.846 121.962 323.486 121.532C323.127 121.102 322.635 120.888 322.01 120.888C321.58 120.888 321.17 121.009 320.779 121.251C320.396 121.493 320.049 121.829 319.736 122.259C319.424 122.681 319.15 123.169 318.916 123.724C318.689 124.278 318.514 124.876 318.389 125.516C318.271 126.149 318.213 126.794 318.213 127.45C318.213 128.239 318.369 128.837 318.681 129.243C319.002 129.649 319.447 129.852 320.017 129.852ZM334.483 132.091C333.537 132.091 332.768 131.88 332.174 131.458C331.588 131.028 331.295 130.278 331.295 129.208C331.295 128.997 331.307 128.766 331.33 128.516C331.361 128.259 331.404 127.993 331.459 127.72L332.889 120.97H331.014L331.272 119.657L333.486 118.755L334.963 116.013H336.686L336.076 118.884H339.381L338.936 120.97H335.643L334.201 127.731C334.162 127.895 334.127 128.071 334.096 128.259C334.072 128.438 334.061 128.602 334.061 128.751C334.061 129.102 334.158 129.376 334.354 129.571C334.549 129.766 334.846 129.864 335.244 129.864C335.549 129.864 335.842 129.833 336.123 129.77C336.404 129.708 336.713 129.618 337.049 129.501V131.575C336.76 131.708 336.385 131.825 335.924 131.927C335.463 132.036 334.983 132.091 334.483 132.091ZM345.174 132.091C344.51 132.091 343.905 131.931 343.358 131.61C342.819 131.282 342.389 130.782 342.069 130.11C341.749 129.431 341.588 128.567 341.588 127.52C341.588 126.614 341.682 125.731 341.87 124.872C342.065 124.013 342.338 123.208 342.69 122.458C343.049 121.708 343.483 121.048 343.991 120.477C344.499 119.899 345.073 119.45 345.713 119.13C346.354 118.802 347.045 118.638 347.788 118.638C348.35 118.638 348.842 118.735 349.264 118.931C349.686 119.118 350.041 119.372 350.331 119.692C350.62 120.013 350.854 120.368 351.034 120.759H351.139L351.842 118.884H353.952L351.198 131.856H349.1L349.358 129.759H349.264C348.928 130.188 348.553 130.579 348.139 130.931C347.733 131.282 347.284 131.563 346.791 131.774C346.299 131.985 345.76 132.091 345.174 132.091ZM346.182 129.852C346.729 129.852 347.252 129.649 347.752 129.243C348.252 128.829 348.694 128.282 349.077 127.602C349.467 126.923 349.756 126.177 349.944 125.364C350.038 124.974 350.1 124.602 350.131 124.251C350.17 123.899 350.19 123.548 350.19 123.196C350.19 122.516 350.01 121.962 349.651 121.532C349.291 121.102 348.799 120.888 348.174 120.888C347.745 120.888 347.334 121.009 346.944 121.251C346.561 121.493 346.213 121.829 345.901 122.259C345.588 122.681 345.315 123.169 345.081 123.724C344.854 124.278 344.678 124.876 344.553 125.516C344.436 126.149 344.377 126.794 344.377 127.45C344.377 128.239 344.534 128.837 344.846 129.243C345.166 129.649 345.612 129.852 346.182 129.852ZM356.628 131.856L360.507 113.622H363.237L359.37 131.856H356.628ZM364.062 137.622C363.663 137.622 363.339 137.599 363.089 137.552C362.831 137.505 362.597 137.45 362.386 137.388V135.196C362.597 135.243 362.819 135.282 363.054 135.313C363.288 135.352 363.546 135.372 363.827 135.372C364.523 135.372 365.105 135.161 365.573 134.739C366.05 134.325 366.487 133.751 366.886 133.016L367.484 131.927L365.538 118.884H368.257L369.03 125.212C369.085 125.649 369.128 126.118 369.159 126.618C369.198 127.118 369.226 127.602 369.241 128.071C369.257 128.532 369.265 128.923 369.265 129.243H369.347C369.456 128.977 369.593 128.641 369.757 128.235C369.921 127.829 370.105 127.395 370.308 126.934C370.511 126.474 370.714 126.044 370.917 125.645L374.362 118.884H377.327L369.23 133.907C368.784 134.735 368.304 135.427 367.788 135.981C367.28 136.536 366.722 136.946 366.112 137.212C365.503 137.485 364.819 137.622 364.062 137.622ZM381.785 132.091C380.972 132.091 380.261 132.02 379.652 131.88C379.05 131.747 378.507 131.552 378.023 131.294V128.938C378.523 129.235 379.085 129.485 379.71 129.688C380.343 129.884 380.992 129.981 381.656 129.981C382.171 129.981 382.621 129.911 383.003 129.77C383.386 129.63 383.683 129.431 383.894 129.173C384.113 128.907 384.222 128.587 384.222 128.212C384.222 127.938 384.16 127.696 384.035 127.485C383.91 127.274 383.695 127.059 383.39 126.841C383.085 126.622 382.664 126.36 382.124 126.056C381.554 125.735 381.07 125.411 380.671 125.083C380.281 124.747 379.98 124.376 379.769 123.97C379.566 123.563 379.464 123.087 379.464 122.54C379.464 121.72 379.652 121.02 380.027 120.442C380.41 119.856 380.949 119.411 381.644 119.106C382.347 118.794 383.175 118.638 384.128 118.638C384.894 118.638 385.617 118.727 386.296 118.907C386.976 119.079 387.605 119.321 388.183 119.634L387.281 121.673C386.851 121.431 386.374 121.224 385.851 121.052C385.328 120.872 384.765 120.782 384.164 120.782C383.609 120.782 383.144 120.911 382.769 121.169C382.402 121.427 382.218 121.794 382.218 122.27C382.218 122.52 382.277 122.747 382.394 122.95C382.519 123.145 382.726 123.345 383.015 123.548C383.304 123.751 383.699 123.985 384.199 124.251C384.738 124.548 385.218 124.86 385.64 125.188C386.062 125.516 386.394 125.895 386.636 126.325C386.878 126.747 386.999 127.259 386.999 127.86C386.999 128.774 386.785 129.548 386.355 130.181C385.933 130.806 385.331 131.282 384.55 131.61C383.769 131.931 382.847 132.091 381.785 132.091ZM394.914 132.091C393.969 132.091 393.199 131.88 392.605 131.458C392.019 131.028 391.726 130.278 391.726 129.208C391.726 128.997 391.738 128.766 391.761 128.516C391.793 128.259 391.836 127.993 391.89 127.72L393.32 120.97H391.445L391.703 119.657L393.918 118.755L395.394 116.013H397.117L396.508 118.884H399.812L399.367 120.97H396.074L394.633 127.731C394.594 127.895 394.558 128.071 394.527 128.259C394.504 128.438 394.492 128.602 394.492 128.751C394.492 129.102 394.59 129.376 394.785 129.571C394.98 129.766 395.277 129.864 395.676 129.864C395.98 129.864 396.273 129.833 396.554 129.77C396.836 129.708 397.144 129.618 397.48 129.501V131.575C397.191 131.708 396.816 131.825 396.355 131.927C395.894 132.036 395.414 132.091 394.914 132.091Z" fill="#2D6FEC"/>
</svg>
