<svg xmlns="http://www.w3.org/2000/svg" width="14.676" height="18.743" viewBox="0 0 14.676 18.743">
  <path id="receipt" d="M5,20.92V3.749a.524.524,0,0,1,.731-.482L8.463,4.438a.524.524,0,0,0,.413,0l3.256-1.4a.524.524,0,0,1,.413,0l3.256,1.4a.524.524,0,0,0,.413,0l2.732-1.171a.524.524,0,0,1,.731.482V20.92a.524.524,0,0,1-.784.455l-2.625-1.5a.524.524,0,0,0-.52,0l-3.149,1.8a.524.524,0,0,1-.52,0l-3.149-1.8a.524.524,0,0,0-.52,0l-2.625,1.5A.524.524,0,0,1,5,20.92ZM13.386,7.147a.524.524,0,0,1-.524.524H8.145a.524.524,0,1,1,0-1.048h4.717A.524.524,0,0,1,13.386,7.147Zm2.621,3.669a.524.524,0,1,0,0-1.048H8.145a.524.524,0,1,0,0,1.048Zm-4.193,2.621a.524.524,0,0,1-.524.524H8.145a.524.524,0,0,1,0-1.048H11.29A.524.524,0,0,1,11.814,13.437Zm-.524,3.669a.524.524,0,1,0,0-1.048H8.145a.524.524,0,1,0,0,1.048Z" transform="translate(-5 -3)" fill="#6c757d" fill-rule="evenodd"/>
</svg>
