<?xml version="1.0" encoding="utf-8"?>
<!-- Generator: Adobe Illustrator 24.2.3, SVG Export Plug-In . SVG Version: 6.00 Build 0)  -->
<svg version="1.1" id="Layer_1" xmlns="http://www.w3.org/2000/svg" xmlns:xlink="http://www.w3.org/1999/xlink" x="0px" y="0px"
	 viewBox="0 0 19.1 19.2" style="enable-background:new 0 0 19.1 19.2;" xml:space="preserve">
<style type="text/css">
	.st0{enable-background:new    ;}
	.st1{fill:#6c757d;}
</style>
<g class="st0">
	<path class="st1" d="M6.3,12c1.2-0.3,2.3-0.4,3.3-0.4s2.1,0.1,3.3,0.4s2.3,0.7,3.3,1.4s1.5,1.4,1.5,2.2v2h-16v-2
		c0-0.8,0.5-1.5,1.5-2.2S5.1,12.3,6.3,12z M12.4,8.4c-0.8,0.8-1.7,1.2-2.8,1.2S7.5,9.2,6.7,8.4C5.9,7.6,5.5,6.7,5.5,5.6
		s0.4-2.1,1.2-2.8C7.5,2,8.4,1.6,9.6,1.6s2.1,0.4,2.8,1.2s1.2,1.7,1.2,2.8S13.2,7.6,12.4,8.4z"/>
</g>
</svg>
