<svg xmlns="http://www.w3.org/2000/svg" width="17.992" height="19.191" viewBox="0 0 17.992 19.191">
  <g id="download" transform="translate(-16)">
    <g id="Group_4006" data-name="Group 4006" transform="translate(20.198)">
      <g id="Group_4005" data-name="Group 4005">
        <path id="Path_957" data-name="Path 957" d="M137.54,8.748a.6.6,0,0,0-.546-.351h-2.4V.6A.6.6,0,0,0,134,0h-2.4a.6.6,0,0,0-.6.6V8.4h-2.4a.6.6,0,0,0-.451.994l4.2,4.8a.6.6,0,0,0,.9,0l4.2-4.8A.6.6,0,0,0,137.54,8.748Z" transform="translate(-127.998)" fill="#6c757d"/>
      </g>
    </g>
    <g id="Group_4008" data-name="Group 4008" transform="translate(16 13.194)">
      <g id="Group_4007" data-name="Group 4007">
        <path id="Path_958" data-name="Path 958" d="M31.593,352v3.6H18.4V352H16v4.8a1.2,1.2,0,0,0,1.2,1.2H32.793a1.2,1.2,0,0,0,1.2-1.2V352Z" transform="translate(-16 -352)" fill="#6c757d"/>
      </g>
    </g>
  </g>
</svg>
