<?xml version="1.0" encoding="utf-8"?>
<!-- Generator: Adobe Illustrator 24.2.3, SVG Export Plug-In . SVG Version: 6.00 Build 0)  -->
<svg version="1.1" id="Layer_1" xmlns="http://www.w3.org/2000/svg" xmlns:xlink="http://www.w3.org/1999/xlink" x="0px" y="0px"
	 viewBox="0 0 19.1 19.2" style="enable-background:new 0 0 19.1 19.2;" xml:space="preserve">
<style type="text/css">
	.st0{enable-background:new    ;}
	.st1{fill:#6c757d;}
	.st2{fill:#FFFFFF;}
	.active-LF {
        .st1{
          filter: invert(42%) sepia(98%) saturate(1810%) hue-rotate(195deg) brightness(92%) contrast(88%);
          opacity: 1;
        }
	}
</style>
<g class="st0">
	<path class="st1" d="M5.9,11.1c1.1-0.3,2.1-0.4,3-0.4s1.9,0.1,3,0.4c1.1,0.3,2.1,0.7,3,1.3c0.9,0.6,1.4,1.3,1.4,2v1.9H1.5v-1.9
		c0-0.8,0.5-1.4,1.4-2C3.8,11.8,4.8,11.4,5.9,11.1z M11.5,7.8c-0.7,0.7-1.6,1.1-2.6,1.1c-1,0-1.9-0.4-2.6-1.1C5.5,7,5.2,6.2,5.2,5.1
		c0-1,0.4-1.9,1.1-2.6C7,1.8,7.9,1.4,8.9,1.4c1,0,1.9,0.4,2.6,1.1c0.7,0.7,1.1,1.6,1.1,2.6C12.6,6.2,12.2,7,11.5,7.8z"/>
</g>
<circle class="st2" cx="14.2" cy="14" r="4.1"/>
<g class="st0">
	<path class="st1" d="M11.6,11.5c0.7-0.7,1.5-1,2.5-1c1,0,1.8,0.3,2.5,1c0.7,0.7,1,1.5,1,2.5s-0.3,1.8-1,2.5c-0.7,0.7-1.5,1-2.5,1
		c-1,0-1.8-0.3-2.5-1c-0.7-0.7-1-1.5-1-2.5S10.9,12.1,11.6,11.5z M13.4,15.8l3.2-3.2L16.2,12l-2.7,2.7l-1.3-1.3L11.7,14L13.4,15.8z"
		/>
</g>
</svg>
