<svg xmlns="http://www.w3.org/2000/svg" width="11.482" height="18.006" viewBox="0 0 11.482 18.006">
  <g id="rupee-indian_1_" data-name="rupee-indian (1)" transform="translate(-72.807)">
    <path id="Path_956" data-name="Path 956" d="M84.175,4.079a.4.4,0,0,0-.294-.115H81.694a4.426,4.426,0,0,0-.819-1.841h2.979a.393.393,0,0,0,.409-.409V.409A.393.393,0,0,0,83.855,0H73.215a.394.394,0,0,0-.409.409v1.7a.415.415,0,0,0,.409.409h1.854q2.7,0,3.427,1.445H73.215a.394.394,0,0,0-.409.409v1.3a.394.394,0,0,0,.409.409h5.461a2.5,2.5,0,0,1-1.311,1.6,5.771,5.771,0,0,1-2.717.55H73.215a.415.415,0,0,0-.409.409v1.624a.382.382,0,0,0,.115.281q2.455,2.609,6.368,7.3a.377.377,0,0,0,.32.153H82.1a.371.371,0,0,0,.371-.23.349.349,0,0,0-.051-.435q-3.734-4.578-5.87-6.854a6.486,6.486,0,0,0,3.53-1.407,4.781,4.781,0,0,0,1.65-2.993h2.148a.394.394,0,0,0,.409-.409v-1.3A.4.4,0,0,0,84.175,4.079Z" transform="translate(0 0)" fill="#6c757d"/>
  </g>
</svg>
