<svg xmlns="http://www.w3.org/2000/svg" width="18.01" height="16.093" viewBox="0 0 18.01 16.093">
  <g id="Group_4027" data-name="Group 4027" transform="translate(-0.018 -5.33)">
    <g id="Zoom_In" data-name="Zoom In" transform="translate(0.018 5.33)">
      <g id="Calendar" transform="translate(0)">
        <g id="Group_3977" data-name="Group 3977">
          <path id="Path_951" data-name="Path 951" d="M17.653,18.653,10.619,6.472a1.939,1.939,0,0,0-1.6-1.142,1.939,1.939,0,0,0-1.6,1.142L.4,18.653c-.888,1.524-.168,2.77,1.6,2.77h14.05C17.812,21.423,18.532,20.177,17.653,18.653ZM8.106,11.471H9.938v4.262H8.1V11.471ZM9.023,18.5a1,1,0,1,1,.709-.292,1,1,0,0,1-.709.292Z" transform="translate(-0.018 -5.33)" fill="#6c757d"/>
        </g>
      </g>
    </g>
  </g>
</svg>
