<svg xmlns="http://www.w3.org/2000/svg" width="16.35" height="20.9" viewBox="0 0 16.35 20.9">
  <path id="Path_966" data-name="Path 966" d="M23.613,7.411a15.345,15.345,0,0,0,1.538-4.044.951.951,0,0,0-1.8-.418C22.47,4.18,22.1,2.4,21.064,2.4c-1.011,0-1.538,1.67-2.33.549a1.041,1.041,0,0,0-1.934.418,11.944,11.944,0,0,0,1.494,4.11C15.833,9.411,12.8,13.015,12.8,16.29c0,4.769,3.67,7.011,8.176,7.011s8.176-2.242,8.176-7.011C29.151,12.993,26.1,9.345,23.613,7.411Zm-4.967,4.571a1.231,1.231,0,1,1-1.231,1.231A1.229,1.229,0,0,1,18.646,11.982Zm.33,6.571a.757.757,0,0,1-.505.22.668.668,0,0,1-.505-.22.7.7,0,0,1,0-1.011L23,12.51a.7.7,0,0,1,1.011,0,.723.723,0,0,1,0,1.011Zm4.33.549a1.231,1.231,0,1,1,1.231-1.231A1.229,1.229,0,0,1,23.305,19.1Z" transform="translate(-12.801 -2.4)" fill="#6c757d"/>
</svg>
