<svg xmlns="http://www.w3.org/2000/svg" width="75.44" height="86.343" viewBox="0 0 75.44 86.343"><defs><style>.a{fill:#6c757d;}</style></defs><g transform="translate(-32.324)"><g transform="translate(42.585 25.245)"><g transform="translate(0)"><path class="a" d="M129.191,149.7H95.7a2.53,2.53,0,0,0,0,5.059h33.493a2.53,2.53,0,0,0,0-5.059Z" transform="translate(-93.168 -149.701)"/></g></g><g transform="translate(42.585 34.879)"><g transform="translate(0)"><path class="a" d="M129.191,206.829H95.7a2.53,2.53,0,1,0,0,5.059h33.493a2.53,2.53,0,0,0,0-5.059Z" transform="translate(-93.168 -206.829)"/></g></g><g transform="translate(32.324)"><g transform="translate(0)"><path class="a" d="M91.394,45.6V12.943a7.6,7.6,0,0,0-7.589-7.589H78.636A6.856,6.856,0,0,0,71.956,0H51.762a6.856,6.856,0,0,0-6.68,5.355H39.913a7.6,7.6,0,0,0-7.589,7.589v61.65a7.6,7.6,0,0,0,7.589,7.589H75.157a20.105,20.105,0,0,0,12.257,4.16A20.591,20.591,0,0,0,91.394,45.6ZM49.975,6.846a1.788,1.788,0,0,1,1.786-1.787H71.956a1.788,1.788,0,0,1,1.786,1.787v4.579a1.788,1.788,0,0,1-1.786,1.786H51.762a1.788,1.788,0,0,1-1.786-1.786ZM45.114,59.206H68.127a20.744,20.744,0,0,0,2.324,17.917H39.913a2.532,2.532,0,0,1-2.53-2.53V12.943a2.532,2.532,0,0,1,2.53-2.53h5v1.01a6.853,6.853,0,0,0,6.846,6.846H71.956A6.853,6.853,0,0,0,78.8,11.424v-1.01h5a2.532,2.532,0,0,1,2.53,2.53V45.232a20.038,20.038,0,0,0-5.327,1.016,2.529,2.529,0,0,0-2.4-1.735H45.114a2.53,2.53,0,0,0,0,5.059H74.888a20.65,20.65,0,0,0-4.253,4.575H45.114a2.53,2.53,0,0,0,0,5.059Zm42.3,22.077a15.512,15.512,0,1,1,15.291-15.511A15.419,15.419,0,0,1,87.414,81.284Z" transform="translate(-32.324)"/></g></g><g transform="translate(84.885 58.049)"><path class="a" d="M353.959,357.593l-4.9-6.5V346.75a2.53,2.53,0,1,0-5.059,0v5.195a2.531,2.531,0,0,0,.51,1.523l5.408,7.172a2.53,2.53,0,0,0,4.04-3.046Z" transform="translate(-344.002 -344.22)"/></g></g></svg>