<?xml version="1.0" encoding="utf-8"?>
<!-- Generator: Adobe Illustrator 24.2.3, SVG Export Plug-In . SVG Version: 6.00 Build 0)  -->
<svg version="1.1" id="Layer_1" xmlns="http://www.w3.org/2000/svg" xmlns:xlink="http://www.w3.org/1999/xlink" x="0px" y="0px"
	 viewBox="0 0 19.1 19.2" style="enable-background:new 0 0 19.1 19.2;" xml:space="preserve">
<style type="text/css">
	.st0{fill:#FFFFFF;}
	.st1{enable-background:new    ;}
	.st2{fill:#6c757d;}
</style>
<circle class="st0" cx="14.2" cy="14" r="4.1"/>
<g class="st1">
	<path class="st2" d="M5.2,8.1h2.2v1.5H5.2v2.2H3.7V9.6H1.5V8.1h2.2V5.9h1.5V8.1z M9.4,11.4c0.9-0.2,1.7-0.3,2.4-0.3
		c0.7,0,1.5,0.1,2.4,0.3c0.9,0.2,1.7,0.5,2.4,1s1.1,1,1.1,1.6v1.5H5.9V14c0-0.6,0.4-1.1,1.1-1.6S8.5,11.6,9.4,11.4z M13.9,8.7
		c-0.6,0.6-1.3,0.9-2.1,0.9c-0.8,0-1.5-0.3-2.1-0.9C9.1,8.1,8.8,7.4,8.8,6.6s0.3-1.5,0.9-2.1C10.3,4,11,3.7,11.8,3.7
		c0.8,0,1.5,0.3,2.1,0.9c0.6,0.6,0.9,1.3,0.9,2.1S14.4,8.1,13.9,8.7z"/>
</g>
</svg>
