<svg xmlns="http://www.w3.org/2000/svg" width="18" height="18" viewBox="0 0 18 18">
  <g id="Group_4025" data-name="Group 4025">
    <g id="Group_4019" data-name="Group 4019" transform="translate(5.113 2.295)">
      <g id="Group_4018" data-name="Group 4018">
        <path id="Path_963" data-name="Path 963" d="M128.986,53.27l-5.93,4.869a.985.985,0,0,1-1.21.032l-1.984-1.46a.985.985,0,0,0-1.307.123l-.136.146a.985.985,0,0,0-.025,1.313l3.511,4.084h0a.985.985,0,0,0,1.469.029l0,0,7.043-7.612a.986.986,0,0,0-.005-1.344l-.085-.091A.986.986,0,0,0,128.986,53.27Z" transform="translate(-118.156 -53.046)" fill="#6c757d"/>
      </g>
    </g>
    <g id="Group_4021" data-name="Group 4021">
      <g id="Group_4020" data-name="Group 4020">
        <path id="Path_964" data-name="Path 964" d="M15.231,10.679v3.643a.909.909,0,0,1-.909.909H3.678a.909.909,0,0,1-.909-.909V3.678a.909.909,0,0,1,.909-.909H9.794a.909.909,0,0,0,.707-.338l1.616-2a.262.262,0,0,0-.2-.427h-11A.909.909,0,0,0,0,.909V17.091A.909.909,0,0,0,.909,18H17.091A.909.909,0,0,0,18,17.091V7.666a.262.262,0,0,0-.467-.165l-2.1,2.607A.909.909,0,0,0,15.231,10.679Z" fill="#6c757d"/>
      </g>
    </g>
  </g>
</svg>
