<?xml version="1.0" encoding="utf-8"?>
<!-- Generator: Adobe Illustrator 24.2.3, SVG Export Plug-In . SVG Version: 6.00 Build 0)  -->
<svg version="1.1" id="Layer_1" xmlns="http://www.w3.org/2000/svg" xmlns:xlink="http://www.w3.org/1999/xlink" x="0px" y="0px"
	 viewBox="0 0 19.1 19.2" style="enable-background:new 0 0 19.1 19.2;" xml:space="preserve">
<style type="text/css">
	.st0{fill:#FFFFFF;}
	.st1{enable-background:new    ;}
	.st2{fill:#6c757d;}
</style>
<circle class="st0" cx="14.2" cy="14" r="4.1"/>
<g class="st1">
	<path class="st2" d="M7.1,10.4c0.6,0,1.2,0.1,1.9,0.2c-1.3,0.7-1.9,1.6-1.9,2.8v1.8H1.5v-2c0-0.6,0.3-1.1,1-1.5
		c0.7-0.5,1.5-0.8,2.3-1C5.7,10.5,6.4,10.4,7.1,10.4z M8.8,8.1c-0.5,0.5-1,0.7-1.7,0.7c-0.7,0-1.2-0.2-1.7-0.7
		C4.9,7.6,4.7,7,4.7,6.4s0.2-1.2,0.7-1.7C5.9,4.2,6.5,4,7.1,4c0.7,0,1.2,0.2,1.7,0.7c0.5,0.5,0.7,1,0.7,1.7S9.3,7.6,8.8,8.1z
		 M10.3,11.8c1-0.4,2-0.6,2.9-0.6c0.9,0,1.9,0.2,2.9,0.6c1,0.4,1.5,0.9,1.5,1.6v1.8H8.7v-1.8C8.7,12.7,9.3,12.2,10.3,11.8z M14.6,9
		c-0.4,0.4-0.9,0.6-1.4,0.6c-0.6,0-1-0.2-1.4-0.6c-0.4-0.4-0.6-0.9-0.6-1.4s0.2-1,0.6-1.4c0.4-0.4,0.9-0.6,1.4-0.6
		c0.6,0,1,0.2,1.4,0.6C15,6.5,15.2,7,15.2,7.6S15,8.6,14.6,9z"/>
</g>
</svg>
