<svg xmlns="http://www.w3.org/2000/svg" width="45" height="45" viewBox="0 0 45 45"><defs><style>.a{fill:#6c757d;}</style></defs><path class="a" d="M24,1.5A22.5,22.5,0,1,0,46.5,24,22.5,22.5,0,0,0,24,1.5Zm4.5,15.9h1.078a1.5,1.5,0,0,1,0,3h-.714a7.117,7.117,0,0,1-7.075,6.432h-.477l5.708,6.018a1.5,1.5,0,1,1-2.176,2.064l-8.11-8.55a1.5,1.5,0,0,1,1.088-2.532h3.967a4.105,4.105,0,0,0,4.04-3.432h-7.94a1.5,1.5,0,1,1,0-3h7.288a4.1,4.1,0,0,0-3.383-1.784H17.827a1.5,1.5,0,0,1,0-3h3.967c.056,0,.109.007.164.008h7.625a1.5,1.5,0,1,1,0,3H27.591a7.093,7.093,0,0,1,.914,1.776Z" transform="translate(-1.5 -1.5)"/></svg>