<?xml version="1.0" encoding="utf-8"?>
<!-- Generator: Adobe Illustrator 24.2.3, SVG Export Plug-In . SVG Version: 6.00 Build 0)  -->
<svg version="1.1" id="Layer_1" xmlns="http://www.w3.org/2000/svg" xmlns:xlink="http://www.w3.org/1999/xlink" x="0px" y="0px"
	 viewBox="0 0 19.1 19.2" style="enable-background:new 0 0 19.1 19.2;" xml:space="preserve">
<style type="text/css">
	.st0{}
	.st1{fill:none;}
	.st2{fill:#6C757D;}
	.st3{fill:#6C757D;enable-background:new    ;}
</style>
<g id="Rectangle_2336" transform="translate(0 22) rotate(-90)" class="st0">
	<g>
		<path class="st1" d="M12.4,1.5L12.4,1.5c4.5,0,8.1,3.6,8.1,8.1l0,0c0,4.5-3.6,8.1-8.1,8.1l0,0C8,17.6,4.3,14,4.3,9.6l0,0
			C4.3,5.1,8,1.5,12.4,1.5z"/>
	</g>
	<g>
		<path class="st2" d="M4.3,9.6c0-3.9,2.8-7.2,6.6-7.9l0.4,2.2C8.6,4.3,6.5,6.7,6.5,9.6c0,3.2,2.6,5.9,5.9,5.9s5.9-2.6,5.9-5.9
			s-2.6-5.9-5.9-5.9V1.5c4.5,0,8.1,3.6,8.1,8.1s-3.6,8.1-8.1,8.1S4.3,14,4.3,9.6z"/>
	</g>
</g>
<path id="Path_965" class="st3" d="M9.4,10.8c0.4,0.3,0.9,0.2,1.2-0.1c0,0,0,0,0,0c0.3-0.4,0.2-0.9-0.1-1.2l-0.3-0.2L6.3,7.4
	l2.9,3.2L9.4,10.8z"/>
</svg>
