<svg xmlns="http://www.w3.org/2000/svg" width="50.807" height="59.663" viewBox="0 0 50.807 59.663">
  <g id="surface1" transform="translate(-0.5 0)">
    <path id="Path_918" data-name="Path 918" d="M48.624,39.843a30.1,30.1,0,0,1-7.209,11.231,37.736,37.736,0,0,1-14.089,8.348,4.311,4.311,0,0,1-1.369.242H25.9a4.371,4.371,0,0,1-.84-.083,4.552,4.552,0,0,1-.578-.157A37.734,37.734,0,0,1,10.38,51.079,30.044,30.044,0,0,1,3.173,39.851C.261,31.949.426,23.244.56,16.248l0-.107c.027-.578.044-1.184.054-1.854A6.323,6.323,0,0,1,6.57,8.092c6.86-.383,12.166-2.62,16.7-7.04l.04-.036a3.822,3.822,0,0,1,5.189,0l.039.036c4.535,4.419,9.842,6.657,16.7,7.04a6.323,6.323,0,0,1,5.954,6.195c.01.675.027,1.28.054,1.854v.045C51.381,23.195,51.546,31.917,48.624,39.843Zm0,0" transform="translate(0 0)" fill="#00aa63"/>
    <path id="Path_919" data-name="Path 919" d="M241.617,39.846a30.1,30.1,0,0,1-7.209,11.231,37.736,37.736,0,0,1-14.089,8.348,4.311,4.311,0,0,1-1.369.242V0a3.828,3.828,0,0,1,2.543,1.015l.039.036c4.535,4.419,9.842,6.657,16.7,7.04a6.323,6.323,0,0,1,5.954,6.195c.01.675.027,1.28.054,1.854v.045C244.375,23.2,244.539,31.92,241.617,39.846Zm0,0" transform="translate(-192.993 -0.003)" fill="#00aa63"/>
    <path id="Path_920" data-name="Path 920" d="M120.633,143.267a14.888,14.888,0,0,1-14.817,14.87h-.052a14.869,14.869,0,1,1,0-29.739h.052A14.888,14.888,0,0,1,120.633,143.267Zm0,0" transform="translate(-79.861 -113.436)" fill="#fff"/>
    <path id="Path_921" data-name="Path 921" d="M233.766,143.267a14.888,14.888,0,0,1-14.817,14.87V128.4A14.888,14.888,0,0,1,233.766,143.267Zm0,0" transform="translate(-192.993 -113.436)" fill="#fff"/>
    <path id="Path_922" data-name="Path 922" d="M168.422,214.968l-6.7,6.7-1.447,1.447a1.752,1.752,0,0,1-2.477,0L154.691,220a1.75,1.75,0,0,1,2.475-2.475l1.874,1.874,6.907-6.907a1.75,1.75,0,0,1,2.475,2.475Zm0,0" transform="translate(-135.77 -187.278)" fill="#6fa5aa"/>
    <path id="Path_923" data-name="Path 923" d="M225.646,214.968l-6.7,6.7v-4.952l4.221-4.221a1.75,1.75,0,0,1,2.475,2.475Zm0,0" transform="translate(-192.993 -187.278)" fill="#6fa5aa"/>
  </g>
</svg>
