<svg xmlns="http://www.w3.org/2000/svg" width="15.186" height="19.328" viewBox="0 0 15.186 19.328"><defs><style>.a{fill:#3381DD;}</style></defs><path class="a" d="M85.177,44.425h.69v.69h-.69Zm7.593-8.974H94.7l-2.963-2.963v1.928A1.037,1.037,0,0,0,92.77,35.451Zm-7.5,10.354-.325,1.156a.346.346,0,0,1-.036.084.49.49,0,0,0-.072.255.7.7,0,0,0,1.381,0,.49.49,0,0,0-.072-.255.345.345,0,0,1-.036-.084l-.325-1.156Zm5.779-11.39V32H85.867v1.381h.69a.345.345,0,1,1,0,.69h-.69v1.381h.69a.345.345,0,1,1,0,.69h-.69v1.381h.69a.345.345,0,0,1,0,.69h-.69v1.381h.69a.345.345,0,1,1,0,.69h-.69v1.381h.69a.345.345,0,1,1,0,.69h-.69v1.381h.345a.345.345,0,0,1,.345.345v1.381a.344.344,0,0,1-.093.235l.292,1.039a1.184,1.184,0,0,1,.146.567,1.386,1.386,0,0,1-2.761,0,1.184,1.184,0,0,1,.146-.567L84.58,45.7a.344.344,0,0,1-.093-.235V44.08a.345.345,0,0,1,.345-.345h.345V42.354h-.69a.345.345,0,1,1,0-.69h.69V40.283h-.69a.345.345,0,1,1,0-.69h.69V38.213h-.69a.345.345,0,0,1,0-.69h.69V36.142h-.69a.345.345,0,1,1,0-.69h.69V34.071h-.69a.345.345,0,1,1,0-.69h.69V32H81.035A1.037,1.037,0,0,0,80,33.035V50.293a1.037,1.037,0,0,0,1.035,1.035H94.151a1.037,1.037,0,0,0,1.035-1.035V36.142H92.77A1.728,1.728,0,0,1,91.045,34.416Z" transform="translate(-80 -32)"/></svg>