<svg xmlns="http://www.w3.org/2000/svg" width="17.496" height="15.746" viewBox="0 0 17.496 15.746">
  <g id="history" transform="translate(-187.359 -93.903)">
    <path id="Path_4659" data-name="Path 4659" d="M189.584,99.078a7.875,7.875,0,1,1,.58,6.635.875.875,0,1,1,1.514-.877,6.122,6.122,0,1,0-.6-4.695l1.533-.875a.875.875,0,0,1,.868,1.519l-3.062,1.75a.875.875,0,0,1-1.212-.36l-1.75-3.414a.875.875,0,1,1,1.557-.8Zm8.273,2.336,2.368,2.368a.875.875,0,1,1-1.237,1.237l-2.624-2.624a.874.874,0,0,1-.256-.618v-3.5a.875.875,0,0,1,1.75,0Z" transform="translate(0 0)" fill="#b4b9bd" fill-rule="evenodd"/>
  </g>
</svg>
