<svg xmlns="http://www.w3.org/2000/svg" width="22" height="11.709" viewBox="0 0 22 11.709">
  <g id="Group_4024" data-name="Group 4024" transform="translate(16228 -5479)" opacity="0.5">
    <path id="Path_942" data-name="Path 942" d="M5.238,30.786,7.5,34.7a6.627,6.627,0,0,0-3.129,5.458H0A11,11,0,0,1,5.238,30.786Z" transform="translate(-16228 5449.841)" fill="#6c757d"/>
    <path id="Path_943" data-name="Path 943" d="M36.869,24.664l-2.263,3.925a6.625,6.625,0,0,0-5.772,0l-2.263-3.922a11.011,11.011,0,0,1,10.3-.007Z" transform="translate(-16248.726 5455.611)" fill="#6c757d"/>
    <path id="Path_944" data-name="Path 944" d="M73.381,40.146H69.012a6.623,6.623,0,0,0-3.139-5.465l2.259-3.911A10.986,10.986,0,0,1,73.381,40.146Z" transform="translate(-16279.381 5449.854)" fill="#6c757d"/>
    <path id="Path_945" data-name="Path 945" d="M45.984,60.95a.991.991,0,0,0-.327,1.369,1,1,0,0,0,1.377.335l.309-.292L50.96,58.9l-4.7,1.932Z" transform="translate(-16263.497 5427.909)" fill="#6c757d"/>
  </g>
</svg>
