<svg xmlns="http://www.w3.org/2000/svg" width="16" height="16" viewBox="0 0 16 16"><defs><style>.a{fill:#b4b9bd;}</style></defs><g transform="translate(-0.007)"><path class="a" d="M15.733,5.838l-.783-.783a.939.939,0,0,0-1.326,0L11.976,6.7v-5.3A1.408,1.408,0,0,0,10.57,0H1.413A1.408,1.408,0,0,0,.007,1.406V14.594A1.408,1.408,0,0,0,1.413,16H10.57a1.408,1.408,0,0,0,1.406-1.406v-3.72l3.757-3.71a.939.939,0,0,0,0-1.326Zm-5.606,5.544-1.41.658.657-1.409,3.5-3.5.774.774Zm.912,3.211a.469.469,0,0,1-.469.469H1.413a.469.469,0,0,1-.469-.469V1.406A.469.469,0,0,1,1.413.938H10.57a.469.469,0,0,1,.469.469V7.642a26,26,0,0,0-2.479,2.519L7.322,12.813a.469.469,0,0,0,.623.623L10.6,12.2c.1-.045.113-.074.442-.4Zm3.275-7.346-.778-.778.751-.751.782.783Z"/><path class="a" d="M65.476,97.938h7a.469.469,0,1,0,0-.937h-7a.469.469,0,1,0,0,.938Z" transform="translate(-62.969 -93.969)"/><path class="a" d="M65.476,177.938h5.5a.469.469,0,1,0,0-.937h-5.5a.469.469,0,1,0,0,.938Z" transform="translate(-62.969 -171.469)"/><path class="a" d="M69.476,257h-4a.469.469,0,1,0,0,.938h4a.469.469,0,1,0,0-.937Z" transform="translate(-62.969 -248.969)"/></g></svg>