<svg xmlns="http://www.w3.org/2000/svg" width="46.668" height="42.231" viewBox="0 0 46.668 42.231">
  <g id="dashboard_2_" data-name="dashboard (2)" transform="translate(0 -24.338)">
    <g id="Group_3" data-name="Group 3" transform="translate(0.911 25.249)">
      <g id="Group_1" data-name="Group 1" transform="translate(0)">
        <path id="Path_1" data-name="Path 1" d="M54.845,36.443a2.106,2.106,0,0,0-2.106-2.106H12.106A2.106,2.106,0,0,0,10,36.443v4.646H54.845Z" transform="translate(-10 -34.337)" fill="#e7ecfb"/>
      </g>
      <g id="Group_2" data-name="Group 2" transform="translate(0 6.752)">
        <path id="Path_2" data-name="Path 2" d="M10,108.413v31.551a2.106,2.106,0,0,0,2.106,2.106H52.739a2.106,2.106,0,0,0,2.106-2.106V108.413Z" transform="translate(-10 -108.413)" fill="#e7ecfb"/>
      </g>
    </g>
    <g id="Group_8" data-name="Group 8" transform="translate(0 24.338)">
      <path id="Path_7" data-name="Path 7" d="M43.651,24.338H3.017A3.021,3.021,0,0,0,0,27.355v36.2a3.021,3.021,0,0,0,3.017,3.017H43.651a3.021,3.021,0,0,0,3.017-3.017v-36.2a3.021,3.021,0,0,0-3.017-3.017ZM1.823,27.355a1.2,1.2,0,0,1,1.194-1.194H43.651a1.2,1.2,0,0,1,1.194,1.194V31.09H1.823Zm43.022,36.2a1.2,1.2,0,0,1-1.194,1.194H3.017a1.2,1.2,0,0,1-1.194-1.194V32.913H44.845Z" transform="translate(0 -24.338)" fill="#2d3079"/>
      <path id="Path_11" data-name="Path 11" d="M307.739,170.339a7.019,7.019,0,1,0-7.019-7.019A6.973,6.973,0,0,0,307.739,170.339Zm4.179-10.109a5.2,5.2,0,0,1,.083,6.062l-3.35-3.35V158.2A5.225,5.225,0,0,1,311.919,160.23Zm-7.853-.585a5.155,5.155,0,0,1,2.763-1.441v5.115a.912.912,0,0,0,.267.645l3.617,3.617a5.2,5.2,0,0,1-6.647-7.936Z" transform="translate(-273.31 -144.273)" fill="#2d3079"/>
      <path id="Path_12" data-name="Path 12" d="M301.631,349.192h12.216a.911.911,0,1,0,0-1.823H301.631a.911.911,0,0,0,0,1.823Z" transform="translate(-273.31 -317.925)" fill="#2d3079"/>
      <path id="Path_13" data-name="Path 13" d="M51.911,205.81H68.865a.911.911,0,0,0,0-1.823h-1.2V190.518a.911.911,0,0,0-.911-.911H62.235a.911.911,0,0,0-.911.911v13.468H59v-7.645a.911.911,0,0,0-.911-.911H53.566a.911.911,0,0,0-.911.911v7.645h-.743a.911.911,0,1,0,0,1.823Zm11.235-14.38h2.695v12.557H63.146Zm-8.669,5.823h2.695v6.734H54.477Z" transform="translate(-46.351 -174.543)" fill="#2d3079"/>
      <path id="Path_14" data-name="Path 14" d="M129.038,403.661H98.287a.911.911,0,1,0,0,1.823h30.75a.911.911,0,1,0,0-1.823Z" transform="translate(-88.5 -369.086)" fill="#2d3079"/>
      <path id="Path_15" data-name="Path 15" d="M51.1,404.955a.911.911,0,1,0,.373-1.13A.919.919,0,0,0,51.1,404.955Z" transform="translate(-46.38 -369.12)" fill="#2d3079"/>
    </g>
  </g>
</svg>
