<svg xmlns="http://www.w3.org/2000/svg" width="113.771" height="113.759" viewBox="0 0 113.771 113.759">
  <g id="inspection" transform="translate(0 -0.025)">
    <g id="Group_14897" data-name="Group 14897" transform="translate(0 0.025)">
      <g id="Group_14896" data-name="Group 14896" transform="translate(0 0)">
        <path id="Path_9141" data-name="Path 9141" d="M113.263,26.574a32.218,32.218,0,0,0-60.3-9.2A26.525,26.525,0,0,0,7.585,36.049v3.792a1.9,1.9,0,0,0,1.9,1.9,1.957,1.957,0,0,0,.231-.036A30.165,30.165,0,0,0,20.358,61.4c.163.135.334.25.5.379v7.032L5.09,74.067a1.9,1.9,0,0,0-1.287,1.6L.01,111.691A1.9,1.9,0,0,0,1.7,113.774a1.841,1.841,0,0,0,.2.01H66.361a1.9,1.9,0,0,0,1.9-1.9,1.877,1.877,0,0,0-.009-.19L64.455,75.675a1.9,1.9,0,0,0-1.287-1.6L47.4,68.811V61.779c.165-.129.336-.245.5-.379a30.244,30.244,0,0,0,7.791-9.958A32.232,32.232,0,0,0,75.841,63.956v4.325H72.049a1.9,1.9,0,0,0-1.9,1.9V77.76a1.9,1.9,0,0,0,1.9,1.9V104.3a9.48,9.48,0,0,0,18.96,0V79.656a1.9,1.9,0,0,0,1.9-1.9V70.176a1.9,1.9,0,0,0-1.9-1.9H87.216V63.956A32.216,32.216,0,0,0,113.263,26.574ZM20.857,109.992H4L7.447,77.277l13.41-4.471Zm-9.48-73.944A22.7,22.7,0,0,1,51.293,21.2,31.283,31.283,0,0,0,49.515,35.88a9.48,9.48,0,0,1-7.8-9.311,1.9,1.9,0,0,0-2.307-1.852l-1.138.254A81.546,81.546,0,0,0,11.377,36.252v-.2Zm13.272,73.944V84.815l6.719-2.241-4.757,17.443a1.911,1.911,0,0,0,.133,1.346l4.317,8.629Zm0-29.175V77.036l4.537,2.275Zm5.811,19.506,3.669-13.462L37.8,100.323l-3.669,7.326Zm13.149,9.67H37.2l4.327-8.632a1.911,1.911,0,0,0,.133-1.346L36.9,82.571l6.71,2.245v25.177Zm0-29.175L39.072,79.3l4.537-2.264Zm0-8.02-9.48,4.74-9.48-4.74V64.166a21.365,21.365,0,0,0,18.96,0Zm17.2,4.48,3.443,32.715H47.4V72.806ZM45.471,58.486a17.71,17.71,0,0,1-22.684,0A26.354,26.354,0,0,1,13.36,39.5,77.736,77.736,0,0,1,38.124,28.893a13.3,13.3,0,0,0,12.1,10.9,32,32,0,0,0,2.986,7.84A26.435,26.435,0,0,1,45.471,58.486ZM87.216,104.3a5.688,5.688,0,0,1-11.376,0V79.656H87.216Zm1.9-32.232v3.792H73.945V72.072Zm-9.48-3.792V64.392c.631.038,1.255.1,1.9.1s1.265-.059,1.9-.1v3.889Zm1.9-7.584a28.44,28.44,0,1,1,28.44-28.44A28.44,28.44,0,0,1,81.528,60.7Z" transform="translate(0 -0.025)" fill="#3381dd"/>
        <path id="Path_9142" data-name="Path 9142" d="M264.652,32.025A24.648,24.648,0,1,0,289.3,56.673,24.648,24.648,0,0,0,264.652,32.025Zm0,45.5a20.856,20.856,0,1,1,20.856-20.856A20.856,20.856,0,0,1,264.652,77.529Z" transform="translate(-183.123 -24.441)" fill="#3381dd"/>
      </g>
    </g>
  </g>
</svg>
