<svg xmlns="http://www.w3.org/2000/svg" width="62.21" height="113.838" viewBox="0 0 62.21 113.838">
  <g id="yellow-card" transform="translate(-89.407 0)">
    <path id="Path_9143" data-name="Path 9143" d="M100.685,113.838a1.668,1.668,0,0,1-1.633-1.339L89.569,65.317a8.371,8.371,0,0,1,1.376-6.471L100.708,45.1a8.352,8.352,0,0,1,5.782-3.448V23.163a1.668,1.668,0,1,1,3.335,0V41.589h9.319a8.315,8.315,0,0,1,6.964,3.753l5.637,8.563a4.706,4.706,0,0,1,.639,3.8,4.618,4.618,0,0,1-2.4,2.918,8.021,8.021,0,0,1-2.014.693,6.87,6.87,0,0,1,.476,1.633q.074.461.151.967h18.02a1.669,1.669,0,0,0,1.668-1.668V5a1.669,1.669,0,0,0-1.668-1.668H111.492A1.669,1.669,0,0,0,109.825,5V25.387a1.668,1.668,0,1,1-3.335,0V5a5.008,5.008,0,0,1,5-5h35.122a5.008,5.008,0,0,1,5,5V62.247a5.008,5.008,0,0,1-5,5h-7.436a24.346,24.346,0,0,0-2.45,10.622V88.88a1.668,1.668,0,1,1-3.335,0V77.871a27.7,27.7,0,0,1,2.128-10.622h-6.483a89.289,89.289,0,0,1,.609,10.158,92.759,92.759,0,0,1-1.2,14.459,6.752,6.752,0,0,1-6.082,5.676A19.13,19.13,0,0,1,124.2,108.7l1.171-.743a17.207,17.207,0,0,0,8.024-14.6V88.876a1.668,1.668,0,0,1,3.335,0v4.481a20.526,20.526,0,0,1-9.572,17.413l-4.424,2.808a1.668,1.668,0,0,1-2.508-1.825c1.531-5.927.894-10.391-2.13-14.927l-4.447-6.67a1.668,1.668,0,0,1,1.387-2.592h5.385a1.668,1.668,0,0,1,0,3.335H118.15l2.223,3.335h1.379a3.432,3.432,0,0,0,3.4-2.9c.324-2,.686-4.683.919-7.737a3.438,3.438,0,0,0-3.364-2.724H107.44a1.668,1.668,0,1,1,0-3.335H122.7a6.756,6.756,0,0,1,3.6,1.032q.009-.577.009-1.163c0-1.3-.034-2.579-.094-3.812a3.436,3.436,0,0,0-3.384-2.82H104.012a1.668,1.668,0,1,1,0-3.335h18.822a6.771,6.771,0,0,1,2.945.67c-.2-1.769-.42-3.339-.629-4.63a3.39,3.39,0,0,0-3.4-2.9h-21.49a1.668,1.668,0,0,1,0-3.335H107.2l3.023-5.173a1.667,1.667,0,0,1,1.44-.826h6.448a1.668,1.668,0,0,1,1.364.708l2.921,4.153a4.781,4.781,0,0,0,6.091,1.532,1.244,1.244,0,0,0,.677-.8,1.353,1.353,0,0,0-.2-1.1l-5.637-8.563a4.989,4.989,0,0,0-4.178-2.252H107.506a5.011,5.011,0,0,0-4.079,2.106L93.664,60.777a5.021,5.021,0,0,0-.826,3.882l9.483,47.182a1.669,1.669,0,0,1-1.637,2Zm10.378-56.593h8.055l-1.873-2.664H112.62ZM129.47,36.6a1.779,1.779,0,1,1,1.779-1.779A1.781,1.781,0,0,1,129.47,36.6Zm0-6.893a1.667,1.667,0,0,1-1.668-1.668V11.055a1.668,1.668,0,1,1,3.335,0v16.99A1.668,1.668,0,0,1,129.47,29.712Z" transform="translate(0)" fill="#3381dd"/>
  </g>
</svg>
