<svg xmlns="http://www.w3.org/2000/svg" xmlns:xlink="http://www.w3.org/1999/xlink" width="14" height="14" viewBox="0 0 14 14"><defs><style>.a{fill:#3381DD;}.b{clip-path:url(#a);}</style><clipPath id="a"><rect class="a" width="14" height="14" transform="translate(1 1.436)"/></clipPath></defs><g class="b" transform="translate(-1 -1.436)"><g transform="translate(1 1.436)"><path class="a" d="M10.84,7.338H12.48v3.928H10.84Zm0,0"/><path class="a" d="M7.733,7.338H9.374v3.928H7.733Zm0,0"/><path class="a" d="M4.626,7.338H6.267v3.928H4.626Zm0,0"/><path class="a" d="M1.52,7.338H3.16v3.928H1.52Zm0,0"/><path class="a" d="M13.027,6.107V5.7H.973v.41a.41.41,0,0,0,.41.41H12.617A.41.41,0,0,0,13.027,6.107Zm0,0"/><path class="a" d="M13.59,12.086H.411A.41.41,0,0,0,0,12.5V13.59a.41.41,0,0,0,.41.41H13.59a.41.41,0,0,0,.41-.41V12.5A.41.41,0,0,0,13.59,12.086Zm0,0"/><path class="a" d="M.41,4.877H13.59a.41.41,0,0,0,.215-.759L7.215.061a.41.41,0,0,0-.43,0L.2,4.117a.41.41,0,0,0,.215.759ZM6.721,2.412h.558a.41.41,0,1,1,0,.82H6.721a.41.41,0,0,1,0-.82Zm0,0"/></g></g></svg>