<svg xmlns="http://www.w3.org/2000/svg" xmlns:xlink="http://www.w3.org/1999/xlink" width="42" height="42" viewBox="0 0 42 42"><defs><style>.a,.c{fill:#343a40;}.a{stroke:#707070;}.b{clip-path:url(#a);}</style><clipPath id="a"><rect class="a" width="42" height="42" transform="translate(0 0)"/></clipPath></defs><g class="b" transform="translate(0 0)"><g transform="translate(0.848 1.541)"><path class="c" d="M25.263,36.7v1.227a1.946,1.946,0,0,1-1.651,1.927l-.3,1.115A1.387,1.387,0,0,1,21.97,42h-3a1.387,1.387,0,0,1-1.339-1.028l-.294-1.115a1.955,1.955,0,0,1-1.659-1.936V36.693a1.18,1.18,0,0,1,1.184-1.184h7.216A1.193,1.193,0,0,1,25.263,36.7Zm5.557-16.54a10.3,10.3,0,0,1-2.9,7.181,9.488,9.488,0,0,0-2.541,5.151,1.711,1.711,0,0,1-1.694,1.443H17.261A1.694,1.694,0,0,1,15.575,32.5a9.593,9.593,0,0,0-2.558-5.168,10.346,10.346,0,1,1,17.8-7.173ZM21.642,13.9a1.167,1.167,0,0,0-1.167-1.167A7.474,7.474,0,0,0,13.009,20.2a1.167,1.167,0,0,0,2.333,0,5.139,5.139,0,0,1,5.133-5.133A1.162,1.162,0,0,0,21.642,13.9ZM20.475,6.421a1.167,1.167,0,0,0,1.167-1.167V1.167a1.167,1.167,0,1,0-2.333,0V5.254A1.167,1.167,0,0,0,20.475,6.421ZM6.743,20.153a1.167,1.167,0,0,0-1.167-1.167H1.489a1.167,1.167,0,1,0,0,2.333H5.577A1.162,1.162,0,0,0,6.743,20.153Zm32.718-1.167H35.374a1.167,1.167,0,0,0,0,2.333h4.088a1.167,1.167,0,1,0,0-2.333ZM9.12,29.866l-2.895,2.9a1.164,1.164,0,0,0,1.642,1.651l2.895-2.895A1.164,1.164,0,1,0,9.12,29.866ZM31.01,10.785a1.165,1.165,0,0,0,.821-.337l2.9-2.895A1.167,1.167,0,0,0,33.075,5.9L30.18,8.8a1.163,1.163,0,0,0,0,1.651A1.185,1.185,0,0,0,31.01,10.785ZM9.12,10.439a1.164,1.164,0,0,0,1.642-1.651L7.867,5.894A1.167,1.167,0,1,0,6.216,7.544ZM31.831,29.866a1.167,1.167,0,0,0-1.651,1.651l2.9,2.895a1.164,1.164,0,1,0,1.642-1.651Z" transform="translate(-0.323)"/></g></g></svg>