<svg xmlns="http://www.w3.org/2000/svg" width="118.332" height="134.623" viewBox="0 0 118.332 134.623">
  <g id="file_7_" data-name="file (7)" transform="translate(-30.979)">
    <path id="Path_4625" data-name="Path 4625" d="M174.224,3.944h18.386a5.953,5.953,0,0,1,1.3.148V29.459a9.1,9.1,0,0,0,9.083,9.1H228.3a5.963,5.963,0,0,1,.145,1.29v9.133a1.972,1.972,0,0,0,3.944,0V39.848a9.8,9.8,0,0,0-2.881-6.965L199.589,2.9A9.8,9.8,0,0,0,192.61,0H174.224a1.972,1.972,0,0,0,0,3.944Zm51.444,30.669H202.992a5.152,5.152,0,0,1-5.138-5.155V6.74Z" transform="translate(-104.127 0)" fill="#a8aaaf"/>
    <path id="Path_4626" data-name="Path 4626" d="M32.951,39.938a1.972,1.972,0,0,0,1.972-1.972V12.49a8.555,8.555,0,0,1,8.546-8.546H60.895a1.972,1.972,0,0,0,0-3.944H43.469a12.5,12.5,0,0,0-12.49,12.49V37.966a1.972,1.972,0,0,0,1.972,1.972Z" transform="translate(0)" fill="#a8aaaf"/>
    <path id="Path_4627" data-name="Path 4627" d="M90.358,146.444h32.526a1.972,1.972,0,1,0,0-3.944H90.358a1.972,1.972,0,0,0,0,3.944Z" transform="translate(-42.312 -105.031)" fill="#a8aaaf"/>
    <path id="Path_4628" data-name="Path 4628" d="M90.358,322.5a1.972,1.972,0,1,0,0,3.944h32.526a1.972,1.972,0,1,0,0-3.944Z" transform="translate(-42.312 -237.701)" fill="#a8aaaf"/>
    <path id="Path_4629" data-name="Path 4629" d="M149.229,204.472a1.972,1.972,0,0,0-1.972-1.972h-58.9a1.972,1.972,0,1,0,0,3.944h58.9A1.972,1.972,0,0,0,149.229,204.472Z" transform="translate(-40.838 -149.254)" fill="#a8aaaf"/>
    <path id="Path_4630" data-name="Path 4630" d="M136.082,264.472a1.972,1.972,0,0,0-1.972-1.972H88.358a1.972,1.972,0,1,0,0,3.944H134.11A1.972,1.972,0,0,0,136.082,264.472Z" transform="translate(-40.838 -193.478)" fill="#a8aaaf"/>
    <path id="Path_4631" data-name="Path 4631" d="M147.007,248.7q-.036-.035-.074-.069l-12.509-11.1a25.309,25.309,0,0,0-6.158-31.746V184.875a1.972,1.972,0,0,0-3.944,0v18.249a25.329,25.329,0,0,0-29.639,3.93,1.972,1.972,0,1,0,2.726,2.851,21.33,21.33,0,1,1-4.859,6.971,1.972,1.972,0,0,0-3.619-1.567,25.342,25.342,0,0,0,6.645,29.18H43.469a8.555,8.555,0,0,1-8.546-8.546V173.86a1.972,1.972,0,0,0-3.944,0v62.084a12.5,12.5,0,0,0,12.49,12.49h58.221a25.308,25.308,0,0,0,22.323-.645l12.647,11.293a7.722,7.722,0,0,0,5.418,2.234,7.235,7.235,0,0,0,5.113-2.074,7.12,7.12,0,0,0,2.119-5.116,7.577,7.577,0,0,0-2.3-5.423Zm-2.587,7.732a3.571,3.571,0,0,1-5.014-.185c-.026-.026-.053-.052-.081-.077l-11.857-10.587a25.563,25.563,0,0,0,4.769-4.717l12.037,10.678a3.656,3.656,0,0,1,1.092,2.582,3.2,3.2,0,0,1-.947,2.3Z" transform="translate(0 -126.692)" fill="#a8aaaf"/>
    <path id="Path_4632" data-name="Path 4632" d="M292.88,345.415A16.811,16.811,0,1,0,276.069,328.6a16.83,16.83,0,0,0,16.811,16.811ZM280.74,324.33a12.876,12.876,0,1,1-.727,4.274A12.887,12.887,0,0,1,280.74,324.33Z" transform="translate(-180.645 -229.809)" fill="#a8aaaf"/>
  </g>
</svg>
