<svg xmlns="http://www.w3.org/2000/svg" xmlns:xlink="http://www.w3.org/1999/xlink" width="14" height="14" viewBox="0 0 14 14"><defs><style>.a{fill:#898f95;}.b{clip-path:url(#a);}</style><clipPath id="a"><rect class="a" width="14" height="14" transform="translate(1 1.436)"/></clipPath></defs><g class="b" transform="translate(-1 -1.436)"><g transform="translate(1.85 -94.508)"><path class="a" d="M6.575,98.725A8.2,8.2,0,0,0,.1,102.332a.521.521,0,0,0,0,.621,8.2,8.2,0,0,0,6.472,3.61,8.2,8.2,0,0,0,6.472-3.607.521.521,0,0,0,0-.621A8.2,8.2,0,0,0,6.575,98.725Zm.18,6.679a2.766,2.766,0,1,1,2.58-2.58A2.767,2.767,0,0,1,6.755,105.4Zm-.083-1.275a1.489,1.489,0,1,1,1.391-1.391A1.487,1.487,0,0,1,6.672,104.129Z"/></g></g></svg>