<svg xmlns="http://www.w3.org/2000/svg" xmlns:xlink="http://www.w3.org/1999/xlink" width="14" height="14" viewBox="0 0 14 14"><defs><style>.a{fill:#3381DD;}.b{clip-path:url(#a);}.c{fill:none;}</style><clipPath id="a"><rect class="a" width="14" height="14" transform="translate(1 1.436)"/></clipPath></defs><g class="b" transform="translate(-1 -1.436)"><g transform="translate(1 1.436)"><path class="c" d="M0,0H14V14H0Z"/><path class="a" d="M2.917,1.167a.583.583,0,1,0-1.167,0V3.5H.583V7h3.5V3.5H2.917ZM5.25,9.333a1.756,1.756,0,0,0,1.167,1.645v2.438H7.583V10.978A1.745,1.745,0,0,0,8.75,9.333V8.167H5.25Zm-4.667,0A1.756,1.756,0,0,0,1.75,10.978v2.438H2.917V10.978A1.756,1.756,0,0,0,4.083,9.333V8.167H.583ZM12.25,3.5V1.167a.583.583,0,0,0-1.167,0V3.5H9.917V7h3.5V3.5ZM7.583,1.167a.583.583,0,1,0-1.167,0V3.5H5.25V7h3.5V3.5H7.583ZM9.917,9.333a1.756,1.756,0,0,0,1.167,1.645v2.438H12.25V10.978a1.745,1.745,0,0,0,1.167-1.645V8.167h-3.5Z"/></g></g></svg>