<svg xmlns="http://www.w3.org/2000/svg" width="195.984" height="190.614" viewBox="0 0 195.984 190.614"><defs><style>.a{fill:#f4f5fa;}.b{fill:#8d979d;}</style></defs><g transform="translate(391.384 -139.881)"><path class="a" d="M-281.425,235.232h-34.591v-3.459q0-8.829,2-14.337a31.765,31.765,0,0,1,5.963-10.059q3.96-4.553,17.8-16.022,7.374-6.007,7.374-11.015t-2.959-7.783q-2.958-2.775-8.966-2.776a14.418,14.418,0,0,0-10.7,4.279q-4.233,4.279-5.416,14.929l-35.318-4.37q1.821-19.48,14.155-31.36t37.823-11.879q19.845,0,32.042,8.283,16.567,11.2,16.567,29.858a28.8,28.8,0,0,1-4.277,14.928q-4.28,7.194-17.48,17.57-9.2,7.286-11.606,11.7T-281.425,235.232Zm-19.435,9.194h4.369a16.34,16.34,0,0,1,16.34,16.34h0a16.34,16.34,0,0,1-16.34,16.34h-4.369a16.34,16.34,0,0,1-16.34-16.34h0a16.34,16.34,0,0,1,16.34-16.34h0Z"/><path class="b" d="M-288.32,278.62a1.5,1.5,0,0,1-1.5-1.5,1.5,1.5,0,0,1,1.5-1.5,14.858,14.858,0,0,0,14.842-14.841,14.859,14.859,0,0,0-14.842-14.842h-4.369a1.5,1.5,0,0,1-1.5-1.5,1.5,1.5,0,0,1,1.5-1.5h4.369a17.862,17.862,0,0,1,17.842,17.842A17.861,17.861,0,0,1-288.32,278.62Zm-4.37,0h0a17.863,17.863,0,0,1-17.841-17.841,17.836,17.836,0,0,1,3.88-11.109,1.5,1.5,0,0,1,2.108-.236,1.5,1.5,0,0,1,.237,2.107,14.825,14.825,0,0,0-3.225,9.236A14.859,14.859,0,0,0-292.69,275.62a1.5,1.5,0,0,1,1.5,1.5A1.5,1.5,0,0,1-292.69,278.62Zm19.432-41.879h-34.6a1.5,1.5,0,0,1-1.5-1.5v-3.46c0-6.034.7-11.03,2.089-14.85a33.119,33.119,0,0,1,6.246-10.537c2.716-3.122,8.6-8.418,17.97-16.189,4.537-3.7,6.833-7.01,6.831-9.859a1.5,1.5,0,0,1,1.5-1.5h0a1.5,1.5,0,0,1,1.5,1.5c0,3.849-2.591,7.833-7.926,12.178-9.11,7.551-15.04,12.885-17.616,15.845a30.13,30.13,0,0,0-5.685,9.589c-1.267,3.488-1.909,8.14-1.909,13.824v1.96h31.627a24.227,24.227,0,0,1,2.568-10.736,1.5,1.5,0,0,1,2.036-.6,1.5,1.5,0,0,1,.6,2.035c-1.479,2.708-2.229,6.341-2.229,10.8a1.5,1.5,0,0,1-.439,1.061A1.5,1.5,0,0,1-273.258,236.741Zm14.029-23.214a1.5,1.5,0,0,1-1.181-.573,1.5,1.5,0,0,1,.252-2.106c8.613-6.771,14.368-12.544,17.107-17.159a27.331,27.331,0,0,0,4.069-14.173c0-12.012-5.206-21.373-15.91-28.609-7.845-5.326-18.344-8.026-31.207-8.026-10.6,0-19.558,1.591-26.612,4.728a1.5,1.5,0,0,1-1.98-.761,1.5,1.5,0,0,1,.761-1.98c7.441-3.309,16.8-4.987,27.831-4.987,13.475,0,24.54,2.874,32.89,8.542,11.429,7.726,17.226,18.191,17.227,31.1a30.327,30.327,0,0,1-4.5,15.717c-2.957,4.982-8.79,10.865-17.82,17.964A1.5,1.5,0,0,1-259.229,213.527Zm-43.524-23.033a1.652,1.652,0,0,1-.185-.011l-35.324-4.371a1.5,1.5,0,0,1-1.309-1.629c1.242-13.295,6.157-24.164,14.609-32.3a1.5,1.5,0,0,1,2.121.04,1.5,1.5,0,0,1-.04,2.121c-7.613,7.331-12.168,17.074-13.552,28.974l32.375,4.006c.915-6.705,2.771-11.4,5.655-14.312a15.985,15.985,0,0,1,11.813-4.723,1.5,1.5,0,0,1,1.453,1.546,1.487,1.487,0,0,1-1.546,1.453,12.928,12.928,0,0,0-9.586,3.833c-2.567,2.594-4.247,7.319-4.994,14.042a1.5,1.5,0,0,1-.561,1.011A1.5,1.5,0,0,1-302.753,190.494Z"/><path class="a" d="M-245.4,309.16l-17.393-11.618,1.162-1.74a25.855,25.855,0,0,1,5.823-6.536,19.209,19.209,0,0,1,6.376-3.055,110.958,110.958,0,0,1,14.329-2.08q5.726-.545,7.407-3.061a6.139,6.139,0,0,0,1.126-4.907q-.555-2.389-3.576-4.408a8.717,8.717,0,0,0-6.815-1.44q-3.565.73-7.737,5.687l-16.3-14.06q7.458-9.183,17.651-11.015t23.008,6.73q9.978,6.666,13.33,14.927,4.57,11.194-1.7,20.578a17.413,17.413,0,0,1-7.165,6.07q-4.567,2.18-14.689,2.963-7.069.574-9.765,1.984A14.475,14.475,0,0,0-245.4,309.16Zm-12.86-1.9,2.2,1.468a9.88,9.88,0,0,1,2.729,13.7h0a9.881,9.881,0,0,1-13.7,2.728l-2.2-1.468a9.881,9.881,0,0,1-2.729-13.7h0a9.881,9.881,0,0,1,13.7-2.733Z"/><path class="b" d="M-253.406,328.325a11.294,11.294,0,0,1-6.3-1.92,1.5,1.5,0,0,1-.661-1.389,1.5,1.5,0,0,1-1.534-.079,11.394,11.394,0,0,1-3.145-15.786,11.376,11.376,0,0,1,5.993-4.518,1.5,1.5,0,0,1,1.884.972,1.5,1.5,0,0,1-.973,1.885,8.375,8.375,0,0,0-4.407,3.324,8.332,8.332,0,0,0-1.252,6.3,8.33,8.33,0,0,0,3.566,5.333,1.5,1.5,0,0,1,.66,1.39,1.5,1.5,0,0,1,1.535.079,8.323,8.323,0,0,0,6.291,1.249,8.323,8.323,0,0,0,5.333-3.565,8.391,8.391,0,0,0-2.315-11.626l-2.2-1.466a1.5,1.5,0,0,1-.416-2.08,1.5,1.5,0,0,1,2.08-.416l2.2,1.467a11.394,11.394,0,0,1,3.145,15.787,11.308,11.308,0,0,1-7.242,4.842A11.492,11.492,0,0,1-253.406,328.325Zm16.179-17.66a1.5,1.5,0,0,1-.833-.253l-17.4-11.62a1.5,1.5,0,0,1-.414-2.08l1.162-1.74a27.118,27.118,0,0,1,6.137-6.875,20.655,20.655,0,0,1,6.923-3.334,112.855,112.855,0,0,1,14.6-2.125c3.258-.31,5.437-1.14,6.278-2.4a1.5,1.5,0,0,1,2.08-.415,1.5,1.5,0,0,1,.415,2.081c-1.4,2.094-4.182,3.311-8.513,3.722a110.185,110.185,0,0,0-14.161,2.053,17.579,17.579,0,0,0-5.8,2.8,24.214,24.214,0,0,0-5.438,6.12l-.355.532,14.912,9.961a16.024,16.024,0,0,1,4.73-4.2,1.5,1.5,0,0,1,2.051.541,1.5,1.5,0,0,1-.542,2.05,13.045,13.045,0,0,0-4.555,4.466,1.5,1.5,0,0,1-.957.685A1.544,1.544,0,0,1-237.227,310.665Zm14.844-6.965a1.5,1.5,0,0,1-1.494-1.384,1.5,1.5,0,0,1,1.38-1.611c6.531-.506,11.295-1.456,14.161-2.822a15.945,15.945,0,0,0,6.569-5.559c3.916-5.858,4.426-12.133,1.554-19.173-2.111-5.2-6.409-9.995-12.777-14.248-5.262-3.515-10.221-5.692-14.74-6.468a1.5,1.5,0,0,1-1.224-1.733,1.5,1.5,0,0,1,1.733-1.224c4.934.848,10.283,3.18,15.9,6.931,6.876,4.593,11.549,9.845,13.888,15.612,3.231,7.918,2.612,15.314-1.842,21.978a18.949,18.949,0,0,1-7.788,6.6c-3.225,1.538-8.2,2.554-15.2,3.1A1.145,1.145,0,0,1-222.383,303.7Zm-14.142-26.2a1.5,1.5,0,0,1-.98-.364l-16.293-14.06a1.5,1.5,0,0,1-.185-2.081c5.181-6.382,11.423-10.267,18.551-11.547a1.5,1.5,0,0,1,1.742,1.211A1.5,1.5,0,0,1-234.9,252.4a27.278,27.278,0,0,0-15.814,9.373l14.044,12.12c2.653-2.894,5.144-4.55,7.583-5.05a10.258,10.258,0,0,1,7.987,1.688,1.5,1.5,0,0,1,.351,2.093,1.5,1.5,0,0,1-2.092.351,7.239,7.239,0,0,0-5.642-1.194c-2.03.416-4.349,2.16-6.894,5.185a1.5,1.5,0,0,1-1.028.529C-236.446,277.5-236.486,277.5-236.525,277.5Z"/><path class="a" d="M-338.2,299.78l-17.659,11.2-1.121-1.766a25.85,25.85,0,0,1-3.62-7.97,19.2,19.2,0,0,1-.213-7.067,111.043,111.043,0,0,1,3.9-13.945q1.821-5.455.2-8.012a6.142,6.142,0,0,0-4.031-3.016q-2.41-.459-5.478,1.486a8.723,8.723,0,0,0-4.076,5.649q-.775,3.557,2.069,9.378l-19.459,9.208q-5.379-10.536-2.928-20.6t15.467-18.315q10.134-6.428,19.045-6.147,12.087.353,18.13,9.881a17.415,17.415,0,0,1,2.651,9.009q.144,5.059-3.236,14.632-2.336,6.7-2.139,9.732A14.487,14.487,0,0,0-338.2,299.78Zm-6.947,10.989,2.232-1.415a9.88,9.88,0,0,1,13.635,3.052h0a9.879,9.879,0,0,1-3.052,13.635l-2.227,1.415A9.88,9.88,0,0,1-348.2,324.4h0a9.881,9.881,0,0,1,3.047-13.635Z"/><path class="b" d="M-331.654,330.495a11.383,11.383,0,0,1-9.629-5.282,11.38,11.38,0,0,1-1.706-7.311,1.5,1.5,0,0,1,1.654-1.329,1.5,1.5,0,0,1,1.329,1.654,8.366,8.366,0,0,0,1.255,5.377,8.391,8.391,0,0,0,11.568,2.59,1.5,1.5,0,0,1,1.54-.04,1.5,1.5,0,0,1,.693-1.376,8.39,8.39,0,0,0,2.589-11.566,8.326,8.326,0,0,0-5.248-3.691,8.321,8.321,0,0,0-6.319,1.1l-2.232,1.416a1.5,1.5,0,0,1-2.07-.463,1.5,1.5,0,0,1,.463-2.07l2.232-1.416a11.3,11.3,0,0,1,8.581-1.5,11.3,11.3,0,0,1,7.125,5.01,11.4,11.4,0,0,1-3.514,15.708,1.5,1.5,0,0,1-1.54.04,1.5,1.5,0,0,1-.693,1.376A11.317,11.317,0,0,1-331.654,330.495Zm-16.035-18.005a1.468,1.468,0,0,1-.329-.036,1.5,1.5,0,0,1-.939-.661l-1.12-1.768a27.189,27.189,0,0,1-3.8-8.392,20.672,20.672,0,0,1-.243-7.681,112.858,112.858,0,0,1,3.966-14.211c1.035-3.105,1.159-5.435.348-6.715a1.5,1.5,0,0,1,.465-2.07,1.5,1.5,0,0,1,2.07.465c1.346,2.126,1.332,5.165-.045,9.292a110.146,110.146,0,0,0-3.855,13.779,17.585,17.585,0,0,0,.211,6.441,24.223,24.223,0,0,0,3.4,7.447l.343.54,15.143-9.6a16.015,16.015,0,0,1-1.931-6.025,1.5,1.5,0,0,1,1.325-1.657,1.5,1.5,0,0,1,1.656,1.325,13.018,13.018,0,0,0,2.241,5.972,1.5,1.5,0,0,1,.239,1.153,1.5,1.5,0,0,1-.667.97l-17.666,11.2A1.5,1.5,0,0,1-347.689,312.49Zm-31.829-16.062a1.5,1.5,0,0,1-1.336-.818c-3.739-7.322-4.765-14.6-3.05-21.637a1.5,1.5,0,0,1,1.813-1.1,1.5,1.5,0,0,1,1.1,1.813,27.261,27.261,0,0,0,2.17,18.254l16.767-7.933c-1.573-3.6-2.08-6.545-1.55-8.979a10.258,10.258,0,0,1,4.779-6.621,1.5,1.5,0,0,1,2.055.528,1.5,1.5,0,0,1-.526,2.054,7.24,7.24,0,0,0-3.376,4.677c-.441,2.024.216,4.851,1.952,8.4a1.5,1.5,0,0,1,.068,1.156,1.5,1.5,0,0,1-.774.859l-19.453,9.2A1.5,1.5,0,0,1-379.518,296.428Zm49.139-11.542a1.5,1.5,0,0,1-.5-.086,1.5,1.5,0,0,1-.916-1.913c2.18-6.179,3.241-10.92,3.151-14.093a15.941,15.941,0,0,0-2.423-8.255c-3.776-5.952-9.307-8.957-16.9-9.179-5.624-.17-11.735,1.814-18.2,5.915-5.347,3.393-9.344,7.048-11.882,10.865a1.5,1.5,0,0,1-2.079.418,1.5,1.5,0,0,1-.419-2.08c2.772-4.168,7.069-8.117,12.773-11.736,6.982-4.429,13.686-6.574,19.9-6.38,8.546.249,15.058,3.808,19.352,10.577a18.939,18.939,0,0,1,2.884,9.793c.1,3.57-.985,8.534-3.321,15.153A1.5,1.5,0,0,1-330.379,284.886Z"/></g></svg>